{
.appVersion = "939";
copyright = "Copyright 2011 Google Inc. All Rights Reserved.";
customParameters = (
{
name = license;
value = "Licensed under the Apache License, Version 2.0";
},
{
name = licenseURL;
value = "http://www.apache.org/licenses/LICENSE-2.0";
},
{
name = vendorID;
value = GOOG;
},
{
name = panose;
value = (
2,
0,
0,
0,
0,
0,
0,
0,
0,
0
);
},
{
name = unicodeRanges;
value = (
0,
1,
2,
3,
4,
5,
6,
7,
9,
29,
30,
31,
32,
33,
34,
35,
36,
37,
38,
40,
45,
60,
62,
64,
69
);
},
{
name = codePageRanges;
value = (
1252,
1250,
1251,
1253,
1254,
1257,
1258
);
},
{
name = glyphOrder;
value = (
.notdef,
uni0000,
uni0002,
uni0009,
uni000D,
space,
exclam,
quotedbl,
numbersign,
dollar,
percent,
ampersand,
quotesingle,
parenleft,
parenright,
asterisk,
plus,
comma,
hyphen,
period,
slash,
zero,
one,
two,
three,
four,
five,
six,
seven,
eight,
nine,
colon,
semicolon,
less,
equal,
greater,
question,
at,
A,
B,
C,
D,
E,
F,
G,
H,
I,
J,
K,
L,
M,
N,
O,
P,
Q,
R,
S,
T,
U,
V,
W,
X,
Y,
Z,
bracketleft,
backslash,
bracketright,
asciicircum,
underscore,
grave,
a,
b,
c,
d,
e,
f,
g,
h,
i,
j,
k,
l,
m,
n,
o,
p,
q,
r,
s,
t,
u,
v,
w,
x,
y,
z,
braceleft,
bar,
braceright,
asciitilde,
exclamdown,
cent,
sterling,
currency,
yen,
brokenbar,
section,
dieresis,
copyright,
ordfeminine,
guillemotleft,
logicalnot,
registered,
macron,
degree,
plusminus,
twosuperior,
threesuperior,
acute,
mu,
paragraph,
periodcentered,
cedilla,
onesuperior,
ordmasculine,
guillemotright,
onequarter,
onehalf,
threequarters,
questiondown,
AE,
multiply,
Oslash,
Thorn,
germandbls,
ae,
eth,
divide,
oslash,
thorn,
dcroat,
Hbar,
dotlessi,
kgreenlandic,
Lslash,
lslash,
Eng,
eng,
OE,
oe,
longs,
uni0180,
uni0181,
uni0182,
uni0183,
uni0184,
uni0185,
uni0186,
uni0187,
uni0188,
uni0189,
uni018A,
uni018B,
uni018C,
uni018D,
uni018E,
uni018F,
uni0190,
uni0191,
florin,
uni0193,
uni0194,
uni0195,
uni0197,
uni0198,
uni0199,
uni019A,
uni019B,
uni019C,
uni019D,
Ohorn,
ohorn,
uni01A2,
uni01A3,
uni01A4,
uni01A5,
uni01A6,
uni01A7,
uni01A8,

glyphs = (
{
glyphname = .notdef;
lastChange = "2017-05-20 07:34:14 +0000";
layers = (
{
layerId = "F2BBBF4B-19AF-4944-B5B7-53A37E70F101";
paths = (
{
closed = 1;
nodes = (
"808 1456 LINE",
"100 1456 LINE",
"100 0 LINE",
"808 0 LINE"
);
},
{
closed = 1;
nodes = (
"452 796 LINE",
"194 1402 LINE",
"709 1402 LINE"
);
},
{
closed = 1;
nodes = (
"754 84 LINE",
"480 728 LINE",
"754 1372 LINE"
);
},
{
closed = 1;
nodes = (
"154 96 LINE",
"154 1360 LINE",
"422 728 LINE"
);
},
{
closed = 1;
nodes = (
"709 54 LINE",
"194 54 LINE",
"452 660 LINE"
);
}
);
width = 918;
}
);
note = .notdef;
},
{
glyphname = exclam;
lastChange = "2017-05-20 07:34:14 +0000";
layers = (
{
layerId = "F2BBBF4B-19AF-4944-B5B7-53A37E70F101";
paths = (
{
closed = 1;
nodes = (
"127 461 LINE",
"395 461 LINE",
"609 1456 LINE",
"258 1456 LINE"
);
},
{
closed = 1;
nodes = (
"26 45 OFFCURVE",
"108 -20 OFFCURVE",
"204 -19 CURVE SMOOTH",
"304 -19 OFFCURVE",
"387 54 OFFCURVE",
"386 157 CURVE SMOOTH",
"383 256 OFFCURVE",
"301 322 OFFCURVE",
"205 321 CURVE SMOOTH",
"105 321 OFFCURVE",
"20 249 OFFCURVE",
"23 145 CURVE SMOOTH"
);
}
);
width = 549;
}
);
note = exclam;
unicode = 0021;
},
{
glyphname = quotedbl;
lastChange = "2017-05-20 07:34:14 +0000";
layers = (
{
layerId = "F2BBBF4B-19AF-4944-B5B7-53A37E70F101";
paths = (
{
closed = 1;
nodes = (
"511 1537 LINE",
"422 969 LINE",
"606 969 LINE",
"711 1382 LINE",
"736 1537 LINE"
);
},
{
closed = 1;
nodes = (
"170 1537 LINE",
"81 969 LINE",
"266 969 LINE",
"371 1382 LINE",
"395 1537 LINE"
);
}
);
width = 631;
}
);
leftKerningGroup = quotedbl;
note = quotedbl;
rightKerningGroup = quotedbl;
unicode = 0022;
},
{
glyphname = numbersign;
lastChange = "2017-05-20 07:34:14 +0000";
layers = (
{
layerId = "F2BBBF4B-19AF-4944-B5B7-53A37E70F101";
paths = (
{
closed = 1;
nodes = (
"759 410 LINE",
"1006 410 LINE",
"1038 593 LINE",
"819 593 LINE",
"908 857 LINE",
"1157 857 LINE",
"1189 1040 LINE",
"968 1040 LINE",
"1107 1456 LINE",
"906 1456 LINE",
"767 1040 LINE",
"618 1040 LINE",
"757 1456 LINE",
"557 1456 LINE",
"418 1040 LINE",
"178 1040 LINE",
"145 857 LINE",
"358 857 LINE",
"269 593 LINE",
"27 593 LINE",
"-5 410 LINE",
"209 410 LINE",
"71 0 LINE",
"272 0 LINE",
"409 410 LINE",
"558 410 LINE",
"421 0 LINE",
"622 0 LINE"
);
},
{
closed = 1;
nodes = (
"707 857 LINE",
"618 593 LINE",
"469 593 LINE",
"558 857 LINE"
);
}
);
width = 1154;
}
);
note = numbersign;
unicode = 0023;
},
{
glyphname = dollar;
lastChange = "2017-05-20 07:34:14 +0000";
layers = (
{
layerId = "F2BBBF4B-19AF-4944-B5B7-53A37E70F101";
paths = (
{
closed = 1;
nodes = (
"1037 482 OFFCURVE",
"1022 553 OFFCURVE",
"987 610 CURVE SMOOTH",
"916 723 OFFCURVE",
"790 796 OFFCURVE",
"655 867 CURVE SMOOTH",
"574 910 OFFCURVE",
"517 962 OFFCURVE",
"530 1059 CURVE SMOOTH",
"542 1147 OFFCURVE",
"599 1222 OFFCURVE",
"694 1222 CURVE SMOOTH",
"809 1219 OFFCURVE",
"816 1093 OFFCURVE",
"812 1006 CURVE",
"1141 1005 LINE",
"1146 1225 OFFCURVE",
"1051 1420 OFFCURVE",
"822 1468 CURVE",
"864 1685 LINE",
"707 1685 LINE",
"667 1474 LINE",
"430 1453 OFFCURVE",
"221 1316 OFFCURVE",
"206 1061 CURVE SMOOTH",
"202 994 OFFCURVE",
"210 937 OFFCURVE",
"229 888 CURVE SMOOTH",
"268 790 OFFCURVE",
"348 711 OFFCURVE",
"584 594 CURVE SMOOTH",
"669 551 OFFCURVE",
"723 497 OFFCURVE",
"708 394 CURVE SMOOTH",
"696 303 OFFCURVE",
"633 235 OFFCURVE",
"538 235 CURVE SMOOTH",
"403 235 OFFCURVE",
"379 356 OFFCURVE",
"383 467 CURVE",
"55 468 LINE",
"47 216 OFFCURVE",
"170 22 OFFCURVE",
"429 -15 CURVE",
"390 -218 LINE",
"546 -218 LINE",
"585 -16 LINE",
"822 7 OFFCURVE",
"1017 143 OFFCURVE",
"1032 395 CURVE SMOOTH"
);
}
);
width = 1151;
}
);
note = dollar;
unicode = 0024;
},
{
glyphname = percent;
lastChange = "2017-05-20 07:34:14 +0000";
layers = (
{
layerId = "F2BBBF4B-19AF-4944-B5B7-53A37E70F101";
paths = (
{
closed = 1;
nodes = (
"167 920 OFFCURVE",
"290 803 OFFCURVE",
"466 800 CURVE SMOOTH",
"651 796 OFFCURVE",
"791 912 OFFCURVE",
"808 1099 CURVE SMOOTH",
"814 1176 LINE SMOOTH",
"825 1356 OFFCURVE",
"705 1474 OFFCURVE",
"526 1477 CURVE SMOOTH",
"339 1481 OFFCURVE",
"200 1361 OFFCURVE",
"183 1176 CURVE SMOOTH",
"178 1099 LINE SMOOTH"
);
},
{
closed = 1;
nodes = (
"239 198 LINE",
"393 111 LINE",
"1270 1237 LINE",
"1117 1323 LINE"
);
},
{
closed = 1;
nodes = (
"410 1239 OFFCURVE",
"455 1297 OFFCURVE",
"524 1296 CURVE SMOOTH",
"592 1295 OFFCURVE",
"609 1236 OFFCURVE",
"604 1177 CURVE",
"593 1099 LINE SMOOTH",
"582 1036 OFFCURVE",
"538 978 OFFCURVE",
"469 981 CURVE SMOOTH",
"404 982 OFFCURVE",
"385 1039 OFFCURVE",
"389 1095 CURVE",
"399 1176 LINE"
);
},
{
closed = 1;
nodes = (
"697 101 OFFCURVE",
"819 -17 OFFCURVE",
"996 -21 CURVE SMOOTH",
"1183 -25 OFFCURVE",
"1321 93 OFFCURVE",
"1338 280 CURVE SMOOTH",
"1344 357 LINE SMOOTH",
"1353 537 OFFCURVE",
"1235 654 OFFCURVE",
"1056 658 CURVE SMOOTH",
"871 661 OFFCURVE",
"728 542 OFFCURVE",
"712 357 CURVE SMOOTH",
"706 280 LINE SMOOTH"
);
},
{
closed = 1;
nodes = (
"940 420 OFFCURVE",
"984 477 OFFCURVE",
"1055 476 CURVE SMOOTH",
"1122 475 OFFCURVE",
"1140 415 OFFCURVE",
"1135 358 CURVE",
"1126 293 LINE SMOOTH",
"1113 201 OFFCURVE",
"1071 157 OFFCURVE",
"999 161 CURVE SMOOTH",
"938 164 OFFCURVE",
"915 223 OFFCURVE",
"919 276 CURVE",
"928 357 LINE"
);
}
);
width = 1475;
}
);
note = percent;
unicode = 0025;
},
{
glyphname = ampersand;
lastChange = "2017-05-20 07:34:14 +0000";
layers = (
{
layerId = "F2BBBF4B-19AF-4944-B5B7-53A37E70F101";
paths = (
{
closed = 1;
nodes = (
"1033 252 LINE",
"1153 377 OFFCURVE",
"1219 536 OFFCURVE",
"1232 729 CURVE",
"959 729 LINE",
"948 644 OFFCURVE",
"916 563 OFFCURVE",
"865 486 CURVE",
"697 734 LINE",
"810 806 LINE SMOOTH",
"925 883 OFFCURVE",
"1022 992 OFFCURVE",
"1030 1135 CURVE SMOOTH",
"1039 1334 OFFCURVE",
"885 1473 OFFCURVE",
"693 1477 CURVE SMOOTH",
"454 1482 OFFCURVE",
"270 1315 OFFCURVE",
"253 1076 CURVE SMOOTH",
"245 968 OFFCURVE",
"285 869 OFFCURVE",
"328 770 CURVE",
"314 764 LINE",
"241 724 OFFCURVE",
"175 673 OFFCURVE",
"116 610 CURVE SMOOTH",
"-1 484 OFFCURVE",
"-33 230 OFFCURVE",
"134 90 CURVE SMOOTH",
"301 -51 OFFCURVE",
"563 -57 OFFCURVE",
"807 75 CURVE",
"857 0 LINE",
"1205 0 LINE"
);
},
{
closed = 1;
nodes = (
"543 1153 OFFCURVE",
"598 1219 OFFCURVE",
"674 1218 CURVE SMOOTH",
"734 1217 OFFCURVE",
"763 1167 OFFCURVE",
"758 1111 CURVE SMOOTH",
"752 1055 OFFCURVE",
"716 1005 OFFCURVE",
"649 961 CURVE SMOOTH",
"581 919 LINE",
"544 984 OFFCURVE",
"528 1038 OFFCURVE",
"534 1081 CURVE SMOOTH"
);
},
{
closed = 1;
nodes = (
"366 464 OFFCURVE",
"395 532 OFFCURVE",
"442 571 CURVE",
"455 579 LINE",
"650 283 LINE",
"581 253 OFFCURVE",
"522 239 OFFCURVE",
"473 240 CURVE SMOOTH",
"384 244 OFFCURVE",
"349 326 OFFCURVE",
"358 405 CURVE SMOOTH"
);
}
);
width = 1340;
}
);
note = ampersand;
unicode = 0026;
},
{
glyphname = quotesingle;
lastChange = "2017-05-20 07:34:14 +0000";
layers = (
{
layerId = "F2BBBF4B-19AF-4944-B5B7-53A37E70F101";
paths = (
{
closed = 1;
nodes = (
"187 1536 LINE",
"97 961 LINE",
"300 961 LINE",
"394 1358 LINE",
"422 1536 LINE"
);
}
);
width = 307;
}
);
leftKerningGroup = quotedbl;
note = quotesingle;
rightKerningGroup = quotedbl;
unicode = 0027;
},
{
glyphname = parenleft;
lastChange = "2017-05-20 07:34:14 +0000";
layers = (
{
layerId = "F2BBBF4B-19AF-4944-B5B7-53A37E70F101";
paths = (
{
closed = 1;
nodes = (
"496 1511 OFFCURVE",
"328 1282 OFFCURVE",
"227 1010 CURVE SMOOTH",
"139 774 OFFCURVE",
"98 533 OFFCURVE",
"103 286 CURVE SMOOTH",
"104 187 OFFCURVE",
"116 90 OFFCURVE",
"139 -5 CURVE SMOOTH",
"184 -197 OFFCURVE",
"282 -362 OFFCURVE",
"457 -450 CURVE",
"528 -286 LINE",
"377 -165 OFFCURVE",
"342 56 OFFCURVE",
"353 273 CURVE SMOOTH",
"364 495 OFFCURVE",
"390 682 OFFCURVE",
"432 834 CURVE SMOOTH",
"516 1138 OFFCURVE",
"622 1303 OFFCURVE",
"801 1438 CURVE",
"751 1608 LINE"
);
}
);
width = 701;
}
);
note = parenleft;
unicode = 0028;
},
{
glyphname = parenright;
lastChange = "2017-05-20 07:34:14 +0000";
layers = (
{
layerId = "F2BBBF4B-19AF-4944-B5B7-53A37E70F101";
paths = (
{
closed = 1;
nodes = (
"627 771 OFFCURVE",
"624 972 OFFCURVE",
"573 1164 CURVE SMOOTH",
"522 1356 OFFCURVE",
"420 1519 OFFCURVE",
"245 1606 CURVE",
"171 1440 LINE",
"247 1381 OFFCURVE",
"297 1301 OFFCURVE",
"320 1199 CURVE SMOOTH",
"367 995 OFFCURVE",
"344 746 OFFCURVE",
"315 550 CURVE SMOOTH",
"266 223 OFFCURVE",
"157 -86 OFFCURVE",
"-102 -282 CURVE",
"-50 -452 LINE",
"83 -403 OFFCURVE",
"194 -322 OFFCURVE",
"285 -210 CURVE SMOOTH",
"465 14 OFFCURVE",
"567 310 OFFCURVE",
"603 569 CURVE SMOOTH",
"607 606 LINE SMOOTH"
);
}
);
width = 700;
}
);
note = parenright;
unicode = 0029;
},
{
glyphname = asterisk;
lastChange = "2017-05-20 07:34:14 +0000";
layers = (
{
layerId = "F2BBBF4B-19AF-4944-B5B7-53A37E70F101";
paths = (
{
closed = 1;
nodes = (
"520 853 LINE",
"648 558 LINE",
"822 667 LINE",
"652 938 LINE",
"990 1028 LINE",
"960 1229 LINE",
"645 1106 LINE",
"731 1456 LINE",
"522 1456 LINE",
"484 1097 LINE",
"190 1231 LINE",
"99 1052 LINE",
"397 963 LINE",
"134 696 LINE",
"294 573 LINE"
);
}
);
width = 924;
}
);
note = asterisk;
unicode = 002A;
},
{
glyphname = plus;
lastChange = "2017-05-20 07:34:14 +0000";
layers = (
{
layerId = "F2BBBF4B-19AF-4944-B5B7-53A37E70F101";
paths = (
{
closed = 1;
nodes = (
"721 826 LINE",
"787 1206 LINE",
"480 1206 LINE",
"414 826 LINE",
"81 826 LINE",
"31 537 LINE",
"364 537 LINE",
"296 146 LINE",
"603 146 LINE",
"672 537 LINE",
"1001 537 LINE",
"1051 826 LINE"
);
}
);
width = 1061;
}
);
note = plus;
unicode = 002B;
},
{
glyphname = comma;
lastChange = "2017-05-20 07:34:14 +0000";
layers = (
{
layerId = "F2BBBF4B-19AF-4944-B5B7-53A37E70F101";
paths = (
{
closed = 1;
nodes = (
"45 32 LINE SMOOTH",
"33 -38 OFFCURVE",
"11 -99 OFFCURVE",
"-22 -150 CURVE SMOOTH",
"-55 -202 OFFCURVE",
"-86 -256 OFFCURVE",
"-114 -312 CURVE",
"52 -391 LINE",
"188 -284 OFFCURVE",
"285 -131 OFFCURVE",
"312 41 CURVE SMOOTH",
"349 254 LINE",
"84 254 LINE"
);
}
);
width = 535;
}
);
leftKerningGroup = comma;
note = comma;
rightKerningGroup = comma;
unicode = 002C;
},
{
glyphname = hyphen;
lastChange = "2017-05-20 07:34:14 +0000";
layers = (
{
layerId = "F2BBBF4B-19AF-4944-B5B7-53A37E70F101";
paths = (
{
closed = 1;
nodes = (
"128 497 LINE",
"713 497 LINE",
"758 758 LINE",
"173 758 LINE"
);
}
);
width = 893;
}
);
leftKerningGroup = hyphen;
note = hyphen;
unicode = 002D;
},
{
glyphname = period;
lastChange = "2017-05-20 07:34:14 +0000";
layers = (
{
layerId = "F2BBBF4B-19AF-4944-B5B7-53A37E70F101";
paths = (
{
closed = 1;
nodes = (
"40 53 OFFCURVE",
"122 -13 OFFCURVE",
"217 -12 CURVE SMOOTH",
"317 -12 OFFCURVE",
"401 61 OFFCURVE",
"398 164 CURVE SMOOTH",
"395 263 OFFCURVE",
"314 329 OFFCURVE",
"218 328 CURVE SMOOTH",
"118 328 OFFCURVE",
"34 255 OFFCURVE",
"37 152 CURVE SMOOTH"
);
}
);
width = 601;
}
);
leftKerningGroup = comma;
note = period;
rightKerningGroup = comma;
unicode = 002E;
},
{
glyphname = slash;
lastChange = "2017-05-20 07:34:14 +0000";
layers = (
{
layerId = "F2BBBF4B-19AF-4944-B5B7-53A37E70F101";
paths = (
{
closed = 1;
nodes = (
"-161 -125 LINE",
"84 -125 LINE",
"842 1456 LINE",
"596 1456 LINE"
);
}
);
width = 697;
}
);
note = slash;
unicode = 002F;
},
{
glyphname = zero;
lastChange = "2017-05-20 07:34:14 +0000";
layers = (
{
layerId = "F2BBBF4B-19AF-4944-B5B7-53A37E70F101";
paths = (
{
closed = 1;
nodes = (
"1136 1061 OFFCURVE",
"1100 1260 OFFCURVE",
"973 1381 CURVE SMOOTH",
"846 1502 OFFCURVE",
"564 1509 OFFCURVE",
"404 1393 CURVE SMOOTH",
"243 1277 OFFCURVE",
"157 1074 OFFCURVE",
"125 861 CURVE SMOOTH",
"85 595 LINE SMOOTH",
"60 394 OFFCURVE",
"97 195 OFFCURVE",
"224 75 CURVE SMOOTH",
"351 -46 OFFCURVE",
"636 -54 OFFCURVE",
"796 65 CURVE SMOOTH",
"941 172 OFFCURVE",
"1032 351 OFFCURVE",
"1071 602 CURVE SMOOTH",
"1111 861 LINE SMOOTH"
);
},
{
closed = 1;
nodes = (
"731 514 OFFCURVE",
"721 466 OFFCURVE",
"708 416 CURVE SMOOTH",
"680 315 OFFCURVE",
"625 231 OFFCURVE",
"514 238 CURVE SMOOTH",
"415 243 OFFCURVE",
"394 334 OFFCURVE",
"399 431 CURVE SMOOTH",
"408 553 LINE",
"460 906 LINE SMOOTH",
"466 947 OFFCURVE",
"476 992 OFFCURVE",
"490 1042 CURVE SMOOTH",
"517 1142 OFFCURVE",
"574 1225 OFFCURVE",
"683 1218 CURVE SMOOTH",
"780 1213 OFFCURVE",
"803 1123 OFFCURVE",
"798 1027 CURVE SMOOTH",
"789 906 LINE",
"738 559 LINE SMOOTH"
);
}
);
width = 1151;
}
);
note = zero;
unicode = 0030;
},
{
glyphname = one;
lastChange = "2017-05-20 07:34:14 +0000";
layers = (
{
layerId = "F2BBBF4B-19AF-4944-B5B7-53A37E70F101";
paths = (
{
closed = 1;
nodes = (
"271 1241 LINE",
"225 974 LINE",
"564 1070 LINE",
"378 0 LINE",
"707 0 LINE",
"951 1457 LINE",
"914 1456 LINE"
);
}
);
width = 1151;
}
);
note = one;
unicode = 0031;
},
{
glyphname = two;
lastChange = "2017-05-20 07:34:14 +0000";
layers = (
{
layerId = "F2BBBF4B-19AF-4944-B5B7-53A37E70F101";
paths = (
{
closed = 1;
nodes = (
"692 477 LINE",
"869 643 LINE SMOOTH",
"993 759 OFFCURVE",
"1095 893 OFFCURVE",
"1108 1061 CURVE SMOOTH",
"1129 1334 OFFCURVE",
"934 1474 OFFCURVE",
"677 1478 CURVE SMOOTH",
"388 1482 OFFCURVE",
"139 1267 OFFCURVE",
"126 987 CURVE",
"453 989 LINE",
"466 1094 OFFCURVE",
"525 1223 OFFCURVE",
"650 1220 CURVE SMOOTH",
"757 1219 OFFCURVE",
"780 1125 OFFCURVE",
"768 1034 CURVE SMOOTH",
"751 911 OFFCURVE",
"630 794 OFFCURVE",
"546 713 CURVE SMOOTH",
"28 232 LINE",
"-8 0 LINE",
"979 0 LINE",
"1020 260 LINE",
"470 262 LINE"
);
}
);
width = 1151;
}
);
note = two;
unicode = 0032;
},
{
glyphname = three;
lastChange = "2017-05-20 07:34:14 +0000";
layers = (
{
layerId = "F2BBBF4B-19AF-4944-B5B7-53A37E70F101";
paths = (
{
closed = 1;
nodes = (
"682 612 OFFCURVE",
"734 548 OFFCURVE",
"717 424 CURVE SMOOTH",
"702 313 OFFCURVE",
"605 238 OFFCURVE",
"494 241 CURVE SMOOTH",
"397 244 OFFCURVE",
"338 311 OFFCURVE",
"337 406 CURVE",
"10 406 LINE",
"9 139 OFFCURVE",
"210 -16 OFFCURVE",
"467 -20 CURVE SMOOTH",
"647 -23 OFFCURVE",
"831 40 OFFCURVE",
"947 170 CURVE SMOOTH",
"1063 300 OFFCURVE",
"1121 611 OFFCURVE",
"854 742 CURVE",
"991 806 OFFCURVE",
"1113 907 OFFCURVE",
"1122 1068 CURVE SMOOTH",
"1134 1252 OFFCURVE",
"1039 1372 OFFCURVE",
"895 1432 CURVE SMOOTH",
"750 1491 OFFCURVE",
"580 1494 OFFCURVE",
"426 1435 CURVE SMOOTH",
"272 1376 OFFCURVE",
"157 1257 OFFCURVE",
"148 1080 CURVE",
"479 1082 LINE",
"498 1166 OFFCURVE",
"570 1220 OFFCURVE",
"657 1219 CURVE SMOOTH",
"749 1218 OFFCURVE",
"800 1151 OFFCURVE",
"789 1062 CURVE SMOOTH",
"774 941 OFFCURVE",
"690 871 OFFCURVE",
"570 868 CURVE SMOOTH",
"425 869 LINE",
"386 618 LINE",
"562 617 LINE"
);
}
);
width = 1151;
}
);
note = three;
unicode = 0033;
},
{
glyphname = four;
lastChange = "2017-05-20 07:34:14 +0000";
layers = (
{
layerId = "F2BBBF4B-19AF-4944-B5B7-53A37E70F101";
paths = (
{
closed = 1;
nodes = (
"573 309 LINE",
"519 0 LINE",
"848 0 LINE",
"902 309 LINE",
"1044 309 LINE",
"1089 569 LINE",
"947 569 LINE",
"1101 1455 LINE",
"761 1461 LINE",
"761 1454 LINE",
"38 516 LINE",
"27 309 LINE"
);
},
{
closed = 1;
nodes = (
"618 569 LINE",
"370 571 LINE",
"706 1023 LINE"
);
}
);
width = 1151;
}
);
note = four;
unicode = 0034;
},
{
glyphname = five;
lastChange = "2017-05-20 07:34:14 +0000";
layers = (
{
layerId = "F2BBBF4B-19AF-4944-B5B7-53A37E70F101";
paths = (
{
closed = 1;
nodes = (
"433 701 OFFCURVE",
"492 726 OFFCURVE",
"565 725 CURVE SMOOTH",
"700 724 OFFCURVE",
"731 616 OFFCURVE",
"719 499 CURVE SMOOTH",
"707 380 OFFCURVE",
"658 237 OFFCURVE",
"514 241 CURVE SMOOTH",
"413 244 OFFCURVE",
"376 324 OFFCURVE",
"372 415 CURVE",
"43 415 LINE",
"42 286 OFFCURVE",
"86 181 OFFCURVE",
"175 102 CURVE SMOOTH",
"354 -58 OFFCURVE",
"666 -72 OFFCURVE",
"874 115 CURVE SMOOTH",
"1082 302 OFFCURVE",
"1094 621 OFFCURVE",
"970 814 CURVE SMOOTH",
"846 1006 OFFCURVE",
"573 972 OFFCURVE",
"465 903 CURVE",
"554 1194 LINE",
"1110 1194 LINE",
"1152 1456 LINE",
"322 1456 LINE",
"121 716 LINE",
"388 651 LINE"
);
}
);
width = 1151;
}
);
note = five;
unicode = 0035;
},
{
glyphname = six;
lastChange = "2017-05-20 07:34:14 +0000";
layers = (
{
layerId = "F2BBBF4B-19AF-4944-B5B7-53A37E70F101";
paths = (
{
closed = 1;
nodes = (
"1090 644 OFFCURVE",
"1051 805 OFFCURVE",
"947 905 CURVE SMOOTH",
"842 1004 OFFCURVE",
"611 1022 OFFCURVE",
"448 869 CURVE",
"547 1085 OFFCURVE",
"723 1216 OFFCURVE",
"966 1212 CURVE SMOOTH",
"979 1212 LINE",
"1005 1478 LINE",
"938 1478 LINE SMOOTH",
"494 1470 OFFCURVE",
"148 1145 OFFCURVE",
"89 666 CURVE SMOOTH",
"77 566 LINE SMOOTH",
"67 466 OFFCURVE",
"77 372 OFFCURVE",
"107 283 CURVE SMOOTH",
"166 106 OFFCURVE",
"305 -17 OFFCURVE",
"524 -21 CURVE SMOOTH",
"815 -25 OFFCURVE",
"1054 197 OFFCURVE",
"1078 489 CURVE SMOOTH"
);
},
{
closed = 1;
nodes = (
"521 763 OFFCURVE",
"690 748 OFFCURVE",
"727 644 CURVE SMOOTH",
"764 540 OFFCURVE",
"756 434 OFFCURVE",
"685 322 CURVE SMOOTH",
"613 210 OFFCURVE",
"471 226 OFFCURVE",
"431 287 CURVE SMOOTH",
"390 348 OFFCURVE",
"391 442 OFFCURVE",
"399 515 CURVE SMOOTH",
"414 620 LINE"
);
}
);
width = 1151;
}
);
note = six;
unicode = 0036;
},
{
glyphname = seven;
lastChange = "2017-05-20 07:34:14 +0000";
layers = (
{
layerId = "F2BBBF4B-19AF-4944-B5B7-53A37E70F101";
paths = (
{
closed = 1;
nodes = (
"141 1196 LINE",
"809 1196 LINE",
"94 0 LINE",
"454 0 LINE",
"1172 1261 LINE",
"1203 1456 LINE",
"183 1456 LINE"
);
}
);
width = 1151;
}
);
note = seven;
unicode = 0037;
},
{
glyphname = eight;
lastChange = "2017-05-20 07:34:14 +0000";
layers = (
{
layerId = "F2BBBF4B-19AF-4944-B5B7-53A37E70F101";
paths = (
{
closed = 1;
nodes = (
"1042 552 OFFCURVE",
"989 663 OFFCURVE",
"874 744 CURVE",
"941 779 OFFCURVE",
"998 823 OFFCURVE",
"1044 876 CURVE SMOOTH",
"1135 983 OFFCURVE",
"1175 1234 OFFCURVE",
"1010 1371 CURVE SMOOTH",
"845 1508 OFFCURVE",
"561 1517 OFFCURVE",
"359 1374 CURVE SMOOTH",
"157 1230 OFFCURVE",
"135 912 OFFCURVE",
"332 757 CURVE",
"177 685 OFFCURVE",
"60 572 OFFCURVE",
"48 393 CURVE SMOOTH",
"29 121 OFFCURVE",
"243 -16 OFFCURVE",
"492 -20 CURVE SMOOTH",
"761 -25 OFFCURVE",
"1016 118 OFFCURVE",
"1033 409 CURVE SMOOTH"
);
},
{
closed = 1;
nodes = (
"778 966 OFFCURVE",
"726 873 OFFCURVE",
"625 874 CURVE SMOOTH",
"532 875 OFFCURVE",
"511 964 OFFCURVE",
"519 1041 CURVE SMOOTH",
"530 1132 OFFCURVE",
"583 1219 OFFCURVE",
"683 1218 CURVE SMOOTH",
"775 1217 OFFCURVE",
"797 1136 OFFCURVE",
"789 1057 CURVE SMOOTH"
);
},
{
closed = 1;
nodes = (
"696 332 OFFCURVE",
"624 236 OFFCURVE",
"512 239 CURVE SMOOTH",
"409 240 OFFCURVE",
"371 328 OFFCURVE",
"382 420 CURVE SMOOTH",
"395 525 OFFCURVE",
"469 619 OFFCURVE",
"582 616 CURVE SMOOTH",
"685 615 OFFCURVE",
"720 528 OFFCURVE",
"708 436 CURVE SMOOTH"
);
}
);
width = 1151;
}
);
note = eight;
unicode = 0038;
},
{
glyphname = nine;
lastChange = "2017-05-20 07:34:14 +0000";
layers = (
{
layerId = "F2BBBF4B-19AF-4944-B5B7-53A37E70F101";
paths = (
{
closed = 1;
nodes = (
"708 -13 OFFCURVE",
"1029 305 OFFCURVE",
"1090 757 CURVE SMOOTH",
"1106 881 LINE SMOOTH",
"1125 1070 OFFCURVE",
"1076 1265 OFFCURVE",
"946 1385 CURVE SMOOTH",
"816 1504 OFFCURVE",
"580 1504 OFFCURVE",
"418 1408 CURVE SMOOTH",
"256 1311 OFFCURVE",
"148 1141 OFFCURVE",
"132 950 CURVE SMOOTH",
"119 790 OFFCURVE",
"164 633 OFFCURVE",
"275 538 CURVE SMOOTH",
"386 442 OFFCURVE",
"579 432 OFFCURVE",
"735 564 CURVE",
"651 359 OFFCURVE",
"497 255 OFFCURVE",
"272 250 CURVE SMOOTH",
"231 250 LINE",
"204 -21 LINE",
"245 -21 LINE SMOOTH"
);
},
{
closed = 1;
nodes = (
"470 1018 OFFCURVE",
"500 1113 OFFCURVE",
"556 1174 CURVE SMOOTH",
"612 1234 OFFCURVE",
"722 1233 OFFCURVE",
"758 1169 CURVE SMOOTH",
"793 1104 OFFCURVE",
"791 1008 OFFCURVE",
"784 944 CURVE SMOOTH",
"764 802 LINE",
"717 737 OFFCURVE",
"660 706 OFFCURVE",
"595 707 CURVE SMOOTH",
"468 711 OFFCURVE",
"452 852 OFFCURVE",
"463 949 CURVE SMOOTH"
);
}
);
width = 1151;
}
);
note = nine;
unicode = 0039;
},
{
glyphname = colon;
lastChange = "2017-05-20 07:34:14 +0000";
layers = (
{
layerId = "F2BBBF4B-19AF-4944-B5B7-53A37E70F101";
paths = (
{
closed = 1;
nodes = (
"40 53 OFFCURVE",
"122 -13 OFFCURVE",
"217 -12 CURVE SMOOTH",
"317 -12 OFFCURVE",
"401 61 OFFCURVE",
"398 164 CURVE SMOOTH",
"395 263 OFFCURVE",
"314 329 OFFCURVE",
"218 328 CURVE SMOOTH",
"118 328 OFFCURVE",
"34 255 OFFCURVE",
"37 152 CURVE SMOOTH"
);
},
{
closed = 1;
nodes = (
"178 851 OFFCURVE",
"260 785 OFFCURVE",
"355 786 CURVE SMOOTH",
"455 786 OFFCURVE",
"539 859 OFFCURVE",
"536 962 CURVE SMOOTH",
"533 1061 OFFCURVE",
"452 1127 OFFCURVE",
"356 1126 CURVE SMOOTH",
"256 1126 OFFCURVE",
"172 1053 OFFCURVE",
"175 950 CURVE SMOOTH"
);
}
);
width = 607;
}
);
note = colon;
unicode = 003A;
},
{
glyphname = semicolon;
lastChange = "2017-05-20 07:34:14 +0000";
layers = (
{
layerId = "F2BBBF4B-19AF-4944-B5B7-53A37E70F101";
paths = (
{
closed = 1;
nodes = (
"167 851 OFFCURVE",
"249 785 OFFCURVE",
"344 786 CURVE SMOOTH",
"444 786 OFFCURVE",
"528 859 OFFCURVE",
"525 962 CURVE SMOOTH",
"522 1061 OFFCURVE",
"441 1127 OFFCURVE",
"345 1126 CURVE SMOOTH",
"245 1126 OFFCURVE",
"161 1053 OFFCURVE",
"164 950 CURVE SMOOTH"
);
},
{
closed = 1;
nodes = (
"69 32 LINE SMOOTH",
"57 -38 OFFCURVE",
"35 -99 OFFCURVE",
"2 -150 CURVE SMOOTH",
"-31 -202 OFFCURVE",
"-62 -256 OFFCURVE",
"-90 -312 CURVE",
"76 -391 LINE",
"212 -284 OFFCURVE",
"309 -131 OFFCURVE",
"336 41 CURVE SMOOTH",
"373 254 LINE",
"108 254 LINE"
);
}
);
width = 582;
}
);
note = semicolon;
unicode = 003B;
},
{
glyphname = less;
lastChange = "2017-05-20 07:34:14 +0000";
layers = (
{
layerId = "F2BBBF4B-19AF-4944-B5B7-53A37E70F101";
paths = (
{
closed = 1;
nodes = (
"372 604 LINE",
"936 792 LINE",
"993 1111 LINE",
"69 751 LINE",
"23 485 LINE",
"821 124 LINE",
"872 419 LINE"
);
}
);
width = 1014;
}
);
note = less;
unicode = 003C;
},
{
glyphname = equal;
lastChange = "2017-05-20 07:34:14 +0000";
layers = (
{
layerId = "F2BBBF4B-19AF-4944-B5B7-53A37E70F101";
paths = (
{
closed = 1;
nodes = (
"144 722 LINE",
"1046 722 LINE",
"1091 982 LINE",
"190 982 LINE"
);
},
{
closed = 1;
nodes = (
"68 283 LINE",
"969 283 LINE",
"1015 543 LINE",
"114 543 LINE"
);
}
);
width = 1164;
}
);
note = equal;
unicode = 003D;
},
{
glyphname = greater;
lastChange = "2017-05-20 07:34:14 +0000";
layers = (
{
layerId = "F2BBBF4B-19AF-4944-B5B7-53A37E70F101";
paths = (
{
closed = 1;
nodes = (
"639 618 LINE",
"76 429 LINE",
"21 110 LINE",
"939 470 LINE",
"985 736 LINE",
"192 1097 LINE",
"141 803 LINE"
);
}
);
width = 1019;
}
);
note = greater;
unicode = 003E;
},
{
glyphname = question;
lastChange = "2017-05-20 07:34:14 +0000";
layers = (
{
layerId = "F2BBBF4B-19AF-4944-B5B7-53A37E70F101";
paths = (
{
closed = 1;
nodes = (
"613 556 OFFCURVE",
"661 634 OFFCURVE",
"740 696 CURVE SMOOTH",
"876 803 OFFCURVE",
"1017 907 OFFCURVE",
"1029 1088 CURVE SMOOTH",
"1046 1345 OFFCURVE",
"860 1472 OFFCURVE",
"621 1477 CURVE SMOOTH",
"349 1482 OFFCURVE",
"137 1332 OFFCURVE",
"116 1052 CURVE",
"446 1054 LINE",
"462 1134 OFFCURVE",
"504 1221 OFFCURVE",
"599 1220 CURVE SMOOTH",
"684 1219 OFFCURVE",
"700 1149 OFFCURVE",
"688 1076 CURVE SMOOTH",
"673 977 OFFCURVE",
"616 934 OFFCURVE",
"494 837 CURVE SMOOTH",
"372 740 OFFCURVE",
"330 612 OFFCURVE",
"321 459 CURVE",
"597 461 LINE"
);
},
{
closed = 1;
nodes = (
"220 51 OFFCURVE",
"302 -14 OFFCURVE",
"398 -13 CURVE SMOOTH",
"498 -13 OFFCURVE",
"583 59 OFFCURVE",
"580 163 CURVE SMOOTH",
"579 262 OFFCURVE",
"495 327 OFFCURVE",
"399 327 CURVE SMOOTH",
"299 326 OFFCURVE",
"214 254 OFFCURVE",
"217 150 CURVE SMOOTH"
);
}
);
width = 1013;
}
);
note = question;
unicode = 003F;
},
{
glyphname = at;
lastChange = "2017-05-20 07:34:14 +0000";
layers = (
{
layerId = "F2BBBF4B-19AF-4944-B5B7-53A37E70F101";
paths = (
{
closed = 1;
nodes = (
"800 -286 OFFCURVE",
"526 -294 OFFCURVE",
"382 -157 CURVE SMOOTH",
"237 -21 OFFCURVE",
"204 217 OFFCURVE",
"260 476 CURVE SMOOTH",
"316 735 OFFCURVE",
"464 988 OFFCURVE",
"683 1133 CURVE SMOOTH",
"902 1278 OFFCURVE",
"1229 1268 OFFCURVE",
"1370 1136 CURVE SMOOTH",
"1510 1003 OFFCURVE",
"1565 741 OFFCURVE",
"1462 402 CURVE SMOOTH",
"1419 261 OFFCURVE",
"1349 147 OFFCURVE",
"1232 152 CURVE SMOOTH",
"1152 156 OFFCURVE",
"1156 230 OFFCURVE",
"1168 291 CURVE",
"1307 879 LINE",
"1211 944 OFFCURVE",
"1123 988 OFFCURVE",
"1004 991 CURVE SMOOTH",
"893 992 OFFCURVE",
"796 957 OFFCURVE",
"711 886 CURVE SMOOTH",
"542 743 OFFCURVE",
"427 473 OFFCURVE",
"455 236 CURVE SMOOTH",
"463 167 OFFCURVE",
"486 108 OFFCURVE",
"523 59 CURVE SMOOTH",
"598 -40 OFFCURVE",
"800 -66 OFFCURVE",
"963 115 CURVE",
"998 24 OFFCURVE",
"1086 -20 OFFCURVE",
"1181 -21 CURVE SMOOTH",
"1392 -26 OFFCURVE",
"1533 106 OFFCURVE",
"1615 286 CURVE SMOOTH",
"1697 465 OFFCURVE",
"1755 722 OFFCURVE",
"1675 979 CURVE SMOOTH",
"1595 1236 OFFCURVE",
"1388 1406 OFFCURVE",
"1056 1410 CURVE SMOOTH",
"695 1414 OFFCURVE",
"403 1218 OFFCURVE",
"219 925 CURVE SMOOTH",
"35 632 OFFCURVE",
"-23 272 OFFCURVE",
"53 -1 CURVE SMOOTH",
"129 -274 OFFCURVE",
"341 -450 OFFCURVE",
"701 -453 CURVE SMOOTH",
"822 -454 OFFCURVE",
"964 -435 OFFCURVE",
"1067 -367 CURVE",
"1040 -197 LINE"
);
},
{
closed = 1;
nodes = (
"706 419 OFFCURVE",
"723 499 OFFCURVE",
"750 572 CURVE SMOOTH",
"802 716 OFFCURVE",
"883 806 OFFCURVE",
"1020 802 CURVE SMOOTH",
"1035 802 OFFCURVE",
"1053 800 OFFCURVE",
"1074 795 CURVE",
"953 333 LINE",
"929 268 OFFCURVE",
"861 164 OFFCURVE",
"778 169 CURVE SMOOTH",
"701 173 OFFCURVE",
"688 251 OFFCURVE",
"697 332 CURVE SMOOTH"
);
}
);
width = 1779;
}
);
note = at;
unicode = 0040;
},
{
glyphname = A;
lastChange = "2017-05-20 07:34:14 +0000";
layers = (
{
layerId = "F2BBBF4B-19AF-4944-B5B7-53A37E70F101";
paths = (
{
closed = 1;
nodes = (
"393 272 LINE",
"858 272 LINE",
"892 0 LINE",
"1249 0 LINE",
"979 1456 LINE",
"657 1456 LINE",
"-115 0 LINE",
"264 0 LINE"
);
},
{
closed = 1;
nodes = (
"823 543 LINE",
"521 543 LINE",
"760 1046 LINE"
);
}
);
width = 1353;
}
);
leftKerningGroup = A;
note = A;
rightKerningGroup = A;
unicode = 0041;
},
{
glyphname = B;
lastChange = "2017-05-20 07:34:14 +0000";
layers = (
{
layerId = "F2BBBF4B-19AF-4944-B5B7-53A37E70F101";
paths = (
{
closed = 1;
nodes = (
"1177 567 OFFCURVE",
"1124 692 OFFCURVE",
"996 736 CURVE",
"1070 767 OFFCURVE",
"1129 808 OFFCURVE",
"1174 861 CURVE SMOOTH",
"1263 965 OFFCURVE",
"1283 1181 OFFCURVE",
"1188 1293 CURVE SMOOTH",
"1098 1400 OFFCURVE",
"939 1454 OFFCURVE",
"712 1455 CURVE SMOOTH",
"254 1456 LINE",
"2 0 LINE",
"590 0 LINE SMOOTH",
"689 0 OFFCURVE",
"781 14 OFFCURVE",
"866 43 CURVE SMOOTH",
"1037 100 OFFCURVE",
"1156 224 OFFCURVE",
"1169 439 CURVE SMOOTH"
);
},
{
closed = 1;
nodes = (
"851 1180 OFFCURVE",
"921 1140 OFFCURVE",
"902 1019 CURVE SMOOTH",
"881 883 OFFCURVE",
"762 849 OFFCURVE",
"639 848 CURVE SMOOTH",
"491 849 LINE",
"550 1185 LINE",
"736 1184 LINE SMOOTH"
);
},
{
closed = 1;
nodes = (
"812 322 OFFCURVE",
"710 270 OFFCURVE",
"595 269 CURVE SMOOTH",
"391 270 LINE",
"452 619 LINE",
"704 618 LINE",
"811 613 OFFCURVE",
"849 546 OFFCURVE",
"832 443 CURVE SMOOTH"
);
}
);
width = 1282;
}
);
note = B;
rightKerningGroup = B;
unicode = 0042;
},
{
glyphname = C;
lastChange = "2017-05-20 07:34:14 +0000";
layers = (
{
layerId = "F2BBBF4B-19AF-4944-B5B7-53A37E70F101";
paths = (
{
closed = 1;
nodes = (
"858 339 OFFCURVE",
"759 248 OFFCURVE",
"599 253 CURVE SMOOTH",
"448 258 OFFCURVE",
"411 373 OFFCURVE",
"418 508 CURVE SMOOTH",
"426 707 OFFCURVE",
"450 865 OFFCURVE",
"491 982 CURVE SMOOTH",
"538 1115 OFFCURVE",
"621 1208 OFFCURVE",
"772 1203 CURVE SMOOTH",
"936 1198 OFFCURVE",
"983 1105 OFFCURVE",
"978 952 CURVE",
"1319 951 LINE",
"1310 1110 OFFCURVE",
"1261 1236 OFFCURVE",
"1171 1331 CURVE SMOOTH",
"991 1520 OFFCURVE",
"636 1515 OFFCURVE",
"441 1381 CURVE SMOOTH",
"245 1247 OFFCURVE",
"129 1014 OFFCURVE",
"94 767 CURVE SMOOTH",
"83 688 LINE SMOOTH",
"54 449 OFFCURVE",
"106 222 OFFCURVE",
"262 86 CURVE SMOOTH",
"417 -51 OFFCURVE",
"691 -43 OFFCURVE",
"879 37 CURVE SMOOTH",
"1066 117 OFFCURVE",
"1199 275 OFFCURVE",
"1218 496 CURVE",
"883 492 LINE"
);
}
);
width = 1304;
}
);
leftKerningGroup = C;
note = C;
rightKerningGroup = C;
unicode = 0043;
},
{
glyphname = D;
lastChange = "2017-05-20 07:34:14 +0000";
layers = (
{
layerId = "F2BBBF4B-19AF-4944-B5B7-53A37E70F101";
paths = (
{
closed = 1;
nodes = (
"874 0 OFFCURVE",
"1182 289 OFFCURVE",
"1237 720 CURVE SMOOTH",
"1242 761 LINE SMOOTH",
"1255 884 OFFCURVE",
"1243 997 OFFCURVE",
"1204 1101 CURVE SMOOTH",
"1127 1309 OFFCURVE",
"950 1450 OFFCURVE",
"691 1455 CURVE SMOOTH",
"254 1456 LINE",
"2 0 LINE",
"485 0 LINE SMOOTH"
);
},
{
closed = 1;
nodes = (
"756 1181 OFFCURVE",
"810 1157 OFFCURVE",
"843 1112 CURVE SMOOTH",
"907 1020 OFFCURVE",
"912 888 OFFCURVE",
"885 699 CURVE SMOOTH",
"854 479 OFFCURVE",
"740 268 OFFCURVE",
"491 269 CURVE SMOOTH",
"391 270 LINE",
"550 1185 LINE",
"680 1184 LINE SMOOTH"
);
}
);
width = 1285;
}
);
note = D;
rightKerningGroup = D;
unicode = 0044;
},
{
glyphname = E;
lastChange = "2017-05-20 07:34:14 +0000";
layers = (
{
layerId = "F2BBBF4B-19AF-4944-B5B7-53A37E70F101";
paths = (
{
closed = 1;
nodes = (
"1023 270 LINE",
"391 270 LINE",
"452 617 LINE",
"986 617 LINE",
"1031 878 LINE",
"496 878 LINE",
"550 1185 LINE",
"1184 1185 LINE",
"1231 1456 LINE",
"254 1456 LINE",
"2 0 LINE",
"976 0 LINE"
);
}
);
width = 1112;
}
);
note = E;
rightKerningGroup = E;
unicode = 0045;
},
{
glyphname = F;
lastChange = "2017-05-20 07:34:14 +0000";
layers = (
{
layerId = "F2BBBF4B-19AF-4944-B5B7-53A37E70F101";
paths = (
{
closed = 1;
nodes = (
"445 580 LINE",
"994 580 LINE",
"1041 850 LINE",
"492 850 LINE",
"550 1185 LINE",
"1154 1185 LINE",
"1201 1456 LINE",
"254 1456 LINE",
"2 0 LINE",
"344 0 LINE"
);
}
);
width = 1086;
}
);
note = F;
unicode = 0046;
},
{
glyphname = G;
lastChange = "2017-05-20 07:34:14 +0000";
layers = (
{
layerId = "F2BBBF4B-19AF-4944-B5B7-53A37E70F101";
paths = (
{
closed = 1;
nodes = (
"674 537 LINE",
"911 537 LINE",
"866 310 LINE",
"743 229 OFFCURVE",
"550 229 OFFCURVE",
"487 325 CURVE SMOOTH",
"424 420 OFFCURVE",
"434 534 OFFCURVE",
"437 601 CURVE SMOOTH",
"440 668 OFFCURVE",
"454 827 OFFCURVE",
"506 967 CURVE SMOOTH",
"557 1106 OFFCURVE",
"651 1215 OFFCURVE",
"807 1208 CURVE SMOOTH",
"952 1203 OFFCURVE",
"999 1112 OFFCURVE",
"1008 980 CURVE",
"1335 979 LINE",
"1314 1306 OFFCURVE",
"1141 1472 OFFCURVE",
"815 1477 CURVE SMOOTH",
"678 1480 OFFCURVE",
"559 1448 OFFCURVE",
"460 1382 CURVE SMOOTH",
"261 1249 OFFCURVE",
"142 1019 OFFCURVE",
"107 767 CURVE SMOOTH",
"96 687 LINE SMOOTH",
"81 564 OFFCURVE",
"89 450 OFFCURVE",
"120 343 CURVE SMOOTH",
"183 130 OFFCURVE",
"343 -16 OFFCURVE",
"614 -19 CURVE SMOOTH",
"807 -22 OFFCURVE",
"1066 23 OFFCURVE",
"1201 179 CURVE",
"1295 778 LINE",
"716 778 LINE"
);
}
);
width = 1354;
}
);
leftKerningGroup = C;
note = G;
unicode = 0047;
},
{
glyphname = H;
lastChange = "2017-05-20 07:34:14 +0000";
layers = (
{
layerId = "F2BBBF4B-19AF-4944-B5B7-53A37E70F101";
paths = (
{
closed = 1;
nodes = (
"1437 1456 LINE",
"1095 1456 LINE",
"995 878 LINE",
"496 878 LINE",
"597 1456 LINE",
"254 1456 LINE",
"2 0 LINE",
"344 0 LINE",
"450 608 LINE",
"948 608 LINE",
"843 0 LINE",
"1184 0 LINE"
);
}
);
width = 1396;
}
);
note = H;
rightKerningGroup = H;
unicode = 0048;
},
{
glyphname = I;
lastChange = "2017-05-20 07:34:14 +0000";
layers = (
{
layerId = "F2BBBF4B-19AF-4944-B5B7-53A37E70F101";
paths = (
{
closed = 1;
nodes = (
"25 0 LINE",
"367 0 LINE",
"619 1456 LINE",
"278 1456 LINE"
);
}
);
width = 600;
}
);
note = I;
rightKerningGroup = H;
unicode = 0049;
},
{
glyphname = J;
lastChange = "2017-05-20 07:34:14 +0000";
layers = (
{
layerId = "F2BBBF4B-19AF-4944-B5B7-53A37E70F101";
paths = (
{
closed = 1;
nodes = (
"628 348 OFFCURVE",
"575 246 OFFCURVE",
"462 249 CURVE SMOOTH",
"346 252 OFFCURVE",
"342 345 OFFCURVE",
"347 440 CURVE",
"2 441 LINE",
"-7 157 OFFCURVE",
"151 -16 OFFCURVE",
"438 -21 CURVE SMOOTH",
"727 -25 OFFCURVE",
"950 173 OFFCURVE",
"989 457 CURVE SMOOTH",
"1159 1456 LINE",
"817 1456 LINE",
"647 457 LINE SMOOTH"
);
}
);
width = 1116;
}
);
leftKerningGroup = J;
note = J;
rightKerningGroup = J;
unicode = 004A;
},
{
glyphname = K;
lastChange = "2017-05-20 07:34:14 +0000";
layers = (
{
layerId = "F2BBBF4B-19AF-4944-B5B7-53A37E70F101";
paths = (
{
closed = 1;
nodes = (
"848 798 LINE",
"1451 1456 LINE",
"1008 1456 LINE",
"630 1006 LINE",
"488 833 LINE",
"597 1456 LINE",
"254 1456 LINE",
"2 0 LINE",
"344 0 LINE",
"409 371 LINE",
"586 538 LINE",
"792 0 LINE",
"1182 0 LINE"
);
}
);
width = 1271;
}
);
note = K;
rightKerningGroup = K;
unicode = 004B;
},
{
glyphname = L;
lastChange = "2017-05-20 07:34:14 +0000";
layers = (
{
layerId = "F2BBBF4B-19AF-4944-B5B7-53A37E70F101";
paths = (
{
closed = 1;
nodes = (
"597 1456 LINE",
"254 1456 LINE",
"2 0 LINE",
"937 0 LINE",
"984 270 LINE",
"391 270 LINE"
);
}
);
width = 1077;
}
);
note = L;
rightKerningGroup = L;
unicode = 004C;
},
{
glyphname = M;
lastChange = "2017-05-20 07:34:14 +0000";
layers = (
{
layerId = "F2BBBF4B-19AF-4944-B5B7-53A37E70F101";
paths = (
{
closed = 1;
nodes = (
"254 1456 LINE",
"2 0 LINE",
"344 0 LINE",
"400 323 LINE",
"493 1053 LINE",
"657 0 LINE",
"884 0 LINE",
"1394 1015 LINE",
"1246 357 LINE",
"1184 0 LINE",
"1528 0 LINE",
"1780 1456 LINE",
"1326 1456 LINE",
"836 446 LINE",
"697 1456 LINE"
);
}
);
width = 1741;
}
);
note = M;
rightKerningGroup = H;
unicode = 004D;
},
{
glyphname = N;
lastChange = "2017-05-20 07:34:14 +0000";
layers = (
{
layerId = "F2BBBF4B-19AF-4944-B5B7-53A37E70F101";
paths = (
{
closed = 1;
nodes = (
"935 537 LINE",
"588 1456 LINE",
"254 1456 LINE",
"2 0 LINE",
"344 0 LINE",
"504 919 LINE",
"851 0 LINE",
"1183 0 LINE",
"1436 1456 LINE",
"1094 1456 LINE"
);
}
);
width = 1395;
}
);
note = N;
rightKerningGroup = H;
unicode = 004E;
},
{
glyphname = O;
lastChange = "2017-05-20 07:34:14 +0000";
layers = (
{
layerId = "F2BBBF4B-19AF-4944-B5B7-53A37E70F101";
paths = (
{
closed = 1;
nodes = (
"1357 1000 OFFCURVE",
"1296 1230 OFFCURVE",
"1136 1369 CURVE SMOOTH",
"975 1508 OFFCURVE",
"660 1514 OFFCURVE",
"457 1379 CURVE SMOOTH",
"253 1244 OFFCURVE",
"128 1010 OFFCURVE",
"93 758 CURVE SMOOTH",
"86 698 LINE SMOOTH",
"57 459 OFFCURVE",
"118 228 OFFCURVE",
"279 88 CURVE SMOOTH",
"440 -52 OFFCURVE",
"757 -58 OFFCURVE",
"961 79 CURVE SMOOTH",
"1165 215 OFFCURVE",
"1287 451 OFFCURVE",
"1322 703 CURVE SMOOTH",
"1329 763 LINE SMOOTH"
);
},
{
closed = 1;
nodes = (
"992 766 OFFCURVE",
"968 614 OFFCURVE",
"919 486 CURVE SMOOTH",
"866 347 OFFCURVE",
"773 246 OFFCURVE",
"620 253 CURVE SMOOTH",
"472 258 OFFCURVE",
"426 379 OFFCURVE",
"426 516 CURVE",
"424 689 OFFCURVE",
"447 840 OFFCURVE",
"495 968 CURVE SMOOTH",
"547 1107 OFFCURVE",
"639 1209 OFFCURVE",
"796 1202 CURVE SMOOTH",
"943 1195 OFFCURVE",
"987 1077 OFFCURVE",
"990 941 CURVE SMOOTH"
);
}
);
width = 1372;
}
);
leftKerningGroup = C;
note = O;
rightKerningGroup = D;
unicode = 004F;
},
{
glyphname = P;
lastChange = "2017-05-20 07:34:14 +0000";
layers = (
{
layerId = "F2BBBF4B-19AF-4944-B5B7-53A37E70F101";
paths = (
{
closed = 1;
nodes = (
"770 493 OFFCURVE",
"865 510 OFFCURVE",
"955 545 CURVE SMOOTH",
"1134 613 OFFCURVE",
"1264 754 OFFCURVE",
"1281 970 CURVE SMOOTH",
"1305 1269 OFFCURVE",
"1085 1448 OFFCURVE",
"800 1455 CURVE SMOOTH",
"254 1456 LINE",
"2 0 LINE",
"344 0 LINE",
"430 494 LINE",
"670 493 LINE SMOOTH"
);
},
{
closed = 1;
nodes = (
"912 1177 OFFCURVE",
"952 1079 OFFCURVE",
"935 968 CURVE SMOOTH",
"915 835 OFFCURVE",
"814 766 OFFCURVE",
"683 763 CURVE SMOOTH",
"477 765 LINE",
"550 1185 LINE",
"789 1184 LINE"
);
}
);
width = 1294;
}
);
note = P;
rightKerningGroup = P;
unicode = 0050;
},
{
glyphname = Q;
lastChange = "2017-05-20 07:34:14 +0000";
layers = (
{
layerId = "F2BBBF4B-19AF-4944-B5B7-53A37E70F101";
paths = (
{
closed = 1;
nodes = (
"1184 236 OFFCURVE",
"1290 455 OFFCURVE",
"1325 698 CURVE SMOOTH",
"1332 757 LINE SMOOTH",
"1361 996 OFFCURVE",
"1300 1227 OFFCURVE",
"1139 1367 CURVE SMOOTH",
"978 1507 OFFCURVE",
"662 1514 OFFCURVE",
"459 1379 CURVE SMOOTH",
"255 1244 OFFCURVE",
"130 1010 OFFCURVE",
"95 758 CURVE SMOOTH",
"88 698 LINE SMOOTH",
"73 579 OFFCURVE",
"82 466 OFFCURVE",
"113 357 CURVE SMOOTH",
"175 139 OFFCURVE",
"333 -15 OFFCURVE",
"600 -19 CURVE",
"686 -15 LINE",
"942 -266 LINE",
"1170 -94 LINE",
"975 100 LINE"
);
},
{
closed = 1;
nodes = (
"995 777 OFFCURVE",
"973 629 OFFCURVE",
"925 496 CURVE SMOOTH",
"874 356 OFFCURVE",
"781 246 OFFCURVE",
"622 253 CURVE SMOOTH",
"474 258 OFFCURVE",
"428 379 OFFCURVE",
"427 516 CURVE SMOOTH",
"426 684 OFFCURVE",
"448 833 OFFCURVE",
"495 963 CURVE SMOOTH",
"546 1102 OFFCURVE",
"638 1209 OFFCURVE",
"798 1202 CURVE SMOOTH",
"945 1195 OFFCURVE",
"989 1077 OFFCURVE",
"992 941 CURVE SMOOTH"
);
}
);
width = 1372;
}
);
leftKerningGroup = C;
note = Q;
unicode = 0051;
},
{
glyphname = R;
lastChange = "2017-05-20 07:34:14 +0000";
layers = (
{
layerId = "F2BBBF4B-19AF-4944-B5B7-53A37E70F101";
paths = (
{
closed = 1;
nodes = (
"1148 17 LINE",
"953 600 LINE",
"1148 679 OFFCURVE",
"1253 820 OFFCURVE",
"1268 1024 CURVE SMOOTH",
"1289 1319 OFFCURVE",
"1060 1450 OFFCURVE",
"793 1455 CURVE SMOOTH",
"254 1456 LINE",
"2 0 LINE",
"344 0 LINE",
"434 514 LINE",
"623 514 LINE",
"783 0 LINE",
"1148 0 LINE"
);
},
{
closed = 1;
nodes = (
"895 1179 OFFCURVE",
"938 1100 OFFCURVE",
"923 992 CURVE SMOOTH",
"904 861 OFFCURVE",
"811 784 OFFCURVE",
"680 783 CURVE SMOOTH",
"480 785 LINE",
"550 1185 LINE",
"782 1184 LINE"
);
}
);
width = 1296;
}
);
note = R;
unicode = 0052;
},
{
glyphname = S;
lastChange = "2017-05-20 07:34:14 +0000";
layers = (
{
layerId = "F2BBBF4B-19AF-4944-B5B7-53A37E70F101";
paths = (
{
closed = 1;
nodes = (
"779 289 OFFCURVE",
"684 244 OFFCURVE",
"585 245 CURVE SMOOTH",
"438 245 OFFCURVE",
"368 321 OFFCURVE",
"376 472 CURVE",
"33 473 LINE",
"26 156 OFFCURVE",
"265 -16 OFFCURVE",
"566 -21 CURVE SMOOTH",
"745 -24 OFFCURVE",
"926 30 OFFCURVE",
"1042 154 CURVE SMOOTH",
"1157 278 OFFCURVE",
"1167 496 OFFCURVE",
"1092 616 CURVE SMOOTH",
"1017 736 OFFCURVE",
"881 814 OFFCURVE",
"724 873 CURVE SMOOTH",
"637 908 LINE SMOOTH",
"550 946 OFFCURVE",
"512 995 OFFCURVE",
"523 1056 CURVE SMOOTH",
"543 1163 OFFCURVE",
"653 1211 OFFCURVE",
"752 1210 CURVE SMOOTH",
"869 1209 OFFCURVE",
"920 1135 OFFCURVE",
"916 1023 CURVE",
"1255 1023 LINE",
"1259 1308 OFFCURVE",
"1053 1471 OFFCURVE",
"778 1476 CURVE SMOOTH",
"605 1480 OFFCURVE",
"411 1424 OFFCURVE",
"287 1300 CURVE SMOOTH",
"162 1176 OFFCURVE",
"163 978 OFFCURVE",
"222 872 CURVE SMOOTH",
"281 766 OFFCURVE",
"397 683 OFFCURVE",
"597 603 CURVE SMOOTH",
"696 562 OFFCURVE",
"757 529 OFFCURVE",
"779 502 CURVE SMOOTH",
"800 475 OFFCURVE",
"807 439 OFFCURVE",
"798 394 CURVE SMOOTH"
);
}
);
width = 1244;
}
);
leftKerningGroup = S;
note = S;
unicode = 0053;
},
{
glyphname = T;
lastChange = "2017-05-20 07:34:14 +0000";
layers = (
{
layerId = "F2BBBF4B-19AF-4944-B5B7-53A37E70F101";
paths = (
{
closed = 1;
nodes = (
"346 0 LINE",
"689 0 LINE",
"894 1185 LINE",
"1319 1185 LINE",
"1366 1456 LINE",
"184 1456 LINE",
"136 1185 LINE",
"552 1185 LINE"
);
}
);
width = 1253;
}
);
leftKerningGroup = T;
note = T;
rightKerningGroup = T;
unicode = 0054;
},
{
glyphname = U;
lastChange = "2017-05-20 07:34:14 +0000";
layers = (
{
layerId = "F2BBBF4B-19AF-4944-B5B7-53A37E70F101";
paths = (
{
closed = 1;
nodes = (
"834 354 OFFCURVE",
"754 243 OFFCURVE",
"595 250 CURVE SMOOTH",
"443 255 OFFCURVE",
"416 372 OFFCURVE",
"432 504 CURVE",
"593 1456 LINE",
"250 1456 LINE",
"88 505 LINE",
"51 184 OFFCURVE",
"261 -16 OFFCURVE",
"574 -21 CURVE SMOOTH",
"911 -26 OFFCURVE",
"1154 171 OFFCURVE",
"1201 506 CURVE SMOOTH",
"1363 1456 LINE",
"1021 1456 LINE",
"858 499 LINE SMOOTH"
);
}
);
width = 1320;
}
);
leftKerningGroup = U;
note = U;
rightKerningGroup = J;
unicode = 0055;
},
{
glyphname = V;
lastChange = "2017-05-20 07:34:14 +0000";
layers = (
{
layerId = "F2BBBF4B-19AF-4944-B5B7-53A37E70F101";
paths = (
{
closed = 1;
nodes = (
"620 398 LINE",
"506 1456 LINE",
"134 1456 LINE",
"380 0 LINE",
"753 0 LINE",
"1458 1456 LINE",
"1065 1456 LINE"
);
}
);
width = 1313;
}
);
leftKerningGroup = V;
note = V;
rightKerningGroup = V;
unicode = 0056;
},
{
glyphname = W;
lastChange = "2017-05-20 07:34:14 +0000";
layers = (
{
layerId = "F2BBBF4B-19AF-4944-B5B7-53A37E70F101";
paths = (
{
closed = 1;
nodes = (
"1188 546 LINE",
"1134 1456 LINE",
"843 1456 LINE",
"509 552 LINE",
"490 1456 LINE",
"157 1456 LINE",
"229 0 LINE",
"584 0 LINE",
"898 826 LINE",
"957 0 LINE",
"1310 0 LINE",
"1838 1456 LINE",
"1493 1456 LINE"
);
}
);
width = 1727;
}
);
leftKerningGroup = W;
note = W;
rightKerningGroup = W;
unicode = 0057;
},
{
glyphname = X;
lastChange = "2017-05-20 07:34:14 +0000";
layers = (
{
layerId = "F2BBBF4B-19AF-4944-B5B7-53A37E70F101";
paths = (
{
closed = 1;
nodes = (
"432 749 LINE",
"-99 0 LINE",
"311 0 LINE",
"625 491 LINE",
"785 0 LINE",
"1163 0 LINE",
"879 719 LINE",
"1396 1456 LINE",
"991 1456 LINE",
"685 974 LINE",
"531 1456 LINE",
"155 1456 LINE"
);
}
);
width = 1269;
}
);
leftKerningGroup = X;
note = X;
rightKerningGroup = X;
unicode = 0058;
},
{
glyphname = Y;
lastChange = "2017-05-20 07:34:14 +0000";
layers = (
{
layerId = "F2BBBF4B-19AF-4944-B5B7-53A37E70F101";
paths = (
{
closed = 1;
nodes = (
"440 540 LINE",
"346 0 LINE",
"695 0 LINE",
"782 507 LINE",
"1409 1456 LINE",
"1025 1456 LINE",
"656 826 LINE",
"506 1456 LINE",
"148 1455 LINE"
);
}
);
width = 1247;
}
);
leftKerningGroup = Y;
note = Y;
rightKerningGroup = Y;
unicode = 0059;
},
{
glyphname = Z;
lastChange = "2017-05-20 07:34:14 +0000";
layers = (
{
layerId = "F2BBBF4B-19AF-4944-B5B7-53A37E70F101";
paths = (
{
closed = 1;
nodes = (
"-5 200 LINE",
"-40 0 LINE",
"1062 0 LINE",
"1109 270 LINE",
"439 272 LINE",
"1274 1261 LINE",
"1308 1456 LINE",
"208 1456 LINE",
"160 1185 LINE",
"835 1183 LINE"
);
}
);
width = 1213;
}
);
leftKerningGroup = Z;
note = Z;
rightKerningGroup = Z;
unicode = 005A;
},
{
glyphname = bracketleft;
lastChange = "2017-05-20 07:34:14 +0000";
layers = (
{
layerId = "F2BBBF4B-19AF-4944-B5B7-53A37E70F101";
paths = (
{
closed = 1;
nodes = (
"-45 -349 LINE",
"400 -349 LINE",
"439 -104 LINE",
"324 -104 LINE",
"568 1460 LINE",
"682 1460 LINE",
"721 1706 LINE",
"276 1706 LINE"
);
}
);
width = 561;
}
);
note = bracketleft;
unicode = 005B;
},
{
glyphname = backslash;
lastChange = "2017-05-20 07:34:14 +0000";
layers = (
{
layerId = "F2BBBF4B-19AF-4944-B5B7-53A37E70F101";
paths = (
{
closed = 1;
nodes = (
"464 1456 LINE",
"133 1456 LINE",
"448 -125 LINE",
"780 -125 LINE"
);
}
);
width = 848;
}
);
note = backslash;
unicode = 005C;
},
{
glyphname = bracketright;
lastChange = "2017-05-20 07:34:14 +0000";
layers = (
{
layerId = "F2BBBF4B-19AF-4944-B5B7-53A37E70F101";
paths = (
{
closed = 1;
nodes = (
"19 -104 LINE",
"-97 -104 LINE",
"-136 -349 LINE",
"310 -349 LINE",
"631 1706 LINE",
"186 1706 LINE",
"147 1460 LINE",
"263 1460 LINE"
);
}
);
width = 561;
}
);
note = bracketright;
unicode = 005D;
},
{
glyphname = asciicircum;
lastChange = "2017-05-20 07:34:14 +0000";
layers = (
{
layerId = "F2BBBF4B-19AF-4944-B5B7-53A37E70F101";
paths = (
{
closed = 1;
nodes = (
"554 1180 LINE",
"639 729 LINE",
"874 729 LINE",
"710 1456 LINE",
"466 1456 LINE",
"49 729 LINE",
"311 729 LINE"
);
}
);
width = 889;
}
);
note = asciicircum;
unicode = 005E;
},
{
glyphname = underscore;
lastChange = "2017-05-20 07:34:14 +0000";
layers = (
{
layerId = "F2BBBF4B-19AF-4944-B5B7-53A37E70F101";
paths = (
{
closed = 1;
nodes = (
"-150 -251 LINE",
"729 -251 LINE",
"773 0 LINE",
"-106 0 LINE"
);
}
);
width = 878;
}
);
note = underscore;
unicode = 005F;
},
{
glyphname = grave;
lastChange = "2017-05-20 07:34:14 +0000";
layers = (
{
layerId = "F2BBBF4B-19AF-4944-B5B7-53A37E70F101";
paths = (
{
closed = 1;
nodes = (
"435 1223 LINE",
"681 1222 LINE",
"537 1536 LINE",
"206 1534 LINE"
);
}
);
width = 675;
}
);
note = grave;
unicode = 0060;
},
{
glyphname = a;
lastChange = "2017-05-20 07:34:14 +0000";
layers = (
{
layerId = "F2BBBF4B-19AF-4944-B5B7-53A37E70F101";
paths = (
{
closed = 1;
nodes = (
"916 19 LINE",
"898 58 OFFCURVE",
"891 100 OFFCURVE",
"896 145 CURVE SMOOTH",
"909 253 LINE",
"983 716 LINE",
"994 839 OFFCURVE",
"961 933 OFFCURVE",
"884 1000 CURVE SMOOTH",
"728 1132 OFFCURVE",
"521 1117 OFFCURVE",
"372 1069 CURVE SMOOTH",
"223 1020 OFFCURVE",
"109 916 OFFCURVE",
"101 748 CURVE",
"431 749 LINE",
"448 830 OFFCURVE",
"492 869 OFFCURVE",
"564 868 CURVE SMOOTH",
"651 865 OFFCURVE",
"663 793 OFFCURVE",
"651 721 CURVE SMOOTH",
"639 660 LINE",
"529 662 LINE SMOOTH",
"368 662 OFFCURVE",
"193 627 OFFCURVE",
"83 521 CURVE SMOOTH",
"-27 415 OFFCURVE",
"-43 187 OFFCURVE",
"86 70 CURVE SMOOTH",
"214 -47 OFFCURVE",
"432 -64 OFFCURVE",
"581 99 CURVE",
"580 61 OFFCURVE",
"585 28 OFFCURVE",
"594 0 CURVE",
"915 0 LINE"
);
},
{
closed = 1;
nodes = (
"346 220 OFFCURVE",
"320 252 OFFCURVE",
"328 314 CURVE SMOOTH",
"343 422 OFFCURVE",
"430 479 OFFCURVE",
"531 482 CURVE",
"616 481 LINE",
"583 306 LINE",
"532 245 OFFCURVE",
"473 215 OFFCURVE",
"406 218 CURVE SMOOTH"
);
}
);
width = 1055;
}
);
leftKerningGroup = a;
note = a;
rightKerningGroup = a;
unicode = 0061;
},
{
glyphname = b;
lastChange = "2017-05-20 07:34:14 +0000";
layers = (
{
layerId = "F2BBBF4B-19AF-4944-B5B7-53A37E70F101";
paths = (
{
closed = 1;
nodes = (
"1075 719 OFFCURVE",
"1052 901 OFFCURVE",
"949 1015 CURVE SMOOTH",
"846 1129 OFFCURVE",
"620 1141 OFFCURVE",
"479 994 CURVE",
"586 1536 LINE",
"257 1536 LINE",
"-10 0 LINE",
"288 0 LINE",
"330 113 LINE",
"443 -59 OFFCURVE",
"699 -52 OFFCURVE",
"833 58 CURVE SMOOTH",
"967 168 OFFCURVE",
"1033 353 OFFCURVE",
"1056 533 CURVE",
"1058 555 LINE SMOOTH"
);
},
{
closed = 1;
nodes = (
"718 838 OFFCURVE",
"740 759 OFFCURVE",
"737 671 CURVE SMOOTH",
"730 503 OFFCURVE",
"708 388 OFFCURVE",
"672 327 CURVE SMOOTH",
"652 294 OFFCURVE",
"629 270 OFFCURVE",
"604 257 CURVE SMOOTH",
"553 230 OFFCURVE",
"417 214 OFFCURVE",
"373 322 CURVE",
"452 757 LINE",
"499 816 OFFCURVE",
"555 845 OFFCURVE",
"622 842 CURVE SMOOTH"
);
}
);
width = 1118;
}
);
note = b;
rightKerningGroup = b;
unicode = 0062;
},
{
glyphname = c;
lastChange = "2017-05-20 07:34:14 +0000";
layers = (
{
layerId = "F2BBBF4B-19AF-4944-B5B7-53A37E70F101";
paths = (
{
closed = 1;
nodes = (
"379 242 OFFCURVE",
"357 323 OFFCURVE",
"361 412 CURVE SMOOTH",
"369 527 LINE",
"370 550 LINE",
"374 590 OFFCURVE",
"382 633 OFFCURVE",
"393 680 CURVE SMOOTH",
"416 772 OFFCURVE",
"467 847 OFFCURVE",
"571 843 CURVE SMOOTH",
"672 839 OFFCURVE",
"697 755 OFFCURVE",
"693 668 CURVE",
"1002 667 LINE",
"1007 922 OFFCURVE",
"858 1097 OFFCURVE",
"598 1102 CURVE SMOOTH",
"277 1109 OFFCURVE",
"78 860 OFFCURVE",
"43 559 CURVE SMOOTH",
"39 527 LINE",
"14 236 OFFCURVE",
"151 -15 OFFCURVE",
"466 -20 CURVE SMOOTH",
"711 -25 OFFCURVE",
"934 131 OFFCURVE",
"946 387 CURVE",
"637 386 LINE",
"624 298 OFFCURVE",
"570 236 OFFCURVE",
"475 239 CURVE SMOOTH"
);
}
);
width = 1033;
}
);
leftKerningGroup = c;
note = c;
rightKerningGroup = c;
unicode = 0063;
},
{
glyphname = d;
lastChange = "2017-05-20 07:34:14 +0000";
layers = (
{
layerId = "F2BBBF4B-19AF-4944-B5B7-53A37E70F101";
paths = (
{
closed = 1;
nodes = (
"1188 1536 LINE",
"857 1536 LINE",
"752 987 LINE",
"635 1135 OFFCURVE",
"406 1132 OFFCURVE",
"273 1027 CURVE SMOOTH",
"149 929 OFFCURVE",
"72 767 OFFCURVE",
"41 541 CURVE SMOOTH",
"39 525 LINE SMOOTH",
"22 365 OFFCURVE",
"49 183 OFFCURVE",
"151 68 CURVE SMOOTH",
"253 -47 OFFCURVE",
"483 -70 OFFCURVE",
"642 117 CURVE",
"628 0 LINE",
"922 0 LINE"
);
},
{
closed = 1;
nodes = (
"380 630 OFFCURVE",
"407 733 OFFCURVE",
"468 798 CURVE SMOOTH",
"528 862 OFFCURVE",
"678 872 OFFCURVE",
"722 749 CURVE",
"647 332 LINE",
"597 269 OFFCURVE",
"539 238 OFFCURVE",
"474 240 CURVE SMOOTH",
"382 244 OFFCURVE",
"359 325 OFFCURVE",
"362 414 CURVE SMOOTH",
"368 526 LINE",
"371 547 LINE SMOOTH"
);
}
);
width = 1117;
}
);
leftKerningGroup = c;
note = d;
unicode = 0064;
},
{
glyphname = e;
lastChange = "2017-05-20 07:34:14 +0000";
layers = (
{
layerId = "F2BBBF4B-19AF-4944-B5B7-53A37E70F101";
paths = (
{
closed = 1;
nodes = (
"736 275 OFFCURVE",
"650 238 OFFCURVE",
"554 241 CURVE SMOOTH",
"437 245 OFFCURVE",
"374 323 OFFCURVE",
"374 435 CURVE",
"1016 435 LINE",
"1035 572 LINE SMOOTH",
"1066 853 OFFCURVE",
"924 1097 OFFCURVE",
"623 1102 CURVE SMOOTH",
"291 1109 OFFCURVE",
"80 854 OFFCURVE",
"49 541 CURVE SMOOTH",
"45 502 LINE SMOOTH",
"22 205 OFFCURVE",
"222 -16 OFFCURVE",
"522 -20 CURVE SMOOTH",
"677 -23 OFFCURVE",
"858 33 OFFCURVE",
"949 168 CURVE",
"812 351 LINE"
);
},
{
closed = 1;
nodes = (
"702 842 OFFCURVE",
"741 767 OFFCURVE",
"726 674 CURVE",
"720 645 LINE",
"391 645 LINE",
"427 745 OFFCURVE",
"481 847 OFFCURVE",
"601 843 CURVE SMOOTH"
);
}
);
width = 1083;
}
);
leftKerningGroup = c;
note = e;
rightKerningGroup = e;
unicode = 0065;
},
{
glyphname = f;
lastChange = "2017-05-20 07:34:14 +0000";
layers = (
{
layerId = "F2BBBF4B-19AF-4944-B5B7-53A37E70F101";
paths = (
{
closed = 1;
nodes = (
"576 1082 LINE",
"591 1170 LINE",
"610 1259 OFFCURVE",
"683 1300 OFFCURVE",
"771 1300 CURVE SMOOTH",
"796 1300 OFFCURVE",
"823 1296 OFFCURVE",
"850 1288 CURVE",
"875 1537 LINE",
"810 1552 OFFCURVE",
"755 1559 OFFCURVE",
"711 1559 CURVE SMOOTH",
"462 1563 OFFCURVE",
"289 1418 OFFCURVE",
"257 1170 CURVE SMOOTH",
"245 1083 LINE",
"94 1082 LINE",
"54 848 LINE",
"205 848 LINE",
"58 0 LINE",
"389 0 LINE",
"536 848 LINE",
"740 848 LINE",
"780 1082 LINE"
);
}
);
width = 721;
}
);
note = f;
unicode = 0066;
},
{
glyphname = g;
lastChange = "2017-05-20 07:34:14 +0000";
layers = (
{
layerId = "F2BBBF4B-19AF-4944-B5B7-53A37E70F101";
paths = (
{
closed = 1;
nodes = (
"830 1083 LINE",
"796 987 LINE",
"687 1136 OFFCURVE",
"434 1131 OFFCURVE",
"295 1030 CURVE SMOOTH",
"156 929 OFFCURVE",
"72 748 OFFCURVE",
"47 563 CURVE SMOOTH",
"42 525 LINE SMOOTH",
"26 362 OFFCURVE",
"61 180 OFFCURVE",
"170 67 CURVE SMOOTH",
"278 -46 OFFCURVE",
"496 -59 OFFCURVE",
"645 88 CURVE",
"634 40 LINE",
"616 -27 OFFCURVE",
"584 -81 OFFCURVE",
"537 -121 CURVE SMOOTH",
"444 -201 OFFCURVE",
"247 -212 OFFCURVE",
"132 -65 CURVE",
"-24 -260 LINE",
"72 -368 OFFCURVE",
"214 -423 OFFCURVE",
"358 -426 CURVE SMOOTH",
"662 -431 OFFCURVE",
"913 -269 OFFCURVE",
"956 42 CURVE SMOOTH",
"1134 1082 LINE"
);
},
{
closed = 1;
nodes = (
"383 611 OFFCURVE",
"408 686 OFFCURVE",
"446 751 CURVE SMOOTH",
"521 879 OFFCURVE",
"700 865 OFFCURVE",
"751 770 CURVE",
"667 313 LINE",
"564 212 OFFCURVE",
"435 227 OFFCURVE",
"399 294 CURVE SMOOTH",
"362 361 OFFCURVE",
"364 459 OFFCURVE",
"371 526 CURVE"
);
}
);
width = 1144;
}
);
leftKerningGroup = c;
note = g;
unicode = 0067;
},
{
glyphname = h;
lastChange = "2017-05-20 07:34:14 +0000";
layers = (
{
layerId = "F2BBBF4B-19AF-4944-B5B7-53A37E70F101";
paths = (
{
closed = 1;
nodes = (
"708 839 OFFCURVE",
"724 767 OFFCURVE",
"712 675 CURVE",
"598 0 LINE",
"929 0 LINE",
"1041 672 LINE",
"1053 782 OFFCURVE",
"1038 881 OFFCURVE",
"995 968 CURVE SMOOTH",
"909 1143 OFFCURVE",
"627 1152 OFFCURVE",
"464 965 CURVE",
"576 1536 LINE",
"247 1536 LINE",
"-20 0 LINE",
"309 0 LINE",
"447 778 LINE",
"492 822 OFFCURVE",
"545 843 OFFCURVE",
"604 842 CURVE SMOOTH"
);
}
);
width = 1121;
}
);
note = h;
rightKerningGroup = h;
unicode = 0068;
},
{
glyphname = i;
lastChange = "2017-05-20 07:34:14 +0000";
layers = (
{
layerId = "F2BBBF4B-19AF-4944-B5B7-53A37E70F101";
paths = (
{
closed = 1;
nodes = (
"224 1255 OFFCURVE",
"308 1195 OFFCURVE",
"403 1196 CURVE SMOOTH",
"502 1197 OFFCURVE",
"587 1263 OFFCURVE",
"584 1367 CURVE SMOOTH",
"583 1467 OFFCURVE",
"497 1527 OFFCURVE",
"402 1526 CURVE SMOOTH",
"303 1525 OFFCURVE",
"218 1459 OFFCURVE",
"221 1355 CURVE SMOOTH"
);
},
{
closed = 1;
nodes = (
"4 0 LINE",
"334 0 LINE",
"521 1082 LINE",
"192 1082 LINE"
);
}
);
width = 546;
}
);
note = i;
unicode = 0069;
},
{
glyphname = j;
lastChange = "2017-05-20 07:34:14 +0000";
layers = (
{
layerId = "F2BBBF4B-19AF-4944-B5B7-53A37E70F101";
paths = (
{
closed = 1;
nodes = (
"227 1255 OFFCURVE",
"311 1196 OFFCURVE",
"406 1196 CURVE SMOOTH",
"505 1197 OFFCURVE",
"590 1263 OFFCURVE",
"587 1367 CURVE SMOOTH",
"586 1467 OFFCURVE",
"500 1526 OFFCURVE",
"405 1525 CURVE SMOOTH",
"308 1525 OFFCURVE",
"221 1458 OFFCURVE",
"224 1355 CURVE SMOOTH"
);
},
{
closed = 1;
nodes = (
"-9 -129 OFFCURVE",
"-67 -178 OFFCURVE",
"-164 -177 CURVE SMOOTH",
"-179 -177 OFFCURVE",
"-210 -173 OFFCURVE",
"-256 -165 CURVE",
"-283 -421 LINE",
"-224 -432 OFFCURVE",
"-169 -439 OFFCURVE",
"-117 -440 CURVE SMOOTH",
"140 -443 OFFCURVE",
"307 -286 OFFCURVE",
"339 -34 CURVE",
"529 1082 LINE",
"199 1082 LINE",
"8 -30 LINE SMOOTH"
);
}
);
width = 537;
}
);
note = j;
unicode = 006A;
},
{
glyphname = k;
lastChange = "2017-05-20 07:34:14 +0000";
layers = (
{
layerId = "F2BBBF4B-19AF-4944-B5B7-53A37E70F101";
paths = (
{
closed = 1;
nodes = (
"729 622 LINE",
"1189 1081 LINE",
"773 1082 LINE",
"474 765 LINE",
"434 718 LINE",
"586 1537 LINE",
"257 1537 LINE",
"-10 0 LINE",
"319 0 LINE",
"370 296 LINE",
"490 400 LINE",
"647 0 LINE",
"1009 0 LINE"
);
}
);
width = 1086;
}
);
note = k;
unicode = 006B;
},
{
glyphname = l;
lastChange = "2017-05-20 07:34:14 +0000";
layers = (
{
layerId = "F2BBBF4B-19AF-4944-B5B7-53A37E70F101";
paths = (
{
closed = 1;
nodes = (
"4 0 LINE",
"334 0 LINE",
"600 1536 LINE",
"270 1536 LINE"
);
}
);
width = 546;
}
);
note = l;
unicode = 006C;
},
{
glyphname = m;
lastChange = "2017-05-20 07:34:14 +0000";
layers = (
{
layerId = "F2BBBF4B-19AF-4944-B5B7-53A37E70F101";
paths = (
{
closed = 1;
nodes = (
"711 842 OFFCURVE",
"710 761 OFFCURVE",
"701 680 CURVE",
"587 0 LINE",
"916 0 LINE",
"1042 722 LINE",
"1047 755 LINE",
"1098 814 OFFCURVE",
"1152 843 OFFCURVE",
"1210 843 CURVE SMOOTH",
"1307 842 OFFCURVE",
"1307 761 OFFCURVE",
"1298 682 CURVE",
"1183 0 LINE",
"1513 0 LINE",
"1626 681 LINE",
"1633 750 OFFCURVE",
"1631 817 OFFCURVE",
"1618 881 CURVE SMOOTH",
"1592 1008 OFFCURVE",
"1512 1099 OFFCURVE",
"1351 1102 CURVE SMOOTH",
"1226 1105 OFFCURVE",
"1116 1050 OFFCURVE",
"1023 939 CURVE",
"990 1051 OFFCURVE",
"890 1099 OFFCURVE",
"778 1102 CURVE SMOOTH",
"653 1105 OFFCURVE",
"548 1055 OFFCURVE",
"463 953 CURVE",
"484 1083 LINE",
"178 1082 LINE",
"-10 0 LINE",
"319 0 LINE",
"452 754 LINE",
"502 813 OFFCURVE",
"555 843 OFFCURVE",
"611 843 CURVE SMOOTH"
);
}
);
width = 1711;
}
);
leftKerningGroup = m;
note = m;
rightKerningGroup = h;
unicode = 006D;
},
{
glyphname = n;
lastChange = "2017-05-20 07:34:14 +0000";
layers = (
{
layerId = "F2BBBF4B-19AF-4944-B5B7-53A37E70F101";
paths = (
{
closed = 1;
nodes = (
"706 841 OFFCURVE",
"724 776 OFFCURVE",
"713 683 CURVE",
"598 0 LINE",
"929 0 LINE",
"1043 681 LINE",
"1050 751 OFFCURVE",
"1047 818 OFFCURVE",
"1034 882 CURVE SMOOTH",
"1007 1009 OFFCURVE",
"926 1099 OFFCURVE",
"765 1103 CURVE SMOOTH",
"643 1106 OFFCURVE",
"539 1056 OFFCURVE",
"454 955 CURVE",
"476 1083 LINE",
"169 1082 LINE",
"-19 0 LINE",
"310 0 LINE",
"446 766 LINE",
"492 818 OFFCURVE",
"544 843 OFFCURVE",
"603 842 CURVE SMOOTH"
);
}
);
width = 1121;
}
);
leftKerningGroup = m;
note = n;
rightKerningGroup = h;
unicode = 006E;
},
{
glyphname = o;
lastChange = "2017-05-20 07:34:14 +0000";
layers = (
{
layerId = "F2BBBF4B-19AF-4944-B5B7-53A37E70F101";
paths = (
{
closed = 1;
nodes = (
"14 229 OFFCURVE",
"169 -15 OFFCURVE",
"482 -20 CURVE SMOOTH",
"811 -27 OFFCURVE",
"1028 224 OFFCURVE",
"1057 553 CURVE SMOOTH",
"1084 849 OFFCURVE",
"931 1097 OFFCURVE",
"615 1102 CURVE SMOOTH",
"286 1109 OFFCURVE",
"76 857 OFFCURVE",
"43 545 CURVE SMOOTH",
"41 524 LINE SMOOTH"
);
},
{
closed = 1;
nodes = (
"360 574 OFFCURVE",
"396 716 OFFCURVE",
"461 790 CURVE SMOOTH",
"526 864 OFFCURVE",
"659 858 OFFCURVE",
"698 791 CURVE SMOOTH",
"737 724 OFFCURVE",
"733 625 OFFCURVE",
"728 553 CURVE SMOOTH",
"708 340 OFFCURVE",
"633 235 OFFCURVE",
"503 238 CURVE SMOOTH",
"403 241 OFFCURVE",
"371 315 OFFCURVE",
"368 403 CURVE SMOOTH"
);
}
);
width = 1116;
}
);
leftKerningGroup = o;
note = o;
rightKerningGroup = o;
unicode = 006F;
},
{
glyphname = p;
lastChange = "2017-05-20 07:34:14 +0000";
layers = (
{
layerId = "F2BBBF4B-19AF-4944-B5B7-53A37E70F101";
paths = (
{
closed = 1;
nodes = (
"669 -24 OFFCURVE",
"749 -1 OFFCURVE",
"814 48 CURVE SMOOTH",
"945 145 OFFCURVE",
"1026 315 OFFCURVE",
"1059 556 CURVE",
"1075 719 OFFCURVE",
"1050 901 OFFCURVE",
"947 1015 CURVE SMOOTH",
"844 1129 OFFCURVE",
"609 1145 OFFCURVE",
"465 981 CURVE",
"481 1083 LINE",
"178 1082 LINE",
"-82 -416 LINE",
"247 -416 LINE",
"345 91 LINE",
"403 19 OFFCURVE",
"479 -18 OFFCURVE",
"574 -21 CURVE SMOOTH"
);
},
{
closed = 1;
nodes = (
"715 838 OFFCURVE",
"737 757 OFFCURVE",
"736 669 CURVE SMOOTH",
"731 518 OFFCURVE",
"710 409 OFFCURVE",
"672 340 CURVE SMOOTH",
"596 202 OFFCURVE",
"419 212 OFFCURVE",
"375 327 CURVE",
"452 757 LINE",
"498 817 OFFCURVE",
"555 845 OFFCURVE",
"624 842 CURVE SMOOTH"
);
}
);
width = 1118;
}
);
leftKerningGroup = m;
note = p;
rightKerningGroup = b;
unicode = 0070;
},
{
glyphname = q;
lastChange = "2017-05-20 07:34:14 +0000";
layers = (
{
layerId = "F2BBBF4B-19AF-4944-B5B7-53A37E70F101";
paths = (
{
closed = 1;
nodes = (
"769 964 LINE",
"658 1141 OFFCURVE",
"402 1134 OFFCURVE",
"268 1024 CURVE SMOOTH",
"134 914 OFFCURVE",
"63 727 OFFCURVE",
"42 550 CURVE SMOOTH",
"40 528 LINE SMOOTH",
"23 371 OFFCURVE",
"49 186 OFFCURVE",
"150 70 CURVE SMOOTH",
"251 -47 OFFCURVE",
"476 -60 OFFCURVE",
"619 92 CURVE",
"518 -416 LINE",
"849 -416 LINE",
"1109 1082 LINE",
"820 1083 LINE"
);
},
{
closed = 1;
nodes = (
"397 749 OFFCURVE",
"470 847 OFFCURVE",
"590 844 CURVE SMOOTH",
"659 843 OFFCURVE",
"704 814 OFFCURVE",
"724 758 CURVE",
"645 326 LINE",
"598 266 OFFCURVE",
"540 237 OFFCURVE",
"473 240 CURVE SMOOTH",
"381 244 OFFCURVE",
"359 327 OFFCURVE",
"362 416 CURVE SMOOTH",
"371 550 LINE"
);
}
);
width = 1116;
}
);
leftKerningGroup = c;
note = q;
unicode = 0071;
},
{
glyphname = r;
lastChange = "2017-05-20 07:34:14 +0000";
layers = (
{
layerId = "F2BBBF4B-19AF-4944-B5B7-53A37E70F101";
paths = (
{
closed = 1;
nodes = (
"691 787 OFFCURVE",
"725 784 OFFCURVE",
"768 777 CURVE",
"811 1091 LINE",
"772 1100 OFFCURVE",
"739 1105 OFFCURVE",
"710 1105 CURVE SMOOTH",
"595 1105 OFFCURVE",
"519 1034 OFFCURVE",
"459 942 CURVE",
"484 1083 LINE",
"178 1082 LINE",
"-10 0 LINE",
"319 0 LINE",
"441 687 LINE",
"493 755 OFFCURVE",
"568 788 OFFCURVE",
"666 787 CURVE SMOOTH"
);
}
);
width = 753;
}
);
note = r;
rightKerningGroup = r;
unicode = 0072;
},
{
glyphname = s;
lastChange = "2017-05-20 07:34:14 +0000";
layers = (
{
layerId = "F2BBBF4B-19AF-4944-B5B7-53A37E70F101";
paths = (
{
closed = 1;
nodes = (
"581 235 OFFCURVE",
"507 205 OFFCURVE",
"438 205 CURVE SMOOTH",
"343 204 OFFCURVE",
"295 252 OFFCURVE",
"293 348 CURVE",
"-11 349 LINE",
"-6 112 OFFCURVE",
"201 -16 OFFCURVE",
"421 -20 CURVE SMOOTH",
"561 -23 OFFCURVE",
"725 21 OFFCURVE",
"830 122 CURVE SMOOTH",
"934 222 OFFCURVE",
"934 409 OFFCURVE",
"862 498 CURVE SMOOTH",
"789 586 OFFCURVE",
"666 630 OFFCURVE",
"545 659 CURVE SMOOTH",
"490 671 OFFCURVE",
"386 693 OFFCURVE",
"401 770 CURVE SMOOTH",
"413 838 OFFCURVE",
"481 878 OFFCURVE",
"546 878 CURVE SMOOTH",
"633 878 OFFCURVE",
"660 829 OFFCURVE",
"659 750 CURVE",
"986 749 LINE",
"985 870 OFFCURVE",
"941 958 OFFCURVE",
"854 1015 CURVE SMOOTH",
"680 1128 OFFCURVE",
"486 1117 OFFCURVE",
"345 1067 CURVE SMOOTH",
"204 1017 OFFCURVE",
"97 913 OFFCURVE",
"92 753 CURVE SMOOTH",
"85 558 OFFCURVE",
"261 470 OFFCURVE",
"424 427 CURVE SMOOTH",
"501 407 LINE SMOOTH",
"574 387 OFFCURVE",
"606 355 OFFCURVE",
"597 310 CURVE SMOOTH"
);
}
);
width = 1019;
}
);
leftKerningGroup = s;
note = s;
unicode = 0073;
},
{
glyphname = t;
lastChange = "2017-05-20 07:34:14 +0000";
layers = (
{
layerId = "F2BBBF4B-19AF-4944-B5B7-53A37E70F101";
paths = (
{
closed = 1;
nodes = (
"554 248 OFFCURVE",
"525 246 OFFCURVE",
"506 247 CURVE SMOOTH",
"434 250 OFFCURVE",
"422 283 OFFCURVE",
"431 351 CURVE",
"516 848 LINE",
"688 848 LINE",
"729 1082 LINE",
"556 1082 LINE",
"603 1351 LINE",
"274 1351 LINE",
"227 1082 LINE",
"94 1082 LINE",
"54 848 LINE",
"187 848 LINE",
"99 311 LINE",
"89 209 OFFCURVE",
"110 129 OFFCURVE",
"161 71 CURVE SMOOTH",
"263 -45 OFFCURVE",
"455 -29 OFFCURVE",
"568 7 CURVE",
"591 251 LINE"
);
}
);
width = 683;
}
);
note = t;
unicode = 0074;
},
{
glyphname = u;
lastChange = "2017-05-20 07:34:14 +0000";
layers = (
{
layerId = "F2BBBF4B-19AF-4944-B5B7-53A37E70F101";
paths = (
{
closed = 1;
nodes = (
"1118 1082 LINE",
"788 1082 LINE",
"654 324 LINE",
"555 207 OFFCURVE",
"358 201 OFFCURVE",
"379 378 CURVE",
"498 1082 LINE",
"169 1082 LINE",
"52 382 LINE",
"41 274 OFFCURVE",
"60 180 OFFCURVE",
"107 101 CURVE SMOOTH",
"202 -58 OFFCURVE",
"485 -70 OFFCURVE",
"646 117 CURVE",
"624 0 LINE",
"930 0 LINE"
);
}
);
width = 1121;
}
);
leftKerningGroup = u;
note = u;
unicode = 0075;
},
{
glyphname = v;
lastChange = "2017-05-20 07:34:14 +0000";
layers = (
{
layerId = "F2BBBF4B-19AF-4944-B5B7-53A37E70F101";
paths = (
{
closed = 1;
nodes = (
"477 404 LINE",
"421 1082 LINE",
"82 1082 LINE",
"256 0 LINE",
"590 0 LINE",
"1103 1082 LINE",
"747 1082 LINE"
);
}
);
width = 1026;
}
);
leftKerningGroup = v;
note = v;
rightKerningGroup = v;
unicode = 0076;
},
{
glyphname = w;
lastChange = "2017-05-20 07:34:14 +0000";
layers = (
{
layerId = "F2BBBF4B-19AF-4944-B5B7-53A37E70F101";
paths = (
{
closed = 1;
nodes = (
"967 443 LINE",
"914 1082 LINE",
"684 1082 LINE",
"407 438 LINE",
"417 1082 LINE",
"108 1082 LINE",
"169 0 LINE",
"447 0 LINE",
"733 637 LINE",
"794 0 LINE",
"1072 0 LINE",
"1506 1082 LINE",
"1184 1082 LINE"
);
}
);
width = 1442;
}
);
note = w;
unicode = 0077;
},
{
glyphname = x;
lastChange = "2017-05-20 07:34:14 +0000";
layers = (
{
layerId = "F2BBBF4B-19AF-4944-B5B7-53A37E70F101";
paths = (
{
closed = 1;
nodes = (
"296 570 LINE",
"-91 0 LINE",
"268 0 LINE",
"480 318 LINE",
"593 0 LINE",
"922 0 LINE",
"724 540 LINE",
"1092 1082 LINE",
"736 1082 LINE",
"537 786 LINE",
"438 1082 LINE",
"108 1082 LINE"
);
}
);
width = 1023;
}
);
leftKerningGroup = x;
note = x;
rightKerningGroup = x;
unicode = 0078;
},
{
glyphname = y;
lastChange = "2017-05-20 07:34:14 +0000";
layers = (
{
layerId = "F2BBBF4B-19AF-4944-B5B7-53A37E70F101";
paths = (
{
closed = 1;
nodes = (
"763 1082 LINE",
"484 475 LINE",
"424 1082 LINE",
"83 1082 LINE",
"258 7 LINE",
"202 -96 LINE",
"169 -149 OFFCURVE",
"113 -176 OFFCURVE",
"35 -177 CURVE SMOOTH",
"-12 -177 LINE",
"-37 -418 LINE",
"22 -433 OFFCURVE",
"70 -440 OFFCURVE",
"109 -440 CURVE SMOOTH",
"304 -440 OFFCURVE",
"413 -327 OFFCURVE",
"492 -162 CURVE SMOOTH",
"1127 1082 LINE"
);
}
);
width = 1029;
}
);
leftKerningGroup = v;
note = y;
rightKerningGroup = v;
unicode = 0079;
},
{
glyphname = z;
lastChange = "2017-05-20 07:34:14 +0000";
layers = (
{
layerId = "F2BBBF4B-19AF-4944-B5B7-53A37E70F101";
paths = (
{
closed = 1;
nodes = (
"-5 202 LINE",
"-40 0 LINE",
"853 0 LINE",
"898 260 LINE",
"426 262 LINE",
"997 885 LINE",
"1031 1082 LINE",
"167 1082 LINE",
"122 822 LINE",
"563 820 LINE"
);
}
);
width = 1023;
}
);
leftKerningGroup = z;
note = z;
rightKerningGroup = z;
unicode = 007A;
},
{
glyphname = braceleft;
lastChange = "2017-05-20 07:34:14 +0000";
layers = (
{
layerId = "F2BBBF4B-19AF-4944-B5B7-53A37E70F101";
paths = (
{
closed = 1;
nodes = (
"96 -117 OFFCURVE",
"198 -287 OFFCURVE",
"411 -359 CURVE",
"484 -182 LINE",
"379 -127 OFFCURVE",
"392 2 OFFCURVE",
"405 105 CURVE SMOOTH",
"432 309 LINE SMOOTH",
"444 429 OFFCURVE",
"404 542 OFFCURVE",
"303 613 CURVE",
"434 678 OFFCURVE",
"511 776 OFFCURVE",
"533 907 CURVE SMOOTH",
"564 1138 LINE SMOOTH",
"584 1265 OFFCURVE",
"626 1372 OFFCURVE",
"738 1420 CURVE",
"689 1600 LINE",
"457 1532 OFFCURVE",
"321 1389 OFFCURVE",
"282 1171 CURVE",
"250 944 LINE SMOOTH",
"231 806 OFFCURVE",
"165 735 OFFCURVE",
"53 731 CURVE",
"30 503 LINE",
"143 494 OFFCURVE",
"161 414 OFFCURVE",
"148 310 CURVE SMOOTH",
"120 106 LINE SMOOTH"
);
}
);
width = 646;
}
);
note = braceleft;
unicode = 007B;
},
{
glyphname = bar;
lastChange = "2017-05-20 07:34:14 +0000";
layers = (
{
layerId = "F2BBBF4B-19AF-4944-B5B7-53A37E70F101";
paths = (
{
closed = 1;
nodes = (
"30 -270 LINE",
"209 -270 LINE",
"479 1456 LINE",
"300 1456 LINE"
);
}
);
width = 508;
}
);
note = bar;
unicode = 007C;
},
{
glyphname = braceright;
lastChange = "2017-05-20 07:34:14 +0000";
layers = (
{
layerId = "F2BBBF4B-19AF-4944-B5B7-53A37E70F101";
paths = (
{
closed = 1;
nodes = (
"557 1355 OFFCURVE",
"457 1524 OFFCURVE",
"242 1596 CURVE",
"168 1422 LINE",
"275 1365 OFFCURVE",
"261 1238 OFFCURVE",
"248 1133 CURVE SMOOTH",
"221 929 LINE",
"210 808 OFFCURVE",
"249 694 OFFCURVE",
"352 625 CURVE",
"220 560 OFFCURVE",
"143 462 OFFCURVE",
"120 330 CURVE",
"90 108 LINE SMOOTH",
"74 -8 OFFCURVE",
"35 -131 OFFCURVE",
"-85 -182 CURVE",
"-36 -363 LINE",
"199 -294 OFFCURVE",
"336 -147 OFFCURVE",
"373 77 CURVE SMOOTH",
"405 309 LINE SMOOTH",
"424 421 OFFCURVE",
"482 502 OFFCURVE",
"601 506 CURVE",
"624 734 LINE",
"509 743 OFFCURVE",
"492 824 OFFCURVE",
"505 928 CURVE SMOOTH",
"533 1132 LINE SMOOTH"
);
}
);
width = 646;
}
);
note = braceright;
unicode = 007D;
},
{
glyphname = asciitilde;
lastChange = "2017-05-20 07:34:14 +0000";
layers = (
{
layerId = "F2BBBF4B-19AF-4944-B5B7-53A37E70F101";
paths = (
{
closed = 1;
nodes = (
"940 727 OFFCURVE",
"903 626 OFFCURVE",
"812 626 CURVE SMOOTH",
"757 627 OFFCURVE",
"716 669 OFFCURVE",
"683 706 CURVE SMOOTH",
"531 875 OFFCURVE",
"334 861 OFFCURVE",
"231 776 CURVE SMOOTH",
"127 691 OFFCURVE",
"77 548 OFFCURVE",
"68 408 CURVE",
"299 405 LINE",
"311 478 OFFCURVE",
"348 578 OFFCURVE",
"439 578 CURVE SMOOTH",
"461 578 OFFCURVE",
"481 572 OFFCURVE",
"500 561 CURVE SMOOTH",
"519 550 OFFCURVE",
"546 525 OFFCURVE",
"582 487 CURVE SMOOTH",
"617 449 OFFCURVE",
"654 420 OFFCURVE",
"693 399 CURVE SMOOTH",
"769 358 OFFCURVE",
"917 342 OFFCURVE",
"1021 429 CURVE SMOOTH",
"1124 516 OFFCURVE",
"1175 661 OFFCURVE",
"1184 800 CURVE",
"952 800 LINE"
);
}
);
width = 1256;
}
);
note = asciitilde;
unicode = 007E;
},
{
glyphname = exclamdown;
lastChange = "2017-05-20 07:34:14 +0000";
layers = (
{
layerId = "F2BBBF4B-19AF-4944-B5B7-53A37E70F101";
paths = (
{
closed = 1;
nodes = (
"537 1039 OFFCURVE",
"455 1104 OFFCURVE",
"359 1103 CURVE SMOOTH",
"259 1103 OFFCURVE",
"174 1031 OFFCURVE",
"177 927 CURVE SMOOTH",
"180 827 OFFCURVE",
"262 762 OFFCURVE",
"358 763 CURVE SMOOTH",
"458 763 OFFCURVE",
"543 835 OFFCURVE",
"540 939 CURVE SMOOTH"
);
},
{
closed = 1;
nodes = (
"436 623 LINE",
"168 623 LINE",
"-46 -372 LINE",
"306 -372 LINE"
);
}
);
width = 598;
}
);
note = exclamdown;
unicode = 00A1;
},
{
glyphname = cent;
lastChange = "2017-05-20 07:34:14 +0000";
layers = (
{
layerId = "F2BBBF4B-19AF-4944-B5B7-53A37E70F101";
paths = (
{
closed = 1;
nodes = (
"664 298 OFFCURVE",
"609 235 OFFCURVE",
"514 239 CURVE SMOOTH",
"419 242 OFFCURVE",
"399 322 OFFCURVE",
"404 413 CURVE SMOOTH",
"414 550 LINE",
"419 591 OFFCURVE",
"427 634 OFFCURVE",
"439 681 CURVE SMOOTH",
"463 773 OFFCURVE",
"515 848 OFFCURVE",
"620 844 CURVE SMOOTH",
"721 840 OFFCURVE",
"744 753 OFFCURVE",
"739 668 CURVE",
"1048 667 LINE",
"1055 866 OFFCURVE",
"971 1041 OFFCURVE",
"767 1090 CURVE",
"815 1318 LINE",
"619 1318 LINE",
"572 1095 LINE",
"281 1055 OFFCURVE",
"119 833 OFFCURVE",
"86 550 CURVE SMOOTH",
"83 526 LINE SMOOTH",
"59 289 OFFCURVE",
"137 43 OFFCURVE",
"396 -10 CURVE",
"347 -245 LINE",
"543 -245 LINE",
"592 -10 LINE",
"805 26 OFFCURVE",
"974 160 OFFCURVE",
"986 387 CURVE",
"677 386 LINE"
);
}
);
width = 1174;
}
);
note = cent;
unicode = 00A2;
},
{
glyphname = sterling;
lastChange = "2017-05-20 07:34:14 +0000";
layers = (
{
layerId = "F2BBBF4B-19AF-4944-B5B7-53A37E70F101";
paths = (
{
closed = 1;
nodes = (
"1083 270 LINE",
"488 266 LINE",
"543 319 OFFCURVE",
"575 380 OFFCURVE",
"585 450 CURVE SMOOTH",
"597 561 LINE",
"884 561 LINE",
"930 822 LINE",
"630 822 LINE",
"655 1039 LINE",
"667 1118 OFFCURVE",
"707 1209 OFFCURVE",
"799 1206 CURVE SMOOTH",
"894 1205 OFFCURVE",
"910 1128 OFFCURVE",
"907 1048 CURVE",
"1228 1047 LINE",
"1233 1310 OFFCURVE",
"1077 1470 OFFCURVE",
"813 1475 CURVE SMOOTH",
"541 1480 OFFCURVE",
"346 1307 OFFCURVE",
"315 1039 CURVE SMOOTH",
"288 822 LINE",
"137 822 LINE",
"91 561 LINE",
"250 561 LINE",
"232 426 LINE SMOOTH",
"221 355 OFFCURVE",
"206 295 OFFCURVE",
"134 267 CURVE",
"44 269 LINE",
"-3 0 LINE",
"1037 0 LINE"
);
}
);
width = 1193;
}
);
note = sterling;
unicode = 00A3;
},
{
glyphname = currency;
lastChange = "2017-05-20 07:34:14 +0000";
layers = (
{
layerId = "F2BBBF4B-19AF-4944-B5B7-53A37E70F101";
paths = (
{
closed = 1;
nodes = (
"1188 360 OFFCURVE",
"1240 480 OFFCURVE",
"1257 615 CURVE SMOOTH",
"1269 725 OFFCURVE",
"1255 843 OFFCURVE",
"1215 968 CURVE",
"1384 1106 LINE",
"1261 1265 LINE",
"1090 1117 LINE",
"1001 1193 OFFCURVE",
"894 1232 OFFCURVE",
"769 1233 CURVE SMOOTH",
"650 1236 OFFCURVE",
"532 1198 OFFCURVE",
"415 1121 CURVE",
"307 1264 LINE",
"158 1134 LINE",
"274 977 LINE",
"78 761 OFFCURVE",
"65 501 OFFCURVE",
"140 258 CURVE",
"-15 132 LINE",
"108 -26 LINE",
"261 106 LINE",
"441 -58 OFFCURVE",
"720 -65 OFFCURVE",
"961 106 CURVE",
"1062 -27 LINE",
"1211 104 LINE",
"1099 255 LINE"
);
},
{
closed = 1;
nodes = (
"307 755 OFFCURVE",
"402 901 OFFCURVE",
"540 985 CURVE SMOOTH",
"678 1068 OFFCURVE",
"911 1082 OFFCURVE",
"1018 906 CURVE SMOOTH",
"1125 729 OFFCURVE",
"1083 535 OFFCURVE",
"992 397 CURVE SMOOTH",
"901 259 OFFCURVE",
"759 167 OFFCURVE",
"594 171 CURVE SMOOTH",
"365 179 OFFCURVE",
"255 390 OFFCURVE",
"284 599 CURVE SMOOTH"
);
}
);
width = 1356;
}
);
note = currency;
unicode = 00A4;
},
{
glyphname = yen;
lastChange = "2017-05-20 07:34:14 +0000";
layers = (
{
layerId = "F2BBBF4B-19AF-4944-B5B7-53A37E70F101";
paths = (
{
closed = 1;
nodes = (
"680 452 LINE",
"697 552 LINE",
"960 552 LINE",
"996 742 LINE",
"799 744 LINE",
"1223 1456 LINE",
"861 1456 LINE",
"591 939 LINE",
"499 1456 LINE",
"164 1456 LINE",
"338 742 LINE",
"95 742 LINE",
"61 552 LINE",
"356 552 LINE",
"338 452 LINE",
"45 452 LINE",
"11 263 LINE",
"306 263 LINE",
"260 0 LINE",
"601 0 LINE",
"647 263 LINE",
"911 263 LINE",
"944 452 LINE"
);
}
);
width = 1075;
}
);
note = yen;
unicode = 00A5;
},
{
glyphname = brokenbar;
lastChange = "2017-05-20 07:34:14 +0000";
layers = (
{
layerId = "F2BBBF4B-19AF-4944-B5B7-53A37E70F101";
paths = (
{
closed = 1;
nodes = (
"130 698 LINE",
"416 698 LINE",
"548 1456 LINE",
"262 1456 LINE"
);
},
{
closed = 1;
nodes = (
"101 525 LINE",
"-37 -270 LINE",
"248 -270 LINE",
"386 525 LINE"
);
}
);
width = 509;
}
);
note = brokenbar;
unicode = 00A6;
},
{
glyphname = section;
lastChange = "2017-05-20 07:34:14 +0000";
layers = (
{
layerId = "F2BBBF4B-19AF-4944-B5B7-53A37E70F101";
paths = (
{
closed = 1;
nodes = (
"1038 59 OFFCURVE",
"1010 152 OFFCURVE",
"945 227 CURVE",
"1068 296 OFFCURVE",
"1134 389 OFFCURVE",
"1142 508 CURVE SMOOTH",
"1146 571 OFFCURVE",
"1137 625 OFFCURVE",
"1116 671 CURVE SMOOTH",
"1072 762 OFFCURVE",
"978 835 OFFCURVE",
"766 906 CURVE SMOOTH",
"633 948 LINE SMOOTH",
"596 959 OFFCURVE",
"566 976 OFFCURVE",
"543 997 CURVE SMOOTH",
"496 1039 OFFCURVE",
"512 1152 OFFCURVE",
"603 1189 CURVE SMOOTH",
"694 1225 OFFCURVE",
"903 1265 OFFCURVE",
"898 1050 CURVE",
"1224 1050 LINE",
"1229 1337 OFFCURVE",
"1026 1472 OFFCURVE",
"754 1476 CURVE SMOOTH",
"587 1479 OFFCURVE",
"406 1429 OFFCURVE",
"288 1313 CURVE SMOOTH",
"170 1196 OFFCURVE",
"146 955 OFFCURVE",
"279 804 CURVE",
"223 772 OFFCURVE",
"177 734 OFFCURVE",
"140 689 CURVE SMOOTH",
"67 599 OFFCURVE",
"63 451 OFFCURVE",
"104 363 CURVE SMOOTH",
"144 274 OFFCURVE",
"232 200 OFFCURVE",
"451 124 CURVE SMOOTH",
"583 80 LINE SMOOTH",
"656 56 OFFCURVE",
"718 16 OFFCURVE",
"702 -55 CURVE SMOOTH",
"681 -154 OFFCURVE",
"571 -175 OFFCURVE",
"486 -175 CURVE SMOOTH",
"378 -174 OFFCURVE",
"301 -141 OFFCURVE",
"304 -25 CURVE",
"-22 -24 LINE",
"-24 -172 OFFCURVE",
"24 -277 OFFCURVE",
"122 -340 CURVE SMOOTH",
"318 -466 OFFCURVE",
"554 -451 OFFCURVE",
"722 -403 CURVE SMOOTH",
"889 -355 OFFCURVE",
"1018 -246 OFFCURVE",
"1031 -53 CURVE SMOOTH"
);
},
{
closed = 1;
nodes = (
"569 391 OFFCURVE",
"520 411 OFFCURVE",
"472 435 CURVE SMOOTH",
"375 482 OFFCURVE",
"410 617 OFFCURVE",
"495 689 CURVE",
"677 626 LINE SMOOTH",
"725 608 OFFCURVE",
"761 587 OFFCURVE",
"785 563 CURVE SMOOTH",
"833 515 OFFCURVE",
"819 417 OFFCURVE",
"724 342 CURVE",
"620 374 LINE SMOOTH"
);
}
);
width = 1263;
}
);
note = section;
unicode = 00A7;
},
{
glyphname = dieresis;
lastChange = "2017-05-20 07:34:14 +0000";
layers = (
{
layerId = "F2BBBF4B-19AF-4944-B5B7-53A37E70F101";
paths = (
{
closed = 1;
nodes = (
"214 1284 OFFCURVE",
"288 1230 OFFCURVE",
"361 1231 CURVE SMOOTH",
"437 1232 OFFCURVE",
"508 1290 OFFCURVE",
"505 1369 CURVE SMOOTH",
"502 1448 OFFCURVE",
"430 1500 OFFCURVE",
"355 1499 CURVE SMOOTH",
"280 1498 OFFCURVE",
"208 1440 OFFCURVE",
"211 1361 CURVE SMOOTH"
);
},
{
closed = 1;
nodes = (
"718 1284 OFFCURVE",
"792 1230 OFFCURVE",
"865 1231 CURVE SMOOTH",
"941 1232 OFFCURVE",
"1012 1290 OFFCURVE",
"1009 1369 CURVE SMOOTH",
"1006 1448 OFFCURVE",
"933 1500 OFFCURVE",
"858 1499 CURVE SMOOTH",
"783 1498 OFFCURVE",
"712 1440 OFFCURVE",
"715 1361 CURVE SMOOTH"
);
}
);
width = 983;
}
);
note = dieresis;
unicode = 00A8;
},
{
glyphname = copyright;
lastChange = "2017-05-20 07:34:14 +0000";
layers = (
{
layerId = "F2BBBF4B-19AF-4944-B5B7-53A37E70F101";
paths = (
{
closed = 1;
nodes = (
"77 474 OFFCURVE",
"169 235 OFFCURVE",
"354 91 CURVE SMOOTH",
"539 -53 OFFCURVE",
"843 -60 OFFCURVE",
"1071 83 CURVE SMOOTH",
"1299 226 OFFCURVE",
"1453 471 OFFCURVE",
"1481 735 CURVE SMOOTH",
"1506 984 OFFCURVE",
"1413 1222 OFFCURVE",
"1228 1366 CURVE SMOOTH",
"1043 1509 OFFCURVE",
"739 1516 OFFCURVE",
"511 1374 CURVE SMOOTH",
"283 1232 OFFCURVE",
"130 987 OFFCURVE",
"102 722 CURVE SMOOTH"
);
},
{
closed = 1;
nodes = (
"254 942 OFFCURVE",
"387 1147 OFFCURVE",
"582 1266 CURVE SMOOTH",
"777 1385 OFFCURVE",
"1031 1378 OFFCURVE",
"1177 1258 CURVE SMOOTH",
"1323 1137 OFFCURVE",
"1387 937 OFFCURVE",
"1359 736 CURVE SMOOTH",
"1328 516 OFFCURVE",
"1195 310 OFFCURVE",
"1001 191 CURVE SMOOTH",
"807 71 OFFCURVE",
"552 78 OFFCURVE",
"406 199 CURVE SMOOTH",
"260 320 OFFCURVE",
"195 519 OFFCURVE",
"223 722 CURVE SMOOTH"
);
},
{
closed = 1;
nodes = (
"904 472 OFFCURVE",
"838 412 OFFCURVE",
"725 417 CURVE SMOOTH",
"592 422 OFFCURVE",
"573 560 OFFCURVE",
"584 668 CURVE SMOOTH",
"598 789 LINE SMOOTH",
"615 916 OFFCURVE",
"685 1045 OFFCURVE",
"829 1042 CURVE SMOOTH",
"946 1039 OFFCURVE",
"982 969 OFFCURVE",
"975 861 CURVE",
"1127 859 LINE",
"1130 1052 OFFCURVE",
"1019 1172 OFFCURVE",
"824 1176 CURVE SMOOTH",
"597 1180 OFFCURVE",
"465 997 OFFCURVE",
"444 788 CURVE SMOOTH",
"432 669 LINE SMOOTH",
"417 470 OFFCURVE",
"516 287 OFFCURVE",
"732 282 CURVE SMOOTH",
"935 277 OFFCURVE",
"1064 396 OFFCURVE",
"1077 597 CURVE",
"925 596 LINE"
);
}
);
width = 1561;
}
);
note = copyright;
unicode = 00A9;
},
{
glyphname = ordfeminine;
lastChange = "2017-05-20 07:34:14 +0000";
layers = (
{
layerId = "F2BBBF4B-19AF-4944-B5B7-53A37E70F101";
paths = (
{
closed = 1;
nodes = (
"774 733 OFFCURVE",
"771 764 OFFCURVE",
"772 794 CURVE SMOOTH",
"776 853 LINE",
"829 1200 LINE",
"842 1365 OFFCURVE",
"738 1474 OFFCURVE",
"574 1477 CURVE SMOOTH",
"422 1480 OFFCURVE",
"271 1407 OFFCURVE",
"260 1242 CURVE",
"433 1229 LINE",
"452 1298 OFFCURVE",
"501 1331 OFFCURVE",
"580 1328 CURVE SMOOTH",
"655 1325 OFFCURVE",
"669 1269 OFFCURVE",
"657 1204 CURVE SMOOTH",
"645 1149 LINE",
"539 1151 LINE SMOOTH",
"486 1151 OFFCURVE",
"432 1145 OFFCURVE",
"378 1132 CURVE SMOOTH",
"269 1106 OFFCURVE",
"186 1040 OFFCURVE",
"185 911 CURVE SMOOTH",
"182 775 OFFCURVE",
"277 691 OFFCURVE",
"412 691 CURVE SMOOTH",
"486 691 OFFCURVE",
"553 719 OFFCURVE",
"613 774 CURVE",
"616 702 LINE",
"780 702 LINE"
);
},
{
closed = 1;
nodes = (
"378 835 OFFCURVE",
"350 862 OFFCURVE",
"359 915 CURVE SMOOTH",
"375 1003 OFFCURVE",
"472 1030 OFFCURVE",
"551 1033 CURVE",
"634 1033 LINE",
"606 896 LINE",
"545 854 OFFCURVE",
"491 833 OFFCURVE",
"445 833 CURVE SMOOTH"
);
}
);
width = 878;
}
);
note = ordfeminine;
unicode = 00AA;
},
{
glyphname = guillemotleft;
lastChange = "2017-05-20 07:34:14 +0000";
layers = (
{
layerId = "F2BBBF4B-19AF-4944-B5B7-53A37E70F101";
paths = (
{
closed = 1;
nodes = (
"284 499 LINE",
"591 915 LINE",
"370 915 LINE",
"47 524 LINE",
"46 503 LINE",
"256 114 LINE",
"438 117 LINE"
);
},
{
closed = 1;
nodes = (
"686 499 LINE",
"993 915 LINE",
"772 915 LINE",
"449 524 LINE",
"448 503 LINE",
"658 114 LINE",
"840 117 LINE"
);
}
);
width = 1032;
}
);
note = guillemotleft;
unicode = 00AB;
},
{
glyphname = logicalnot;
lastChange = "2017-05-20 07:34:14 +0000";
layers = (
{
layerId = "F2BBBF4B-19AF-4944-B5B7-53A37E70F101";
paths = (
{
closed = 1;
nodes = (
"743 634 LINE",
"697 374 LINE",
"893 374 LINE",
"968 805 LINE",
"156 805 LINE",
"126 634 LINE"
);
}
);
width = 1091;
}
);
note = logicalnot;
unicode = 00AC;
},
{
glyphname = registered;
lastChange = "2017-05-20 07:34:14 +0000";
layers = (
{
layerId = "F2BBBF4B-19AF-4944-B5B7-53A37E70F101";
paths = (
{
closed = 1;
nodes = (
"77 474 OFFCURVE",
"169 235 OFFCURVE",
"354 91 CURVE SMOOTH",
"539 -53 OFFCURVE",
"843 -60 OFFCURVE",
"1071 83 CURVE SMOOTH",
"1299 226 OFFCURVE",
"1453 471 OFFCURVE",
"1481 735 CURVE SMOOTH",
"1506 984 OFFCURVE",
"1413 1222 OFFCURVE",
"1228 1366 CURVE SMOOTH",
"1043 1509 OFFCURVE",
"739 1514 OFFCURVE",
"511 1373 CURVE SMOOTH",
"283 1232 OFFCURVE",
"130 987 OFFCURVE",
"102 722 CURVE SMOOTH"
);
},
{
closed = 1;
nodes = (
"254 942 OFFCURVE",
"387 1147 OFFCURVE",
"582 1266 CURVE SMOOTH",
"777 1385 OFFCURVE",
"1031 1378 OFFCURVE",
"1177 1258 CURVE SMOOTH",
"1323 1137 OFFCURVE",
"1387 937 OFFCURVE",
"1359 736 CURVE SMOOTH",
"1328 516 OFFCURVE",
"1195 310 OFFCURVE",
"1001 191 CURVE SMOOTH",
"807 71 OFFCURVE",
"552 78 OFFCURVE",
"406 199 CURVE SMOOTH",
"260 320 OFFCURVE",
"194 519 OFFCURVE",
"223 722 CURVE SMOOTH"
);
},
{
closed = 1;
nodes = (
"896 646 OFFCURVE",
"918 599 OFFCURVE",
"909 516 CURVE SMOOTH",
"902 459 OFFCURVE",
"898 417 OFFCURVE",
"897 388 CURVE SMOOTH",
"896 363 OFFCURVE",
"897 339 OFFCURVE",
"901 315 CURVE",
"1049 314 LINE",
"1050 333 LINE",
"1046 396 LINE SMOOTH",
"1045 414 OFFCURVE",
"1047 454 OFFCURVE",
"1054 515 CURVE SMOOTH",
"1061 592 OFFCURVE",
"1052 674 OFFCURVE",
"988 727 CURVE",
"1060 770 OFFCURVE",
"1115 821 OFFCURVE",
"1119 909 CURVE SMOOTH",
"1126 1084 OFFCURVE",
"986 1161 OFFCURVE",
"829 1165 CURVE SMOOTH",
"573 1166 LINE",
"440 316 LINE",
"588 316 LINE",
"641 653 LINE",
"808 651 LINE"
);
},
{
closed = 1;
nodes = (
"926 1029 OFFCURVE",
"995 1009 OFFCURVE",
"975 909 CURVE SMOOTH",
"956 816 OFFCURVE",
"852 789 OFFCURVE",
"769 786 CURVE",
"662 787 LINE",
"700 1033 LINE",
"841 1032 LINE SMOOTH"
);
}
);
width = 1561;
}
);
note = registered;
unicode = 00AE;
},
{
glyphname = macron;
lastChange = "2017-05-20 07:34:14 +0000";
layers = (
{
layerId = "F2BBBF4B-19AF-4944-B5B7-53A37E70F101";
paths = (
{
closed = 1;
nodes = (
"281 1285 LINE",
"957 1285 LINE",
"984 1458 LINE",
"309 1458 LINE"
);
}
);
width = 1034;
}
);
note = macron;
unicode = 00AF;
},
{
glyphname = degree;
lastChange = "2017-05-20 07:34:14 +0000";
layers = (
{
layerId = "F2BBBF4B-19AF-4944-B5B7-53A37E70F101";
paths = (
{
closed = 1;
nodes = (
"222 1043 OFFCURVE",
"332 920 OFFCURVE",
"477 917 CURVE SMOOTH",
"634 914 OFFCURVE",
"761 1049 OFFCURVE",
"764 1204 CURVE SMOOTH",
"767 1345 OFFCURVE",
"663 1474 OFFCURVE",
"516 1477 CURVE SMOOTH",
"357 1480 OFFCURVE",
"228 1342 OFFCURVE",
"225 1186 CURVE SMOOTH"
);
},
{
closed = 1;
nodes = (
"386 1259 OFFCURVE",
"450 1324 OFFCURVE",
"523 1324 CURVE SMOOTH",
"588 1323 OFFCURVE",
"622 1262 OFFCURVE",
"613 1202 CURVE SMOOTH",
"602 1133 OFFCURVE",
"543 1071 OFFCURVE",
"470 1071 CURVE SMOOTH",
"406 1070 OFFCURVE",
"367 1127 OFFCURVE",
"375 1188 CURVE SMOOTH"
);
}
);
width = 790;
}
);
note = degree;
unicode = 00B0;
},
{
glyphname = plusminus;
lastChange = "2017-05-20 07:34:14 +0000";
layers = (
{
layerId = "F2BBBF4B-19AF-4944-B5B7-53A37E70F101";
paths = (
{
closed = 1;
nodes = (
"727 974 LINE",
"777 1293 LINE",
"491 1293 LINE",
"440 974 LINE",
"139 974 LINE",
"96 703 LINE",
"399 703 LINE",
"344 355 LINE",
"630 355 LINE",
"685 703 LINE",
"987 703 LINE",
"1030 974 LINE"
);
},
{
closed = 1;
nodes = (
"3 1 LINE",
"858 1 LINE",
"900 265 LINE",
"45 265 LINE"
);
}
);
width = 1070;
}
);
note = plusminus;
unicode = 00B1;
},
{
glyphname = twosuperior;
lastChange = "2017-05-20 07:34:14 +0000";
layers = (
{
layerId = "F2BBBF4B-19AF-4944-B5B7-53A37E70F101";
paths = (
{
closed = 1;
nodes = (
"503 911 LINE SMOOTH",
"614 986 OFFCURVE",
"758 1068 OFFCURVE",
"763 1224 CURVE SMOOTH",
"767 1396 OFFCURVE",
"626 1469 OFFCURVE",
"471 1470 CURVE SMOOTH",
"302 1471 OFFCURVE",
"166 1360 OFFCURVE",
"157 1188 CURVE",
"379 1190 LINE",
"391 1242 OFFCURVE",
"422 1296 OFFCURVE",
"483 1296 CURVE SMOOTH",
"578 1297 OFFCURVE",
"540 1203 OFFCURVE",
"509 1163 CURVE SMOOTH",
"493 1143 OFFCURVE",
"464 1115 OFFCURVE",
"421 1078 CURVE",
"106 826 LINE",
"78 667 LINE",
"688 667 LINE",
"720 842 LINE",
"405 844 LINE"
);
}
);
width = 755;
}
);
note = twosuperior;
unicode = 00B2;
},
{
glyphname = threesuperior;
lastChange = "2017-05-20 07:34:14 +0000";
layers = (
{
layerId = "F2BBBF4B-19AF-4944-B5B7-53A37E70F101";
paths = (
{
closed = 1;
nodes = (
"469 997 OFFCURVE",
"491 991 OFFCURVE",
"508 980 CURVE SMOOTH",
"542 959 OFFCURVE",
"528 884 OFFCURVE",
"479 855 CURVE SMOOTH",
"430 826 OFFCURVE",
"314 809 OFFCURVE",
"305 909 CURVE",
"91 910 LINE",
"95 742 OFFCURVE",
"229 659 OFFCURVE",
"386 656 CURVE SMOOTH",
"486 653 OFFCURVE",
"604 682 OFFCURVE",
"679 753 CURVE SMOOTH",
"754 824 OFFCURVE",
"777 1014 OFFCURVE",
"618 1066 CURVE",
"701 1102 OFFCURVE",
"776 1150 OFFCURVE",
"779 1249 CURVE SMOOTH",
"784 1413 OFFCURVE",
"613 1468 OFFCURVE",
"477 1469 CURVE SMOOTH",
"329 1472 OFFCURVE",
"181 1404 OFFCURVE",
"170 1241 CURVE",
"397 1242 LINE",
"414 1277 OFFCURVE",
"445 1293 OFFCURVE",
"491 1292 CURVE SMOOTH",
"530 1292 OFFCURVE",
"567 1274 OFFCURVE",
"559 1230 CURVE SMOOTH",
"547 1169 OFFCURVE",
"490 1144 OFFCURVE",
"434 1141 CURVE",
"362 1141 LINE",
"336 999 LINE",
"443 998 LINE SMOOTH"
);
}
);
width = 755;
}
);
note = threesuperior;
unicode = 00B3;
},
{
glyphname = acute;
lastChange = "2017-05-20 07:34:14 +0000";
layers = (
{
layerId = "F2BBBF4B-19AF-4944-B5B7-53A37E70F101";
paths = (
{
closed = 1;
nodes = (
"782 1536 LINE",
"415 1536 LINE",
"174 1222 LINE",
"462 1222 LINE"
);
}
);
width = 671;
}
);
note = acute;
unicode = 00B4;
},
{
glyphname = mu;
lastChange = "2017-05-20 07:34:14 +0000";
layers = (
{
layerId = "F2BBBF4B-19AF-4944-B5B7-53A37E70F101";
paths = (
{
closed = 1;
nodes = (
"587 -23 OFFCURVE",
"658 3 OFFCURVE",
"725 54 CURVE",
"719 0 LINE",
"1015 0 LINE",
"1202 1082 LINE",
"873 1082 LINE",
"740 333 LINE",
"687 271 OFFCURVE",
"623 241 OFFCURVE",
"548 243 CURVE SMOOTH",
"421 247 OFFCURVE",
"426 361 OFFCURVE",
"438 460 CURVE",
"541 1082 LINE",
"212 1082 LINE",
"-48 -416 LINE",
"281 -416 LINE",
"365 16 LINE",
"412 -9 OFFCURVE",
"461 -21 OFFCURVE",
"512 -22 CURVE SMOOTH"
);
}
);
width = 1275;
}
);
note = mu;
unicode = 00B5;
},
{
glyphname = paragraph;
lastChange = "2017-05-20 07:34:14 +0000";
layers = (
{
layerId = "F2BBBF4B-19AF-4944-B5B7-53A37E70F101";
paths = (
{
closed = 1;
nodes = (
"686 1457 LINE SMOOTH",
"397 1457 OFFCURVE",
"173 1275 OFFCURVE",
"146 980 CURVE SMOOTH",
"122 709 OFFCURVE",
"290 528 OFFCURVE",
"561 521 CURVE SMOOTH",
"622 520 LINE",
"531 0 LINE",
"756 0 LINE",
"1008 1456 LINE"
);
}
);
width = 971;
}
);
note = paragraph;
unicode = 00B6;
},
{
glyphname = periodcentered;
lastChange = "2017-05-20 07:34:14 +0000";
layers = (
{
layerId = "F2BBBF4B-19AF-4944-B5B7-53A37E70F101";
paths = (
{
closed = 1;
nodes = (
"149 579 OFFCURVE",
"233 514 OFFCURVE",
"329 515 CURVE SMOOTH",
"429 515 OFFCURVE",
"513 588 OFFCURVE",
"510 691 CURVE SMOOTH",
"507 790 OFFCURVE",
"425 856 OFFCURVE",
"330 855 CURVE SMOOTH",
"230 855 OFFCURVE",
"145 783 OFFCURVE",
"148 679 CURVE SMOOTH"
);
}
);
width = 638;
}
);
note = periodcentered;
unicode = 00B7;
},
{
glyphname = cedilla;
lastChange = "2017-05-20 07:34:14 +0000";
layers = (
{
layerId = "F2BBBF4B-19AF-4944-B5B7-53A37E70F101";
paths = (
{
closed = 1;
nodes = (
"-1 -140 OFFCURVE",
"84 -137 OFFCURVE",
"72 -202 CURVE SMOOTH",
"63 -250 OFFCURVE",
"28 -278 OFFCURVE",
"-32 -286 CURVE",
"-44 -474 LINE",
"11 -473 OFFCURVE",
"70 -465 OFFCURVE",
"132 -452 CURVE SMOOTH",
"255 -425 OFFCURVE",
"354 -357 OFFCURVE",
"354 -217 CURVE SMOOTH",
"354 -126 OFFCURVE",
"312 -72 OFFCURVE",
"229 -55 CURVE",
"249 12 LINE",
"1 9 LINE",
"-42 -136 LINE"
);
}
);
width = 553;
}
);
note = cedilla;
unicode = 00B8;
},
{
glyphname = onesuperior;
lastChange = "2017-05-20 07:34:14 +0000";
layers = (
{
layerId = "F2BBBF4B-19AF-4944-B5B7-53A37E70F101";
paths = (
{
closed = 1;
nodes = (
"266 1337 LINE",
"234 1160 LINE",
"412 1196 LINE",
"320 667 LINE",
"539 667 LINE",
"667 1454 LINE",
"642 1453 LINE"
);
}
);
width = 755;
}
);
note = onesuperior;
unicode = 00B9;
},
{
glyphname = ordmasculine;
lastChange = "2017-05-20 07:34:14 +0000";
layers = (
{
layerId = "F2BBBF4B-19AF-4944-B5B7-53A37E70F101";
paths = (
{
closed = 1;
nodes = (
"181 851 OFFCURVE",
"292 694 OFFCURVE",
"495 689 CURVE SMOOTH",
"707 685 OFFCURVE",
"848 841 OFFCURVE",
"868 1044 CURVE SMOOTH",
"875 1121 LINE SMOOTH",
"888 1314 OFFCURVE",
"778 1472 OFFCURVE",
"575 1477 CURVE SMOOTH",
"363 1481 OFFCURVE",
"220 1323 OFFCURVE",
"200 1120 CURVE SMOOTH",
"194 1044 LINE SMOOTH"
);
},
{
closed = 1;
nodes = (
"390 1229 OFFCURVE",
"456 1334 OFFCURVE",
"577 1329 CURVE SMOOTH",
"692 1326 OFFCURVE",
"713 1218 OFFCURVE",
"704 1122 CURVE SMOOTH",
"695 1044 LINE SMOOTH",
"679 937 OFFCURVE",
"614 830 OFFCURVE",
"494 834 CURVE SMOOTH",
"378 838 OFFCURVE",
"358 945 OFFCURVE",
"366 1041 CURVE SMOOTH",
"375 1121 LINE SMOOTH"
);
}
);
width = 911;
}
);
note = ordmasculine;
unicode = 00BA;
},
{
glyphname = guillemotright;
lastChange = "2017-05-20 07:34:14 +0000";
layers = (
{
layerId = "F2BBBF4B-19AF-4944-B5B7-53A37E70F101";
paths = (
{
closed = 1;
nodes = (
"287 531 LINE",
"-19 115 LINE",
"202 115 LINE",
"526 507 LINE",
"526 527 LINE",
"316 916 LINE",
"134 913 LINE"
);
},
{
closed = 1;
nodes = (
"688 531 LINE",
"382 115 LINE",
"603 115 LINE",
"927 507 LINE",
"927 527 LINE",
"717 916 LINE",
"535 913 LINE"
);
}
);
width = 1032;
}
);
note = guillemotright;
unicode = 00BB;
},
{
glyphname = onequarter;
lastChange = "2017-05-20 07:34:14 +0000";
layers = (
{
layerId = "F2BBBF4B-19AF-4944-B5B7-53A37E70F101";
paths = (
{
closed = 1;
nodes = (
"234 1334 LINE",
"203 1157 LINE",
"380 1193 LINE",
"289 664 LINE",
"508 664 LINE",
"636 1451 LINE",
"611 1450 LINE"
);
},
{
closed = 1;
nodes = (
"223 206 LINE",
"376 119 LINE",
"1254 1245 LINE",
"1100 1332 LINE"
);
},
{
closed = 1;
nodes = (
"1204 335 LINE",
"1283 789 LINE",
"1052 789 LINE",
"643 317 LINE",
"631 157 LINE",
"953 157 LINE",
"925 0 LINE",
"1145 0 LINE",
"1173 157 LINE",
"1250 157 LINE",
"1281 335 LINE"
);
},
{
closed = 1;
nodes = (
"1026 528 LINE",
"986 334 LINE",
"858 337 LINE",
"1006 503 LINE"
);
}
);
width = 1418;
}
);
note = onequarter;
unicode = 00BC;
},
{
glyphname = onehalf;
lastChange = "2017-05-20 07:34:14 +0000";
layers = (
{
layerId = "F2BBBF4B-19AF-4944-B5B7-53A37E70F101";
paths = (
{
closed = 1;
nodes = (
"184 206 LINE",
"337 119 LINE",
"1215 1245 LINE",
"1061 1332 LINE"
);
},
{
closed = 1;
nodes = (
"212 1342 LINE",
"181 1165 LINE",
"358 1201 LINE",
"267 672 LINE",
"486 672 LINE",
"614 1459 LINE",
"589 1458 LINE"
);
},
{
closed = 1;
nodes = (
"1137 244 LINE SMOOTH",
"1248 319 OFFCURVE",
"1392 401 OFFCURVE",
"1396 557 CURVE SMOOTH",
"1401 729 OFFCURVE",
"1260 802 OFFCURVE",
"1105 803 CURVE SMOOTH",
"934 804 OFFCURVE",
"800 693 OFFCURVE",
"791 521 CURVE",
"1013 523 LINE",
"1025 575 OFFCURVE",
"1056 629 OFFCURVE",
"1117 629 CURVE SMOOTH",
"1212 630 OFFCURVE",
"1174 536 OFFCURVE",
"1143 496 CURVE SMOOTH",
"1127 476 OFFCURVE",
"1098 448 OFFCURVE",
"1055 411 CURVE",
"740 159 LINE",
"712 0 LINE",
"1322 0 LINE",
"1354 175 LINE",
"1039 177 LINE"
);
}
);
width = 1501;
}
);
note = onehalf;
unicode = 00BD;
},
{
glyphname = threequarters;
lastChange = "2017-05-20 07:34:14 +0000";
layers = (
{
layerId = "F2BBBF4B-19AF-4944-B5B7-53A37E70F101";
paths = (
{
closed = 1;
nodes = (
"399 206 LINE",
"552 119 LINE",
"1430 1245 LINE",
"1276 1332 LINE"
);
},
{
closed = 1;
nodes = (
"1396 335 LINE",
"1475 789 LINE",
"1244 789 LINE",
"835 317 LINE",
"823 157 LINE",
"1145 157 LINE",
"1117 0 LINE",
"1337 0 LINE",
"1365 157 LINE",
"1442 157 LINE",
"1473 335 LINE"
);
},
{
closed = 1;
nodes = (
"1218 528 LINE",
"1178 334 LINE",
"1050 337 LINE",
"1198 503 LINE"
);
},
{
closed = 1;
nodes = (
"510 997 OFFCURVE",
"532 991 OFFCURVE",
"549 980 CURVE SMOOTH",
"584 959 OFFCURVE",
"569 884 OFFCURVE",
"520 855 CURVE SMOOTH",
"471 826 OFFCURVE",
"356 809 OFFCURVE",
"347 909 CURVE",
"133 910 LINE",
"137 742 OFFCURVE",
"269 659 OFFCURVE",
"428 656 CURVE SMOOTH",
"528 653 OFFCURVE",
"646 682 OFFCURVE",
"721 753 CURVE SMOOTH",
"796 824 OFFCURVE",
"819 1014 OFFCURVE",
"660 1066 CURVE",
"743 1102 OFFCURVE",
"818 1150 OFFCURVE",
"821 1249 CURVE SMOOTH",
"825 1413 OFFCURVE",
"655 1468 OFFCURVE",
"519 1469 CURVE SMOOTH",
"370 1472 OFFCURVE",
"223 1404 OFFCURVE",
"212 1241 CURVE",
"439 1242 LINE",
"456 1277 OFFCURVE",
"487 1293 OFFCURVE",
"532 1292 CURVE SMOOTH",
"571 1292 OFFCURVE",
"609 1274 OFFCURVE",
"601 1230 CURVE SMOOTH",
"589 1169 OFFCURVE",
"532 1144 OFFCURVE",
"476 1141 CURVE",
"404 1141 LINE",
"378 999 LINE",
"485 998 LINE SMOOTH"
);
}
);
width = 1648;
}
);
note = threequarters;
unicode = 00BE;
},
{
glyphname = questiondown;
lastChange = "2017-05-20 07:34:14 +0000";
layers = (
{
layerId = "F2BBBF4B-19AF-4944-B5B7-53A37E70F101";
paths = (
{
closed = 1;
nodes = (
"789 1039 OFFCURVE",
"706 1104 OFFCURVE",
"611 1104 CURVE SMOOTH",
"510 1103 OFFCURVE",
"425 1032 OFFCURVE",
"428 928 CURVE SMOOTH",
"431 828 OFFCURVE",
"514 763 OFFCURVE",
"609 764 CURVE SMOOTH",
"709 764 OFFCURVE",
"793 836 OFFCURVE",
"792 940 CURVE SMOOTH"
);
},
{
closed = 1;
nodes = (
"375 608 OFFCURVE",
"356 573 OFFCURVE",
"345 524 CURVE SMOOTH",
"334 475 OFFCURVE",
"308 434 OFFCURVE",
"268 403 CURVE SMOOTH",
"136 299 OFFCURVE",
"-19 189 OFFCURVE",
"-31 2 CURVE SMOOTH",
"-50 -254 OFFCURVE",
"139 -381 OFFCURVE",
"376 -385 CURVE SMOOTH",
"648 -392 OFFCURVE",
"858 -241 OFFCURVE",
"879 39 CURVE",
"550 37 LINE",
"533 -50 OFFCURVE",
"488 -132 OFFCURVE",
"388 -129 CURVE SMOOTH",
"313 -126 OFFCURVE",
"296 -65 OFFCURVE",
"305 0 CURVE SMOOTH",
"321 108 OFFCURVE",
"389 160 OFFCURVE",
"510 260 CURVE SMOOTH",
"631 359 OFFCURVE",
"665 480 OFFCURVE",
"674 632 CURVE",
"401 630 LINE"
);
}
);
width = 1013;
}
);
note = questiondown;
unicode = 00BF;
},
{
glyphname = AE;
lastChange = "2017-05-20 07:34:14 +0000";
layers = (
{
layerId = "F2BBBF4B-19AF-4944-B5B7-53A37E70F101";
paths = (
{
closed = 1;
nodes = (
"1230 612 LINE",
"1661 612 LINE",
"1707 876 LINE",
"1265 876 LINE",
"1307 1192 LINE",
"1840 1192 LINE",
"1886 1456 LINE",
"867 1456 LINE",
"-98 0 LINE",
"298 0 LINE",
"503 329 LINE",
"865 329 LINE",
"821 0 LINE",
"1693 0 LINE",
"1739 264 LINE",
"1184 264 LINE"
);
},
{
closed = 1;
nodes = (
"902 599 LINE",
"668 601 LINE",
"964 1069 LINE"
);
}
);
width = 1868;
}
);
note = AE;
unicode = 00C6;
},
{
glyphname = multiply;
lastChange = "2017-05-20 07:34:14 +0000";
layers = (
{
layerId = "F2BBBF4B-19AF-4944-B5B7-53A37E70F101";
paths = (
{
closed = 1;
nodes = (
"1061 979 LINE",
"893 1175 LINE",
"557 877 LINE",
"325 1176 LINE",
"120 1005 LINE",
"358 700 LINE",
"14 394 LINE",
"181 198 LINE",
"517 496 LINE",
"749 197 LINE",
"954 368 LINE",
"716 673 LINE"
);
}
);
width = 1051;
}
);
note = multiply;
unicode = 00D7;
},
{
glyphname = Oslash;
lastChange = "2017-05-20 07:34:14 +0000";
layers = (
{
layerId = "F2BBBF4B-19AF-4944-B5B7-53A37E70F101";
paths = (
{
closed = 1;
nodes = (
"747 -23 OFFCURVE",
"867 10 OFFCURVE",
"969 77 CURVE SMOOTH",
"1173 212 OFFCURVE",
"1298 444 OFFCURVE",
"1333 699 CURVE SMOOTH",
"1341 760 LINE SMOOTH",
"1366 970 OFFCURVE",
"1331 1151 OFFCURVE",
"1237 1304 CURVE",
"1405 1517 LINE",
"1184 1518 LINE",
"1100 1411 LINE",
"937 1496 OFFCURVE",
"672 1514 OFFCURVE",
"468 1379 CURVE SMOOTH",
"264 1244 OFFCURVE",
"139 1010 OFFCURVE",
"104 757 CURVE SMOOTH",
"96 698 LINE SMOOTH",
"70 491 OFFCURVE",
"104 309 OFFCURVE",
"197 154 CURVE",
"4 -94 LINE",
"226 -95 LINE",
"335 46 LINE",
"417 3 OFFCURVE",
"509 -20 OFFCURVE",
"610 -21 CURVE SMOOTH"
);
},
{
closed = 1;
nodes = (
"475 903 OFFCURVE",
"522 1051 OFFCURVE",
"619 1141 CURVE SMOOTH",
"716 1231 OFFCURVE",
"867 1215 OFFCURVE",
"930 1164 CURVE",
"420 469 LINE",
"421 524 OFFCURVE",
"428 601 OFFCURVE",
"442 698 CURVE SMOOTH",
"452 760 LINE SMOOTH"
);
},
{
closed = 1;
nodes = (
"1016 913 OFFCURVE",
"1007 822 OFFCURVE",
"990 721 CURVE SMOOTH",
"958 524 OFFCURVE",
"903 389 OFFCURVE",
"808 308 CURVE SMOOTH",
"713 227 OFFCURVE",
"564 239 OFFCURVE",
"503 294 CURVE",
"1017 992 LINE"
);
}
);
width = 1368;
}
);
leftKerningGroup = C;
note = Oslash;
unicode = 00D8;
},
{
glyphname = Thorn;
lastChange = "2017-05-20 07:34:14 +0000";
layers = (
{
layerId = "F2BBBF4B-19AF-4944-B5B7-53A37E70F101";
paths = (
{
closed = 1;
nodes = (
"694 277 OFFCURVE",
"788 294 OFFCURVE",
"877 327 CURVE SMOOTH",
"1056 394 OFFCURVE",
"1185 531 OFFCURVE",
"1201 746 CURVE SMOOTH",
"1222 1043 OFFCURVE",
"992 1192 OFFCURVE",
"719 1197 CURVE SMOOTH",
"545 1198 LINE",
"590 1456 LINE",
"260 1456 LINE",
"8 0 LINE",
"337 0 LINE",
"386 278 LINE",
"596 277 LINE SMOOTH"
);
},
{
closed = 1;
nodes = (
"826 932 OFFCURVE",
"890 860 OFFCURVE",
"871 744 CURVE SMOOTH",
"850 608 OFFCURVE",
"738 539 OFFCURVE",
"607 536 CURVE SMOOTH",
"431 538 LINE",
"500 938 LINE",
"710 937 LINE"
);
}
);
width = 1228;
}
);
note = Thorn;
unicode = 00DE;
},
{
glyphname = germandbls;
lastChange = "2017-05-20 07:34:14 +0000";
layers = (
{
layerId = "F2BBBF4B-19AF-4944-B5B7-53A37E70F101";
paths = (
{
closed = 1;
nodes = (
"559 1206 OFFCURVE",
"598 1311 OFFCURVE",
"713 1306 CURVE SMOOTH",
"786 1302 OFFCURVE",
"826 1249 OFFCURVE",
"817 1177 CURVE SMOOTH",
"809 1109 OFFCURVE",
"785 1048 OFFCURVE",
"746 994 CURVE SMOOTH",
"666 886 OFFCURVE",
"657 744 OFFCURVE",
"726 652 CURVE SMOOTH",
"835 513 LINE SMOOTH",
"868 470 OFFCURVE",
"880 424 OFFCURVE",
"870 373 CURVE SMOOTH",
"854 290 OFFCURVE",
"781 242 OFFCURVE",
"700 239 CURVE SMOOTH",
"623 238 OFFCURVE",
"556 253 OFFCURVE",
"501 284 CURVE",
"419 30 LINE",
"490 -3 OFFCURVE",
"579 -21 OFFCURVE",
"686 -22 CURVE SMOOTH",
"941 -25 OFFCURVE",
"1180 98 OFFCURVE",
"1195 378 CURVE SMOOTH",
"1198 435 OFFCURVE",
"1182 488 OFFCURVE",
"1148 537 CURVE SMOOTH",
"1045 685 LINE SMOOTH",
"981 778 OFFCURVE",
"1009 902 OFFCURVE",
"1089 1005 CURVE SMOOTH",
"1129 1056 OFFCURVE",
"1152 1117 OFFCURVE",
"1157 1188 CURVE SMOOTH",
"1173 1421 OFFCURVE",
"989 1557 OFFCURVE",
"772 1561 CURVE SMOOTH",
"469 1568 OFFCURVE",
"254 1400 OFFCURVE",
"213 1099 CURVE SMOOTH",
"26 0 LINE",
"355 0 LINE",
"540 1095 LINE SMOOTH"
);
}
);
width = 1290;
}
);
note = germandbls;
unicode = 00DF;
},
{
glyphname = ae;
lastChange = "2017-05-20 07:34:14 +0000";
layers = (
{
layerId = "F2BBBF4B-19AF-4944-B5B7-53A37E70F101";
paths = (
{
closed = 1;
nodes = (
"1364 269 OFFCURVE",
"1273 239 OFFCURVE",
"1170 242 CURVE SMOOTH",
"1043 246 OFFCURVE",
"984 310 OFFCURVE",
"993 435 CURVE",
"1607 435 LINE",
"1634 612 LINE",
"1649 742 OFFCURVE",
"1624 855 OFFCURVE",
"1560 952 CURVE SMOOTH",
"1431 1144 OFFCURVE",
"1129 1136 OFFCURVE",
"933 1012 CURVE",
"794 1131 OFFCURVE",
"567 1116 OFFCURVE",
"412 1072 CURVE SMOOTH",
"257 1028 OFFCURVE",
"136 929 OFFCURVE",
"129 758 CURVE",
"458 740 LINE",
"474 813 OFFCURVE",
"542 845 OFFCURVE",
"614 842 CURVE SMOOTH",
"697 839 OFFCURVE",
"717 776 OFFCURVE",
"705 704 CURVE",
"695 655 LINE",
"554 656 LINE SMOOTH",
"403 656 OFFCURVE",
"222 627 OFFCURVE",
"104 530 CURVE SMOOTH",
"-14 433 OFFCURVE",
"-37 174 OFFCURVE",
"115 65 CURVE SMOOTH",
"266 -44 OFFCURVE",
"547 -69 OFFCURVE",
"766 114 CURVE",
"851 15 OFFCURVE",
"986 -19 OFFCURVE",
"1113 -20 CURVE SMOOTH",
"1248 -21 OFFCURVE",
"1413 10 OFFCURVE",
"1521 98 CURVE",
"1457 308 LINE"
);
},
{
closed = 1;
nodes = (
"1323 839 OFFCURVE",
"1331 747 OFFCURVE",
"1319 675 CURVE",
"1312 645 LINE",
"1015 645 LINE",
"1050 748 OFFCURVE",
"1107 850 OFFCURVE",
"1232 843 CURVE SMOOTH"
);
},
{
closed = 1;
nodes = (
"389 212 OFFCURVE",
"326 236 OFFCURVE",
"341 312 CURVE SMOOTH",
"358 411 OFFCURVE",
"468 449 OFFCURVE",
"555 453 CURVE SMOOTH",
"678 458 LINE",
"674 444 LINE",
"632 273 LINE",
"563 232 OFFCURVE",
"504 211 OFFCURVE",
"454 211 CURVE SMOOTH"
);
}
);
width = 1678;
}
);
note = ae;
unicode = 00E6;
},
{
glyphname = eth;
lastChange = "2017-05-20 07:34:14 +0000";
layers = (
{
layerId = "F2BBBF4B-19AF-4944-B5B7-53A37E70F101";
paths = (
{
closed = 1;
nodes = (
"594 -23 OFFCURVE",
"694 5 OFFCURVE",
"781 63 CURVE SMOOTH",
"953 178 OFFCURVE",
"1060 378 OFFCURVE",
"1091 586 CURVE SMOOTH",
"1101 656 LINE SMOOTH",
"1130 893 OFFCURVE",
"1079 1101 OFFCURVE",
"959 1305 CURVE",
"1090 1374 LINE",
"1032 1507 LINE",
"849 1404 LINE",
"750 1485 OFFCURVE",
"627 1544 OFFCURVE",
"478 1579 CURVE",
"352 1335 LINE",
"447 1308 OFFCURVE",
"519 1276 OFFCURVE",
"568 1237 CURVE",
"425 1160 LINE",
"485 1027 LINE",
"683 1139 LINE",
"735 1062 OFFCURVE",
"763 981 OFFCURVE",
"768 897 CURVE",
"697 939 OFFCURVE",
"622 961 OFFCURVE",
"544 962 CURVE SMOOTH",
"245 969 OFFCURVE",
"66 743 OFFCURVE",
"42 460 CURVE SMOOTH",
"19 188 OFFCURVE",
"207 -14 OFFCURVE",
"479 -21 CURVE SMOOTH"
);
},
{
closed = 1;
nodes = (
"386 592 OFFCURVE",
"453 725 OFFCURVE",
"604 722 CURVE SMOOTH",
"682 722 OFFCURVE",
"739 700 OFFCURVE",
"774 657 CURVE",
"752 532 LINE SMOOTH",
"712 331 OFFCURVE",
"630 233 OFFCURVE",
"505 238 CURVE SMOOTH",
"386 242 OFFCURVE",
"360 362 OFFCURVE",
"371 459 CURVE SMOOTH"
);
}
);
width = 1131;
}
);
note = eth;
unicode = 00F0;
},
{
glyphname = divide;
lastChange = "2017-05-20 07:34:14 +0000";
layers = (
{
layerId = "F2BBBF4B-19AF-4944-B5B7-53A37E70F101";
paths = (
{
closed = 1;
nodes = (
"468 980 OFFCURVE",
"554 920 OFFCURVE",
"647 921 CURVE SMOOTH",
"746 922 OFFCURVE",
"831 989 OFFCURVE",
"828 1092 CURVE SMOOTH",
"825 1191 OFFCURVE",
"741 1252 OFFCURVE",
"646 1251 CURVE SMOOTH",
"549 1250 OFFCURVE",
"464 1184 OFFCURVE",
"465 1080 CURVE SMOOTH"
);
},
{
closed = 1;
nodes = (
"50 563 LINE",
"1064 563 LINE",
"1107 807 LINE",
"93 807 LINE"
);
},
{
closed = 1;
nodes = (
"328 171 OFFCURVE",
"412 111 OFFCURVE",
"507 112 CURVE SMOOTH",
"606 113 OFFCURVE",
"691 180 OFFCURVE",
"688 283 CURVE SMOOTH",
"685 382 OFFCURVE",
"601 443 OFFCURVE",
"506 442 CURVE SMOOTH",
"407 441 OFFCURVE",
"324 375 OFFCURVE",
"325 271 CURVE SMOOTH"
);
}
);
width = 1132;
}
);
note = divide;
unicode = 00F7;
},
{
glyphname = oslash;
lastChange = "2017-05-20 07:34:14 +0000";
layers = (
{
layerId = "F2BBBF4B-19AF-4944-B5B7-53A37E70F101";
paths = (
{
closed = 1;
nodes = (
"801 -26 OFFCURVE",
"1015 219 OFFCURVE",
"1054 532 CURVE SMOOTH",
"1056 554 LINE SMOOTH",
"1072 715 OFFCURVE",
"1046 879 OFFCURVE",
"934 1003 CURVE",
"1084 1218 LINE",
"894 1219 LINE",
"798 1076 LINE",
"740 1094 OFFCURVE",
"682 1103 OFFCURVE",
"624 1104 CURVE SMOOTH",
"295 1108 OFFCURVE",
"79 862 OFFCURVE",
"42 550 CURVE SMOOTH",
"40 528 LINE SMOOTH",
"23 364 OFFCURVE",
"51 198 OFFCURVE",
"166 75 CURVE",
"14 -144 LINE",
"204 -145 LINE",
"304 4 LINE",
"361 -13 OFFCURVE",
"417 -21 OFFCURVE",
"472 -22 CURVE SMOOTH"
);
},
{
closed = 1;
nodes = (
"388 680 OFFCURVE",
"445 849 OFFCURVE",
"609 846 CURVE SMOOTH",
"624 846 OFFCURVE",
"640 844 OFFCURVE",
"658 839 CURVE",
"348 370 LINE",
"349 418 OFFCURVE",
"355 471 OFFCURVE",
"365 529 CURVE SMOOTH"
);
},
{
closed = 1;
nodes = (
"693 348 OFFCURVE",
"635 233 OFFCURVE",
"486 236 CURVE",
"444 241 LINE",
"748 701 LINE",
"747 661 OFFCURVE",
"741 611 OFFCURVE",
"732 552 CURVE"
);
}
);
width = 1117;
}
);
note = oslash;
unicode = 00F8;
},
{
glyphname = thorn;
lastChange = "2017-05-20 07:34:14 +0000";
layers = (
{
layerId = "F2BBBF4B-19AF-4944-B5B7-53A37E70F101";
paths = (
{
closed = 1;
nodes = (
"675 -24 OFFCURVE",
"760 3 OFFCURVE",
"827 60 CURVE SMOOTH",
"962 172 OFFCURVE",
"1033 359 OFFCURVE",
"1054 534 CURVE SMOOTH",
"1056 556 LINE SMOOTH",
"1073 719 OFFCURVE",
"1048 899 OFFCURVE",
"945 1014 CURVE SMOOTH",
"842 1129 OFFCURVE",
"618 1140 OFFCURVE",
"479 996 CURVE",
"585 1536 LINE",
"254 1536 LINE",
"-85 -416 LINE",
"246 -416 LINE",
"344 89 LINE",
"402 18 OFFCURVE",
"478 -18 OFFCURVE",
"573 -21 CURVE SMOOTH"
);
},
{
closed = 1;
nodes = (
"713 838 OFFCURVE",
"735 757 OFFCURVE",
"734 669 CURVE SMOOTH",
"729 518 OFFCURVE",
"708 409 OFFCURVE",
"670 340 CURVE SMOOTH",
"594 202 OFFCURVE",
"418 213 OFFCURVE",
"373 324 CURVE",
"452 760 LINE",
"498 818 OFFCURVE",
"555 845 OFFCURVE",
"622 842 CURVE SMOOTH"
);
}
);
width = 1115;
}
);
note = thorn;
rightKerningGroup = b;
unicode = 00FE;
},
{
glyphname = dcroat;
lastChange = "2017-05-20 07:34:14 +0000";
layers = (
{
layerId = "F2BBBF4B-19AF-4944-B5B7-53A37E70F101";
paths = (
{
closed = 1;
nodes = (
"1132 1215 LINE",
"1268 1215 LINE",
"1301 1406 LINE",
"1165 1406 LINE",
"1188 1536 LINE",
"857 1536 LINE",
"834 1406 LINE",
"590 1406 LINE",
"557 1215 LINE",
"802 1215 LINE",
"752 987 LINE",
"635 1135 OFFCURVE",
"402 1134 OFFCURVE",
"268 1023 CURVE SMOOTH",
"134 912 OFFCURVE",
"64 726 OFFCURVE",
"41 547 CURVE",
"39 525 LINE SMOOTH",
"22 365 OFFCURVE",
"49 184 OFFCURVE",
"151 69 CURVE SMOOTH",
"253 -47 OFFCURVE",
"483 -70 OFFCURVE",
"642 117 CURVE",
"628 0 LINE",
"922 0 LINE"
);
},
{
closed = 1;
nodes = (
"380 630 OFFCURVE",
"407 733 OFFCURVE",
"468 798 CURVE SMOOTH",
"528 862 OFFCURVE",
"678 872 OFFCURVE",
"722 749 CURVE",
"647 332 LINE",
"597 269 OFFCURVE",
"539 238 OFFCURVE",
"474 240 CURVE SMOOTH",
"382 244 OFFCURVE",
"359 325 OFFCURVE",
"362 414 CURVE SMOOTH",
"368 526 LINE",
"371 547 LINE SMOOTH"
);
}
);
width = 1282;
}
);
note = dcroat;
unicode = 0111;
},
{
glyphname = Hbar;
lastChange = "2017-05-20 07:34:14 +0000";
layers = (
{
layerId = "F2BBBF4B-19AF-4944-B5B7-53A37E70F101";
paths = (
{
closed = 1;
nodes = (
"1393 1060 LINE",
"1506 1060 LINE",
"1538 1243 LINE",
"1425 1243 LINE",
"1462 1456 LINE",
"1121 1456 LINE",
"1083 1243 LINE",
"585 1243 LINE",
"622 1456 LINE",
"280 1456 LINE",
"242 1243 LINE",
"143 1243 LINE",
"111 1060 LINE",
"211 1060 LINE",
"27 0 LINE",
"370 0 LINE",
"475 608 LINE",
"974 608 LINE",
"868 0 LINE",
"1210 0 LINE"
);
},
{
closed = 1;
nodes = (
"1052 1060 LINE",
"1020 878 LINE",
"522 878 LINE",
"554 1060 LINE"
);
}
);
width = 1448;
}
);
note = Hbar;
unicode = 0126;
},
{
glyphname = dotlessi;
lastChange = "2017-05-20 07:34:14 +0000";
layers = (
{
layerId = "F2BBBF4B-19AF-4944-B5B7-53A37E70F101";
paths = (
{
closed = 1;
nodes = (
"15 0 LINE",
"345 0 LINE",
"533 1082 LINE",
"203 1082 LINE"
);
}
);
width = 566;
}
);
note = dotlessi;
unicode = 0131;
},
{
glyphname = kgreenlandic;
lastChange = "2017-05-20 07:34:14 +0000";
layers = (
{
layerId = "F2BBBF4B-19AF-4944-B5B7-53A37E70F101";
paths = (
{
closed = 1;
nodes = (
"827 561 LINE",
"1261 1082 LINE",
"820 1082 LINE",
"534 693 LINE",
"457 693 LINE",
"525 1082 LINE",
"196 1082 LINE",
"9 0 LINE",
"337 0 LINE",
"403 378 LINE",
"528 378 LINE",
"656 0 LINE",
"1066 0 LINE"
);
}
);
width = 1206;
}
);
note = kgreenlandic;
unicode = 0138;
},
{
glyphname = Lslash;
lastChange = "2017-05-20 07:34:14 +0000";
layers = (
{
layerId = "F2BBBF4B-19AF-4944-B5B7-53A37E70F101";
paths = (
{
closed = 1;
nodes = (
"520 731 LINE",
"718 784 LINE",
"751 972 LINE",
"552 919 LINE",
"645 1456 LINE",
"304 1456 LINE",
"194 822 LINE",
"56 785 LINE",
"23 597 LINE",
"161 634 LINE",
"51 0 LINE",
"985 0 LINE",
"1033 270 LINE",
"440 270 LINE"
);
}
);
width = 1126;
}
);
note = Lslash;
unicode = 0141;
},
{
glyphname = lslash;
lastChange = "2017-05-20 07:34:14 +0000";
layers = (
{
layerId = "F2BBBF4B-19AF-4944-B5B7-53A37E70F101";
paths = (
{
closed = 1;
nodes = (
"539 932 LINE",
"644 1536 LINE",
"313 1536 LINE",
"190 825 LINE",
"58 785 LINE",
"24 595 LINE",
"157 634 LINE",
"46 0 LINE",
"377 0 LINE",
"506 740 LINE",
"643 782 LINE",
"676 972 LINE"
);
}
);
width = 643;
}
);
note = lslash;
unicode = 0142;
},
{
glyphname = Eng;
lastChange = "2017-05-20 07:34:14 +0000";
layers = (
{
layerId = "F2BBBF4B-19AF-4944-B5B7-53A37E70F101";
paths = (
{
closed = 1;
nodes = (
"506 919 LINE",
"858 0 LINE",
"856 -8 LINE SMOOTH",
"845 -49 OFFCURVE",
"828 -86 OFFCURVE",
"806 -118 CURVE SMOOTH",
"762 -183 OFFCURVE",
"674 -174 OFFCURVE",
"605 -155 CURVE",
"562 -421 LINE",
"629 -434 OFFCURVE",
"685 -440 OFFCURVE",
"732 -440 CURVE SMOOTH",
"1003 -441 OFFCURVE",
"1164 -266 OFFCURVE",
"1197 -7 CURVE",
"1447 1456 LINE",
"1104 1456 LINE",
"945 539 LINE",
"589 1456 LINE",
"256 1456 LINE",
"4 0 LINE",
"346 0 LINE"
);
}
);
width = 1409;
}
);
note = Eng;
unicode = 014A;
},
{
glyphname = eng;
lastChange = "2017-05-20 07:34:14 +0000";
layers = (
{
layerId = "F2BBBF4B-19AF-4944-B5B7-53A37E70F101";
paths = (
{
closed = 1;
nodes = (
"1046 720 OFFCURVE",
"1044 788 OFFCURVE",
"1033 857 CURVE SMOOTH",
"1010 994 OFFCURVE",
"933 1099 OFFCURVE",
"768 1102 CURVE SMOOTH",
"648 1105 OFFCURVE",
"543 1047 OFFCURVE",
"453 926 CURVE",
"479 1083 LINE",
"170 1082 LINE",
"-18 0 LINE",
"311 0 LINE",
"448 769 LINE",
"507 819 OFFCURVE",
"567 843 OFFCURVE",
"627 841 CURVE SMOOTH",
"727 837 OFFCURVE",
"718 728 OFFCURVE",
"709 653 CURVE",
"601 -9 LINE SMOOTH",
"594 -54 OFFCURVE",
"579 -94 OFFCURVE",
"556 -129 CURVE SMOOTH",
"510 -198 OFFCURVE",
"431 -188 OFFCURVE",
"351 -165 CURVE",
"314 -423 LINE",
"369 -434 OFFCURVE",
"424 -440 OFFCURVE",
"479 -441 CURVE SMOOTH",
"746 -442 OFFCURVE",
"899 -270 OFFCURVE",
"932 -15 CURVE SMOOTH",
"1039 651 LINE"
);
}
);
width = 1117;
}
);
note = eng;
unicode = 014B;
},
{
glyphname = OE;
lastChange = "2017-05-20 07:34:14 +0000";
layers = (
{
layerId = "F2BBBF4B-19AF-4944-B5B7-53A37E70F101";
paths = (
{
closed = 1;
nodes = (
"1234 617 LINE",
"1767 617 LINE",
"1813 878 LINE",
"1278 878 LINE",
"1332 1185 LINE",
"1966 1185 LINE",
"2013 1456 LINE",
"1110 1456 LINE",
"903 1475 LINE",
"830 1477 LINE SMOOTH",
"467 1478 OFFCURVE",
"187 1237 OFFCURVE",
"135 880 CURVE SMOOTH",
"88 576 LINE SMOOTH",
"73 463 OFFCURVE",
"87 362 OFFCURVE",
"129 273 CURVE SMOOTH",
"212 96 OFFCURVE",
"387 -14 OFFCURVE",
"611 -18 CURVE SMOOTH",
"676 -18 LINE",
"894 0 LINE",
"1758 0 LINE",
"1805 270 LINE",
"1173 270 LINE"
);
},
{
closed = 1;
nodes = (
"480 978 OFFCURVE",
"517 1059 OFFCURVE",
"576 1124 CURVE SMOOTH",
"693 1254 OFFCURVE",
"860 1225 OFFCURVE",
"997 1206 CURVE",
"820 251 LINE",
"742 243 OFFCURVE",
"677 240 OFFCURVE",
"626 242 CURVE SMOOTH",
"437 250 OFFCURVE",
"396 411 OFFCURVE",
"417 575 CURVE SMOOTH",
"465 882 LINE SMOOTH"
);
}
);
width = 1935;
}
);
leftKerningGroup = C;
note = OE;
unicode = 0152;
},
{
glyphname = oe;
lastChange = "2017-05-20 07:34:14 +0000";
layers = (
{
layerId = "F2BBBF4B-19AF-4944-B5B7-53A37E70F101";
paths = (
{
closed = 1;
nodes = (
"1433 261 OFFCURVE",
"1333 240 OFFCURVE",
"1250 243 CURVE SMOOTH",
"1134 248 OFFCURVE",
"1083 327 OFFCURVE",
"1084 436 CURVE",
"1685 435 LINE",
"1712 612 LINE SMOOTH",
"1728 746 OFFCURVE",
"1702 860 OFFCURVE",
"1635 955 CURVE SMOOTH",
"1499 1144 OFFCURVE",
"1182 1148 OFFCURVE",
"974 979 CURVE",
"890 1068 OFFCURVE",
"766 1102 OFFCURVE",
"646 1103 CURVE SMOOTH",
"317 1108 OFFCURVE",
"103 862 OFFCURVE",
"64 550 CURVE SMOOTH",
"62 528 LINE SMOOTH",
"47 381 OFFCURVE",
"77 253 OFFCURVE",
"150 146 CURVE SMOOTH",
"296 -69 OFFCURVE",
"645 -66 OFFCURVE",
"864 107 CURVE",
"942 26 OFFCURVE",
"1051 -17 OFFCURVE",
"1192 -20 CURVE SMOOTH",
"1333 -21 OFFCURVE",
"1499 9 OFFCURVE",
"1612 98 CURVE",
"1550 308 LINE"
);
},
{
closed = 1;
nodes = (
"1397 841 OFFCURVE",
"1411 756 OFFCURVE",
"1396 675 CURVE SMOOTH",
"1390 645 LINE",
"1102 645 LINE",
"1135 737 OFFCURVE",
"1183 847 OFFCURVE",
"1298 844 CURVE SMOOTH"
);
},
{
closed = 1;
nodes = (
"385 491 OFFCURVE",
"393 569 OFFCURVE",
"411 636 CURVE SMOOTH",
"446 771 OFFCURVE",
"510 847 OFFCURVE",
"621 843 CURVE SMOOTH",
"721 839 OFFCURVE",
"752 763 OFFCURVE",
"755 674 CURVE SMOOTH",
"756 583 OFFCURVE",
"749 490 OFFCURVE",
"718 398 CURVE SMOOTH",
"687 306 OFFCURVE",
"627 234 OFFCURVE",
"520 238 CURVE SMOOTH",
"420 241 OFFCURVE",
"389 315 OFFCURVE",
"388 403 CURVE SMOOTH"
);
}
);
width = 1790;
}
);
leftKerningGroup = c;
note = oe;
unicode = 0153;
},
{
glyphname = longs;
lastChange = "2017-05-20 07:34:14 +0000";
layers = (
{
layerId = "F2BBBF4B-19AF-4944-B5B7-53A37E70F101";
paths = (
{
closed = 1;
nodes = (
"535 1257 OFFCURVE",
"589 1300 OFFCURVE",
"679 1300 CURVE",
"704 1301 OFFCURVE",
"736 1297 OFFCURVE",
"777 1287 CURVE",
"819 1540 LINE",
"739 1553 OFFCURVE",
"682 1560 OFFCURVE",
"649 1560 CURVE SMOOTH",
"396 1563 OFFCURVE",
"218 1422 OFFCURVE",
"186 1169 CURVE",
"-13 0 LINE",
"316 0 LINE",
"518 1170 LINE SMOOTH"
);
}
);
width = 523;
}
);
note = longs;
unicode = 017F;
},
{
glyphname = uni0181;
lastChange = "2017-05-20 07:34:14 +0000";
layers = (
{
layerId = "F2BBBF4B-19AF-4944-B5B7-53A37E70F101";
paths = (
{
closed = 1;
nodes = (
"111 1003 OFFCURVE",
"113 952 OFFCURVE",
"120 900 CURVE",
"389 899 LINE",
"388 947 LINE SMOOTH",
"383 1066 OFFCURVE",
"444 1174 OFFCURVE",
"561 1189 CURVE",
"347 0 LINE",
"936 0 LINE SMOOTH",
"1035 0 OFFCURVE",
"1127 14 OFFCURVE",
"1212 43 CURVE SMOOTH",
"1383 100 OFFCURVE",
"1502 224 OFFCURVE",
"1515 439 CURVE SMOOTH",
"1523 568 OFFCURVE",
"1470 691 OFFCURVE",
"1342 736 CURVE",
"1416 767 OFFCURVE",
"1475 808 OFFCURVE",
"1520 861 CURVE SMOOTH",
"1608 965 OFFCURVE",
"1628 1181 OFFCURVE",
"1532 1294 CURVE SMOOTH",
"1442 1401 OFFCURVE",
"1284 1454 OFFCURVE",
"1059 1455 CURVE SMOOTH",
"587 1457 LINE",
"587 1456 LINE",
"328 1459 OFFCURVE",
"141 1316 OFFCURVE",
"116 1052 CURVE SMOOTH"
);
},
{
closed = 1;
nodes = (
"1190 1181 OFFCURVE",
"1268 1143 OFFCURVE",
"1248 1018 CURVE SMOOTH",
"1227 883 OFFCURVE",
"1107 848 OFFCURVE",
"986 848 CURVE SMOOTH",
"837 849 LINE",
"895 1185 LINE",
"1081 1184 LINE SMOOTH"
);
},
{
closed = 1;
nodes = (
"1158 323 OFFCURVE",
"1055 270 OFFCURVE",
"942 269 CURVE SMOOTH",
"736 270 LINE",
"797 619 LINE",
"1049 618 LINE",
"1152 613 OFFCURVE",
"1195 554 OFFCURVE",
"1177 443 CURVE SMOOTH"
);
}
);
width = 1625;
}
);
note = uni0181;
unicode = 0181;
},
{
glyphname = uni0183;
lastChange = "2017-05-20 07:34:14 +0000";
layers = (
{
layerId = "F2BBBF4B-19AF-4944-B5B7-53A37E70F101";
paths = (
{
closed = 1;
nodes = (
"330 113 LINE",
"443 -59 OFFCURVE",
"699 -52 OFFCURVE",
"833 58 CURVE SMOOTH",
"967 168 OFFCURVE",
"1033 353 OFFCURVE",
"1056 533 CURVE",
"1058 555 LINE SMOOTH",
"1075 719 OFFCURVE",
"1052 901 OFFCURVE",
"949 1015 CURVE SMOOTH",
"846 1129 OFFCURVE",
"619 1141 OFFCURVE",
"479 994 CURVE",
"553 1345 LINE",
"1017 1345 LINE",
"1050 1536 LINE",
"257 1536 LINE",
"-10 0 LINE",
"288 0 LINE"
);
},
{
closed = 1;
nodes = (
"718 838 OFFCURVE",
"740 759 OFFCURVE",
"737 671 CURVE SMOOTH",
"730 503 OFFCURVE",
"708 388 OFFCURVE",
"672 327 CURVE SMOOTH",
"652 294 OFFCURVE",
"629 270 OFFCURVE",
"604 257 CURVE SMOOTH",
"553 230 OFFCURVE",
"417 214 OFFCURVE",
"373 322 CURVE",
"452 757 LINE",
"499 816 OFFCURVE",
"555 845 OFFCURVE",
"622 842 CURVE SMOOTH"
);
}
);
width = 1118;
}
);
note = uni0183;
rightKerningGroup = b;
unicode = 0183;
},
{
glyphname = uni0184;
lastChange = "2017-05-20 07:34:14 +0000";
layers = (
{
layerId = "F2BBBF4B-19AF-4944-B5B7-53A37E70F101";
paths = (
{
closed = 1;
nodes = (
"1308 592 OFFCURVE",
"1289 677 OFFCURVE",
"1244 745 CURVE SMOOTH",
"1152 881 OFFCURVE",
"984 950 OFFCURVE",
"800 954 CURVE SMOOTH",
"645 955 LINE",
"732 1456 LINE",
"375 1456 LINE",
"171 1303 LINE",
"143 1143 LINE",
"306 979 LINE",
"136 0 LINE",
"681 0 LINE SMOOTH",
"782 1 OFFCURVE",
"878 19 OFFCURVE",
"970 56 CURVE SMOOTH",
"1153 129 OFFCURVE",
"1285 274 OFFCURVE",
"1301 491 CURVE SMOOTH"
);
},
{
closed = 1;
nodes = (
"789 684 LINE SMOOTH",
"904 680 OFFCURVE",
"978 612 OFFCURVE",
"959 493 CURVE SMOOTH",
"939 353 OFFCURVE",
"821 271 OFFCURVE",
"684 268 CURVE SMOOTH",
"526 270 LINE",
"598 685 LINE"
);
}
);
width = 1371;
}
);
note = uni0184;
unicode = 0184;
},
{
glyphname = uni0185;
lastChange = "2017-05-20 07:34:14 +0000";
layers = (
{
layerId = "F2BBBF4B-19AF-4944-B5B7-53A37E70F101";
paths = (
{
closed = 1;
nodes = (
"1202 719 OFFCURVE",
"1179 901 OFFCURVE",
"1076 1015 CURVE SMOOTH",
"973 1129 OFFCURVE",
"748 1141 OFFCURVE",
"605 993 CURVE",
"712 1536 LINE",
"369 1536 LINE",
"167 1383 LINE",
"139 1223 LINE",
"300 1059 LINE",
"116 0 LINE",
"415 0 LINE",
"456 114 LINE",
"571 -59 OFFCURVE",
"826 -52 OFFCURVE",
"960 58 CURVE SMOOTH",
"1094 168 OFFCURVE",
"1162 353 OFFCURVE",
"1183 533 CURVE SMOOTH",
"1185 555 LINE SMOOTH"
);
},
{
closed = 1;
nodes = (
"844 838 OFFCURVE",
"866 759 OFFCURVE",
"863 671 CURVE SMOOTH",
"854 467 OFFCURVE",
"827 350 OFFCURVE",
"767 285 CURVE SMOOTH",
"706 220 OFFCURVE",
"543 213 OFFCURVE",
"500 324 CURVE",
"578 756 LINE",
"625 816 OFFCURVE",
"681 845 OFFCURVE",
"748 842 CURVE SMOOTH"
);
}
);
width = 1245;
}
);
note = uni0185;
rightKerningGroup = b;
unicode = 0185;
},
{
glyphname = uni0186;
lastChange = "2017-05-20 07:34:14 +0000";
layers = (
{
layerId = "F2BBBF4B-19AF-4944-B5B7-53A37E70F101";
paths = (
{
closed = 1;
nodes = (
"37 346 OFFCURVE",
"86 220 OFFCURVE",
"176 125 CURVE SMOOTH",
"356 -64 OFFCURVE",
"710 -58 OFFCURVE",
"905 75 CURVE SMOOTH",
"1100 207 OFFCURVE",
"1216 438 OFFCURVE",
"1253 682 CURVE SMOOTH",
"1264 768 LINE SMOOTH",
"1295 1005 OFFCURVE",
"1242 1234 OFFCURVE",
"1087 1371 CURVE SMOOTH",
"931 1507 OFFCURVE",
"658 1499 OFFCURVE",
"470 1419 CURVE SMOOTH",
"282 1339 OFFCURVE",
"148 1182 OFFCURVE",
"125 962 CURVE",
"465 964 LINE",
"490 1117 OFFCURVE",
"590 1208 OFFCURVE",
"750 1203 CURVE SMOOTH",
"901 1198 OFFCURVE",
"936 1082 OFFCURVE",
"931 949 CURVE SMOOTH",
"924 821 OFFCURVE",
"905 620 OFFCURVE",
"861 484 CURVE SMOOTH",
"816 348 OFFCURVE",
"732 248 OFFCURVE",
"576 253 CURVE SMOOTH",
"412 258 OFFCURVE",
"365 351 OFFCURVE",
"369 504 CURVE",
"28 505 LINE"
);
}
);
width = 1304;
}
);
note = uni0186;
rightKerningGroup = D;
unicode = 0186;
},
{
glyphname = uni0187;
lastChange = "2017-05-20 07:34:14 +0000";
layers = (
{
layerId = "F2BBBF4B-19AF-4944-B5B7-53A37E70F101";
paths = (
{
closed = 1;
nodes = (
"1613 1326 OFFCURVE",
"1643 1322 OFFCURVE",
"1679 1316 CURVE",
"1708 1586 LINE",
"1647 1598 OFFCURVE",
"1592 1604 OFFCURVE",
"1543 1604 CURVE SMOOTH",
"1365 1605 OFFCURVE",
"1228 1531 OFFCURVE",
"1133 1384 CURVE",
"956 1507 OFFCURVE",
"637 1514 OFFCURVE",
"442 1380 CURVE SMOOTH",
"246 1246 OFFCURVE",
"129 1015 OFFCURVE",
"94 767 CURVE SMOOTH",
"83 688 LINE SMOOTH",
"54 449 OFFCURVE",
"105 222 OFFCURVE",
"261 86 CURVE SMOOTH",
"416 -51 OFFCURVE",
"690 -43 OFFCURVE",
"878 37 CURVE SMOOTH",
"1066 117 OFFCURVE",
"1202 274 OFFCURVE",
"1223 494 CURVE",
"883 492 LINE",
"858 339 OFFCURVE",
"759 247 OFFCURVE",
"599 254 CURVE SMOOTH",
"448 259 OFFCURVE",
"411 373 OFFCURVE",
"418 508 CURVE SMOOTH",
"425 699 OFFCURVE",
"449 855 OFFCURVE",
"488 974 CURVE SMOOTH",
"532 1109 OFFCURVE",
"616 1209 OFFCURVE",
"772 1204 CURVE SMOOTH",
"936 1197 OFFCURVE",
"983 1105 OFFCURVE",
"979 952 CURVE",
"1313 953 LINE",
"1352 1180 LINE SMOOTH",
"1376 1296 OFFCURVE",
"1480 1331 OFFCURVE",
"1588 1327 CURVE SMOOTH"
);
}
);
width = 1447;
}
);
leftKerningGroup = C;
note = uni0187;
unicode = 0187;
},
{
glyphname = uni0188;
lastChange = "2017-05-20 07:34:14 +0000";
layers = (
{
layerId = "F2BBBF4B-19AF-4944-B5B7-53A37E70F101";
paths = (
{
closed = 1;
nodes = (
"1260 998 OFFCURVE",
"1286 994 OFFCURVE",
"1311 989 CURVE",
"1332 1206 LINE",
"1279 1217 OFFCURVE",
"1231 1222 OFFCURVE",
"1190 1222 CURVE SMOOTH",
"1044 1223 OFFCURVE",
"931 1162 OFFCURVE",
"852 1040 CURVE",
"782 1081 OFFCURVE",
"700 1103 OFFCURVE",
"607 1104 CURVE SMOOTH",
"282 1108 OFFCURVE",
"82 862 OFFCURVE",
"42 558 CURVE SMOOTH",
"38 527 LINE SMOOTH",
"10 238 OFFCURVE",
"143 -14 OFFCURVE",
"458 -21 CURVE SMOOTH",
"703 -26 OFFCURVE",
"929 130 OFFCURVE",
"942 387 CURVE",
"633 386 LINE",
"618 298 OFFCURVE",
"564 235 OFFCURVE",
"469 239 CURVE SMOOTH",
"374 242 OFFCURVE",
"354 322 OFFCURVE",
"359 413 CURVE SMOOTH",
"366 522 OFFCURVE",
"376 605 OFFCURVE",
"389 662 CURVE SMOOTH",
"416 774 OFFCURVE",
"468 847 OFFCURVE",
"575 843 CURVE SMOOTH",
"676 839 OFFCURVE",
"699 754 OFFCURVE",
"695 667 CURVE",
"998 668 LINE",
"1031 861 LINE",
"1052 960 OFFCURVE",
"1139 1000 OFFCURVE",
"1234 999 CURVE SMOOTH"
);
}
);
width = 1156;
}
);
leftKerningGroup = c;
note = uni0188;
unicode = 0188;
},
{
glyphname = uni018A;
lastChange = "2017-05-20 07:34:14 +0000";
layers = (
{
layerId = "F2BBBF4B-19AF-4944-B5B7-53A37E70F101";
paths = (
{
closed = 1;
nodes = (
"111 1003 OFFCURVE",
"113 952 OFFCURVE",
"120 900 CURVE",
"389 899 LINE",
"388 947 LINE SMOOTH",
"383 1067 OFFCURVE",
"444 1176 OFFCURVE",
"564 1189 CURVE",
"350 0 LINE",
"845 0 LINE SMOOTH",
"1226 5 OFFCURVE",
"1531 298 OFFCURVE",
"1583 706 CURVE SMOOTH",
"1590 762 LINE SMOOTH",
"1603 885 OFFCURVE",
"1590 1000 OFFCURVE",
"1550 1105 CURVE SMOOTH",
"1470 1316 OFFCURVE",
"1292 1454 OFFCURVE",
"1028 1455 CURVE SMOOTH",
"590 1457 LINE",
"590 1456 LINE",
"331 1460 OFFCURVE",
"140 1319 OFFCURVE",
"116 1052 CURVE SMOOTH"
);
},
{
closed = 1;
nodes = (
"1104 1181 OFFCURVE",
"1158 1156 OFFCURVE",
"1191 1111 CURVE SMOOTH",
"1255 1020 OFFCURVE",
"1261 871 OFFCURVE",
"1232 687 CURVE SMOOTH",
"1197 466 OFFCURVE",
"1081 268 OFFCURVE",
"840 269 CURVE SMOOTH",
"739 270 LINE",
"898 1185 LINE",
"1028 1184 LINE SMOOTH"
);
}
);
width = 1633;
}
);
note = uni018A;
rightKerningGroup = D;
unicode = 018A;
},
{
glyphname = uni018B;
lastChange = "2017-05-20 07:34:14 +0000";
layers = (
{
layerId = "F2BBBF4B-19AF-4944-B5B7-53A37E70F101";
paths = (
{
closed = 1;
nodes = (
"349 1456 LINE",
"301 1185 LINE",
"916 1185 LINE",
"875 955 LINE",
"682 956 LINE SMOOTH",
"482 956 OFFCURVE",
"285 889 OFFCURVE",
"161 747 CURVE SMOOTH",
"36 605 OFFCURVE",
"20 356 OFFCURVE",
"109 217 CURVE SMOOTH",
"198 78 OFFCURVE",
"365 6 OFFCURVE",
"553 1 CURVE SMOOTH",
"1052 0 LINE",
"1305 1456 LINE"
);
},
{
closed = 1;
nodes = (
"444 276 OFFCURVE",
"380 358 OFFCURVE",
"397 477 CURVE SMOOTH",
"418 614 OFFCURVE",
"538 685 OFFCURVE",
"670 686 CURVE SMOOTH",
"829 685 LINE",
"757 270 LINE",
"564 271 LINE"
);
}
);
width = 1241;
}
);
note = uni018B;
rightKerningGroup = H;
unicode = 018B;
},
{
glyphname = uni018C;
lastChange = "2017-05-20 07:34:14 +0000";
layers = (
{
layerId = "F2BBBF4B-19AF-4944-B5B7-53A37E70F101";
paths = (
{
closed = 1;
nodes = (
"752 987 LINE",
"635 1135 OFFCURVE",
"402 1134 OFFCURVE",
"268 1023 CURVE SMOOTH",
"134 911 OFFCURVE",
"64 726 OFFCURVE",
"41 547 CURVE",
"39 525 LINE SMOOTH",
"22 365 OFFCURVE",
"49 184 OFFCURVE",
"151 69 CURVE SMOOTH",
"253 -47 OFFCURVE",
"483 -70 OFFCURVE",
"642 117 CURVE",
"628 0 LINE",
"922 0 LINE",
"1188 1536 LINE",
"393 1536 LINE",
"359 1345 LINE",
"824 1345 LINE"
);
},
{
closed = 1;
nodes = (
"380 630 OFFCURVE",
"407 733 OFFCURVE",
"468 798 CURVE SMOOTH",
"528 863 OFFCURVE",
"678 871 OFFCURVE",
"722 750 CURVE",
"647 332 LINE",
"597 269 OFFCURVE",
"539 238 OFFCURVE",
"474 240 CURVE SMOOTH",
"382 244 OFFCURVE",
"359 325 OFFCURVE",
"362 414 CURVE SMOOTH",
"368 526 LINE",
"371 547 LINE SMOOTH"
);
}
);
width = 1117;
}
);
note = uni018C;
unicode = 018C;
},
{
glyphname = uni018D;
lastChange = "2017-05-20 07:34:14 +0000";
layers = (
{
layerId = "F2BBBF4B-19AF-4944-B5B7-53A37E70F101";
paths = (
{
closed = 1;
nodes = (
"769 -162 OFFCURVE",
"729 -115 OFFCURVE",
"688 -68 CURVE SMOOTH",
"647 -22 OFFCURVE",
"611 27 OFFCURVE",
"580 79 CURVE",
"629 81 LINE",
"862 109 OFFCURVE",
"1043 333 OFFCURVE",
"1068 614 CURVE SMOOTH",
"1092 902 OFFCURVE",
"911 1097 OFFCURVE",
"622 1102 CURVE SMOOTH",
"301 1109 OFFCURVE",
"80 878 OFFCURVE",
"45 569 CURVE SMOOTH",
"42 547 LINE",
"22 320 OFFCURVE",
"155 108 OFFCURVE",
"343 -52 CURVE SMOOTH",
"366 -71 OFFCURVE",
"386 -92 OFFCURVE",
"405 -114 CURVE",
"23 -115 LINE",
"-23 -375 LINE",
"783 -375 LINE",
"807 -209 LINE"
);
},
{
closed = 1;
nodes = (
"740 524 OFFCURVE",
"700 234 OFFCURVE",
"499 242 CURVE",
"459 250 LINE",
"372 323 OFFCURVE",
"359 441 OFFCURVE",
"370 548 CURVE SMOOTH",
"372 569 LINE",
"389 697 OFFCURVE",
"445 849 OFFCURVE",
"600 844 CURVE SMOOTH",
"696 841 OFFCURVE",
"728 774 OFFCURVE",
"732 693 CURVE SMOOTH"
);
}
);
width = 1117;
}
);
note = uni018D;
unicode = 018D;
},
{
glyphname = uni018E;
lastChange = "2017-05-20 07:34:14 +0000";
layers = (
{
layerId = "F2BBBF4B-19AF-4944-B5B7-53A37E70F101";
paths = (
{
closed = 1;
nodes = (
"704 839 LINE",
"170 839 LINE",
"124 578 LINE",
"659 578 LINE",
"605 271 LINE",
"-27 271 LINE",
"-75 0 LINE",
"901 0 LINE",
"1154 1456 LINE",
"180 1456 LINE",
"132 1186 LINE",
"764 1186 LINE"
);
}
);
width = 1112;
}
);
note = uni018E;
rightKerningGroup = H;
unicode = 018E;
},
{
glyphname = uni018F;
lastChange = "2017-05-20 07:34:14 +0000";
layers = (
{
layerId = "F2BBBF4B-19AF-4944-B5B7-53A37E70F101";
paths = (
{
closed = 1;
nodes = (
"963 -26 OFFCURVE",
"1255 250 OFFCURVE",
"1315 659 CURVE SMOOTH",
"1337 811 LINE SMOOTH",
"1388 1206 OFFCURVE",
"1146 1472 OFFCURVE",
"751 1476 CURVE SMOOTH",
"615 1477 OFFCURVE",
"410 1474 OFFCURVE",
"286 1406 CURVE",
"308 1120 LINE",
"445 1161 OFFCURVE",
"580 1180 OFFCURVE",
"711 1177 CURVE SMOOTH",
"918 1173 OFFCURVE",
"1030 1053 OFFCURVE",
"998 846 CURVE",
"108 847 LINE",
"79 670 LINE SMOOTH",
"63 546 OFFCURVE",
"71 432 OFFCURVE",
"104 329 CURVE SMOOTH",
"168 121 OFFCURVE",
"332 -17 OFFCURVE",
"599 -21 CURVE SMOOTH"
);
},
{
closed = 1;
nodes = (
"462 279 OFFCURVE",
"373 378 OFFCURVE",
"402 538 CURVE",
"410 572 LINE",
"963 573 LINE",
"906 418 OFFCURVE",
"806 270 OFFCURVE",
"622 275 CURVE SMOOTH"
);
}
);
width = 1387;
}
);
note = uni018F;
rightKerningGroup = D;
unicode = 018F;
},
{
glyphname = uni0190;
lastChange = "2017-05-20 07:34:14 +0000";
layers = (
{
layerId = "F2BBBF4B-19AF-4944-B5B7-53A37E70F101";
paths = (
{
closed = 1;
nodes = (
"451 883 OFFCURVE",
"522 1120 OFFCURVE",
"615 1169 CURVE SMOOTH",
"708 1218 OFFCURVE",
"920 1248 OFFCURVE",
"917 1060 CURVE",
"1256 1059 LINE",
"1256 1194 OFFCURVE",
"1209 1296 OFFCURVE",
"1114 1367 CURVE SMOOTH",
"925 1507 OFFCURVE",
"691 1493 OFFCURVE",
"515 1437 CURVE SMOOTH",
"339 1381 OFFCURVE",
"207 1259 OFFCURVE",
"196 1052 CURVE SMOOTH",
"191 925 OFFCURVE",
"253 821 OFFCURVE",
"358 753 CURVE",
"191 692 OFFCURVE",
"70 587 OFFCURVE",
"58 400 CURVE SMOOTH",
"45 196 OFFCURVE",
"153 78 OFFCURVE",
"313 23 CURVE SMOOTH",
"473 -32 OFFCURVE",
"656 -38 OFFCURVE",
"831 21 CURVE SMOOTH",
"1006 80 OFFCURVE",
"1138 204 OFFCURVE",
"1150 405 CURVE",
"807 404 LINE",
"787 293 OFFCURVE",
"689 245 OFFCURVE",
"584 248 CURVE SMOOTH",
"480 249 OFFCURVE",
"391 291 OFFCURVE",
"406 407 CURVE SMOOTH",
"423 550 OFFCURVE",
"517 614 OFFCURVE",
"656 614 CURVE SMOOTH",
"819 613 LINE",
"865 873 LINE",
"666 874 LINE"
);
}
);
width = 1250;
}
);
note = uni0190;
unicode = 0190;
},
{
glyphname = uni0191;
lastChange = "2017-05-20 07:34:14 +0000";
layers = (
{
layerId = "F2BBBF4B-19AF-4944-B5B7-53A37E70F101";
paths = (
{
closed = 1;
nodes = (
"97 -116 OFFCURVE",
"45 -166 OFFCURVE",
"-42 -163 CURVE SMOOTH",
"-64 -163 OFFCURVE",
"-92 -158 OFFCURVE",
"-127 -148 CURVE",
"-171 -421 LINE",
"-110 -433 OFFCURVE",
"-54 -439 OFFCURVE",
"-4 -439 CURVE SMOOTH",
"261 -442 OFFCURVE",
"425 -271 OFFCURVE",
"458 -15 CURVE",
"558 580 LINE",
"1106 580 LINE",
"1154 850 LINE",
"604 850 LINE",
"663 1185 LINE",
"1266 1185 LINE",
"1314 1456 LINE",
"367 1456 LINE",
"114 -14 LINE SMOOTH"
);
}
);
width = 1200;
}
);
note = uni0191;
unicode = 0191;
},
{
glyphname = florin;
lastChange = "2017-05-20 07:34:14 +0000";
layers = (
{
layerId = "F2BBBF4B-19AF-4944-B5B7-53A37E70F101";
paths = (
{
closed = 1;
nodes = (
"579 1170 LINE",
"596 1256 OFFCURVE",
"648 1299 OFFCURVE",
"736 1300 CURVE SMOOTH",
"764 1300 OFFCURVE",
"796 1296 OFFCURVE",
"833 1287 CURVE",
"878 1538 LINE",
"805 1552 OFFCURVE",
"748 1559 OFFCURVE",
"707 1559 CURVE SMOOTH",
"455 1562 OFFCURVE",
"276 1425 OFFCURVE",
"247 1170 CURVE SMOOTH",
"236 1082 LINE",
"84 1082 LINE",
"47 848 LINE",
"200 848 LINE",
"64 -35 LINE SMOOTH",
"57 -78 OFFCURVE",
"45 -113 OFFCURVE",
"26 -140 CURVE SMOOTH",
"-12 -195 OFFCURVE",
"-89 -185 OFFCURVE",
"-156 -165 CURVE",
"-195 -421 LINE",
"-136 -432 OFFCURVE",
"-81 -439 OFFCURVE",
"-29 -440 CURVE SMOOTH",
"223 -441 OFFCURVE",
"366 -275 OFFCURVE",
"395 -35 CURVE SMOOTH",
"530 848 LINE",
"737 848 LINE",
"774 1082 LINE",
"566 1082 LINE"
);
}
);
width = 735;
}
);
note = florin;
unicode = 0192;
},
{
glyphname = uni0193;
lastChange = "2017-05-20 07:34:14 +0000";
layers = (
{
layerId = "F2BBBF4B-19AF-4944-B5B7-53A37E70F101";
paths = (
{
closed = 1;
nodes = (
"1376 1239 OFFCURVE",
"1405 1278 OFFCURVE",
"1451 1299 CURVE SMOOTH",
"1543 1340 OFFCURVE",
"1622 1328 OFFCURVE",
"1690 1316 CURVE",
"1720 1586 LINE",
"1659 1598 OFFCURVE",
"1603 1604 OFFCURVE",
"1554 1604 CURVE SMOOTH",
"1382 1605 OFFCURVE",
"1248 1535 OFFCURVE",
"1151 1396 CURVE",
"982 1503 OFFCURVE",
"659 1513 OFFCURVE",
"460 1381 CURVE SMOOTH",
"260 1249 OFFCURVE",
"141 1020 OFFCURVE",
"106 767 CURVE SMOOTH",
"95 687 LINE SMOOTH",
"80 564 OFFCURVE",
"88 450 OFFCURVE",
"119 343 CURVE SMOOTH",
"181 130 OFFCURVE",
"343 -16 OFFCURVE",
"612 -20 CURVE SMOOTH",
"807 -21 OFFCURVE",
"1063 23 OFFCURVE",
"1199 179 CURVE",
"1294 778 LINE",
"715 778 LINE",
"673 537 LINE",
"910 537 LINE",
"865 310 LINE",
"742 229 OFFCURVE",
"549 230 OFFCURVE",
"486 325 CURVE SMOOTH",
"423 420 OFFCURVE",
"433 534 OFFCURVE",
"436 601 CURVE SMOOTH",
"439 668 OFFCURVE",
"453 827 OFFCURVE",
"505 967 CURVE SMOOTH",
"556 1106 OFFCURVE",
"651 1215 OFFCURVE",
"807 1208 CURVE SMOOTH",
"951 1203 OFFCURVE",
"996 1112 OFFCURVE",
"1007 980 CURVE",
"1330 981 LINE",
"1364 1180 LINE SMOOTH"
);
}
);
width = 1456;
}
);
leftKerningGroup = C;
note = uni0193;
unicode = 0193;
},
{
glyphname = uni0194;
lastChange = "2017-05-20 07:34:14 +0000";
layers = (
{
layerId = "F2BBBF4B-19AF-4944-B5B7-53A37E70F101";
paths = (
{
closed = 1;
nodes = (
"935 -52 OFFCURVE",
"920 37 OFFCURVE",
"885 128 CURVE SMOOTH",
"850 219 OFFCURVE",
"823 306 OFFCURVE",
"804 388 CURVE",
"1489 1456 LINE",
"1076 1456 LINE",
"708 793 LINE",
"566 1456 LINE",
"181 1455 LINE",
"486 391 LINE",
"454 345 OFFCURVE",
"413 291 OFFCURVE",
"364 229 CURVE SMOOTH",
"315 166 OFFCURVE",
"270 102 OFFCURVE",
"231 36 CURVE SMOOTH",
"151 -97 OFFCURVE",
"142 -234 OFFCURVE",
"214 -317 CURVE SMOOTH",
"285 -400 OFFCURVE",
"408 -436 OFFCURVE",
"523 -439 CURVE SMOOTH",
"716 -442 OFFCURVE",
"918 -354 OFFCURVE",
"930 -138 CURVE SMOOTH"
);
},
{
closed = 1;
nodes = (
"528 -105 OFFCURVE",
"540 -68 OFFCURVE",
"561 -29 CURVE SMOOTH",
"599 40 LINE",
"614 -47 LINE SMOOTH",
"623 -103 OFFCURVE",
"618 -212 OFFCURVE",
"549 -209 CURVE SMOOTH",
"532 -208 OFFCURVE",
"523 -199 OFFCURVE",
"522 -182 CURVE",
"523 -139 LINE"
);
}
);
width = 1364;
}
);
note = uni0194;
unicode = 0194;
},
{
glyphname = uni0195;
lastChange = "2017-05-20 07:34:14 +0000";
layers = (
{
layerId = "F2BBBF4B-19AF-4944-B5B7-53A37E70F101";
paths = (
{
closed = 1;
nodes = (
"639 1105 OFFCURVE",
"546 1059 OFFCURVE",
"464 965 CURVE",
"576 1536 LINE",
"247 1536 LINE",
"-20 0 LINE",
"309 0 LINE",
"447 777 LINE",
"492 822 OFFCURVE",
"544 843 OFFCURVE",
"603 841 CURVE SMOOTH",
"720 838 OFFCURVE",
"722 757 OFFCURVE",
"709 660 CURVE SMOOTH",
"675 422 LINE",
"644 133 OFFCURVE",
"793 -16 OFFCURVE",
"1078 -21 CURVE SMOOTH",
"1383 -27 OFFCURVE",
"1556 121 OFFCURVE",
"1595 422 CURVE",
"1706 1082 LINE",
"1377 1082 LINE",
"1265 420 LINE SMOOTH",
"1249 325 OFFCURVE",
"1204 235 OFFCURVE",
"1100 239 CURVE SMOOTH",
"1000 243 OFFCURVE",
"997 340 OFFCURVE",
"1006 419 CURVE SMOOTH",
"1041 660 LINE SMOOTH",
"1050 735 OFFCURVE",
"1048 806 OFFCURVE",
"1034 873 CURVE SMOOTH",
"1005 1007 OFFCURVE",
"917 1099 OFFCURVE",
"744 1102 CURVE SMOOTH"
);
}
);
width = 1710;
}
);
note = uni0195;
unicode = 0195;
},
{
glyphname = uni0198;
lastChange = "2017-05-20 07:34:14 +0000";
layers = (
{
layerId = "F2BBBF4B-19AF-4944-B5B7-53A37E70F101";
paths = (
{
closed = 1;
nodes = (
"844 808 LINE",
"1023 1045 LINE SMOOTH",
"1076 1116 OFFCURVE",
"1133 1202 OFFCURVE",
"1212 1199 CURVE",
"1236 1195 LINE",
"1279 1175 LINE",
"1428 1418 LINE",
"1332 1458 OFFCURVE",
"1248 1479 OFFCURVE",
"1175 1480 CURVE SMOOTH",
"979 1483 OFFCURVE",
"862 1335 OFFCURVE",
"757 1188 CURVE SMOOTH",
"635 1012 LINE",
"486 822 LINE",
"597 1456 LINE",
"254 1456 LINE",
"2 0 LINE",
"344 0 LINE",
"409 371 LINE",
"586 538 LINE",
"792 0 LINE",
"1182 0 LINE"
);
}
);
width = 1271;
}
);
note = uni0198;
rightKerningGroup = K;
unicode = 0198;
},
{
glyphname = uni0199;
lastChange = "2017-05-20 07:34:14 +0000";
layers = (
{
layerId = "F2BBBF4B-19AF-4944-B5B7-53A37E70F101";
paths = (
{
closed = 1;
nodes = (
"828 1543 LINE",
"769 1554 OFFCURVE",
"707 1560 OFFCURVE",
"643 1560 CURVE SMOOTH",
"391 1563 OFFCURVE",
"226 1454 OFFCURVE",
"194 1198 CURVE",
"-10 0 LINE",
"319 0 LINE",
"370 296 LINE",
"490 400 LINE",
"647 0 LINE",
"1009 0 LINE",
"729 622 LINE",
"1189 1081 LINE",
"773 1082 LINE",
"474 765 LINE",
"434 718 LINE",
"526 1198 LINE SMOOTH",
"547 1297 OFFCURVE",
"633 1337 OFFCURVE",
"728 1336 CURVE",
"807 1326 LINE"
);
}
);
width = 1086;
}
);
note = uni0199;
unicode = 0199;
},
{
glyphname = uni019B;
lastChange = "2017-05-20 07:34:14 +0000";
layers = (
{
layerId = "F2BBBF4B-19AF-4944-B5B7-53A37E70F101";
paths = (
{
closed = 1;
nodes = (
"993 243 LINE",
"944 248 OFFCURVE",
"930 288 OFFCURVE",
"911 371 CURVE SMOOTH",
"748 1122 LINE",
"864 1157 LINE",
"901 1371 LINE",
"707 1312 LINE",
"689 1381 LINE",
"671 1440 OFFCURVE",
"639 1483 OFFCURVE",
"593 1511 CURVE SMOOTH",
"500 1567 OFFCURVE",
"368 1565 OFFCURVE",
"252 1533 CURVE",
"237 1290 LINE",
"306 1293 LINE",
"360 1290 OFFCURVE",
"394 1266 OFFCURVE",
"407 1219 CURVE",
"286 1183 LINE",
"243 970 LINE",
"414 1018 LINE",
"-118 0 LINE",
"246 0 LINE",
"536 613 LINE",
"603 214 LINE",
"636 67 OFFCURVE",
"743 -12 OFFCURVE",
"891 -17 CURVE SMOOTH",
"948 -18 LINE",
"1004 -15 LINE",
"1031 242 LINE"
);
}
);
width = 1083;
}
);
note = uni019B;
unicode = 019B;
},
{
glyphname = uni019C;
lastChange = "2017-05-20 07:34:14 +0000";
layers = (
{
layerId = "F2BBBF4B-19AF-4944-B5B7-53A37E70F101";
paths = (
{
closed = 1;
nodes = (
"1826 1456 LINE",
"1496 1456 LINE",
"1296 318 LINE",
"1241 263 OFFCURVE",
"1182 238 OFFCURVE",
"1119 241 CURVE SMOOTH",
"1022 245 OFFCURVE",
"1021 343 OFFCURVE",
"1030 419 CURVE",
"1207 1456 LINE",
"878 1456 LINE",
"696 411 LINE",
"685 326 LINE",
"631 266 OFFCURVE",
"570 237 OFFCURVE",
"501 240 CURVE SMOOTH",
"404 245 OFFCURVE",
"403 342 OFFCURVE",
"412 418 CURVE",
"588 1456 LINE",
"259 1456 LINE",
"85 422 LINE",
"77 345 OFFCURVE",
"79 274 OFFCURVE",
"92 207 CURVE SMOOTH",
"117 73 OFFCURVE",
"201 -18 OFFCURVE",
"376 -22 CURVE SMOOTH",
"510 -25 OFFCURVE",
"625 32 OFFCURVE",
"720 149 CURVE",
"760 28 OFFCURVE",
"878 -19 OFFCURVE",
"997 -20 CURVE SMOOTH",
"1114 -22 OFFCURVE",
"1214 24 OFFCURVE",
"1297 117 CURVE",
"1284 0 LINE",
"1573 0 LINE"
);
}
);
width = 1790;
}
);
note = uni019C;
rightKerningGroup = H;
unicode = 019C;
},
{
glyphname = uni019D;
lastChange = "2017-05-20 07:34:14 +0000";
layers = (
{
layerId = "F2BBBF4B-19AF-4944-B5B7-53A37E70F101";
paths = (
{
closed = 1;
nodes = (
"1549 1456 LINE",
"1207 1456 LINE",
"1047 537 LINE",
"700 1456 LINE",
"367 1456 LINE",
"114 -14 LINE SMOOTH",
"97 -116 OFFCURVE",
"45 -166 OFFCURVE",
"-42 -163 CURVE SMOOTH",
"-64 -163 OFFCURVE",
"-92 -158 OFFCURVE",
"-127 -148 CURVE",
"-171 -421 LINE",
"-110 -433 OFFCURVE",
"-54 -439 OFFCURVE",
"-5 -439 CURVE SMOOTH",
"262 -442 OFFCURVE",
"425 -270 OFFCURVE",
"458 -14 CURVE",
"617 919 LINE",
"965 0 LINE",
"1296 0 LINE"
);
}
);
width = 1510;
}
);
note = uni019D;
rightKerningGroup = H;
unicode = 019D;
},
{
glyphname = Ohorn;
lastChange = "2017-05-20 07:34:14 +0000";
layers = (
{
layerId = "F2BBBF4B-19AF-4944-B5B7-53A37E70F101";
paths = (
{
closed = 1;
nodes = (
"782 -24 OFFCURVE",
"927 30 OFFCURVE",
"1059 154 CURVE SMOOTH",
"1191 277 OFFCURVE",
"1285 466 OFFCURVE",
"1320 667 CURVE SMOOTH",
"1355 868 OFFCURVE",
"1343 1002 OFFCURVE",
"1326 1125 CURVE",
"1522 1192 OFFCURVE",
"1583 1364 OFFCURVE",
"1598 1557 CURVE",
"1402 1556 LINE",
"1387 1441 OFFCURVE",
"1367 1316 OFFCURVE",
"1246 1271 CURVE",
"1196 1340 OFFCURVE",
"1133 1391 OFFCURVE",
"1058 1424 CURVE SMOOTH",
"906 1491 OFFCURVE",
"664 1514 OFFCURVE",
"460 1379 CURVE SMOOTH",
"256 1244 OFFCURVE",
"131 1010 OFFCURVE",
"96 758 CURVE SMOOTH",
"89 698 LINE SMOOTH",
"74 579 OFFCURVE",
"83 465 OFFCURVE",
"114 356 CURVE SMOOTH",
"177 139 OFFCURVE",
"335 -15 OFFCURVE",
"603 -20 CURVE SMOOTH"
);
},
{
closed = 1;
nodes = (
"994 768 OFFCURVE",
"971 618 OFFCURVE",
"923 490 CURVE SMOOTH",
"871 351 OFFCURVE",
"779 246 OFFCURVE",
"623 253 CURVE SMOOTH",
"475 258 OFFCURVE",
"429 378 OFFCURVE",
"428 515 CURVE SMOOTH",
"426 686 OFFCURVE",
"449 835 OFFCURVE",
"496 964 CURVE SMOOTH",
"547 1103 OFFCURVE",
"639 1209 OFFCURVE",
"799 1202 CURVE SMOOTH",
"944 1195 OFFCURVE",
"991 1076 OFFCURVE",
"992 941 CURVE SMOOTH"
);
}
);
width = 1411;
}
);
leftKerningGroup = C;
note = Ohorn;
unicode = 01A0;
},
{
glyphname = ohorn;
lastChange = "2017-05-20 07:34:14 +0000";
layers = (
{
layerId = "F2BBBF4B-19AF-4944-B5B7-53A37E70F101";
paths = (
{
closed = 1;
nodes = (
"799 -27 OFFCURVE",
"1007 216 OFFCURVE",
"1050 523 CURVE SMOOTH",
"1054 553 LINE SMOOTH",
"1065 644 OFFCURVE",
"1062 735 OFFCURVE",
"1047 826 CURVE",
"1192 898 OFFCURVE",
"1248 1021 OFFCURVE",
"1260 1178 CURVE",
"1081 1177 LINE",
"1068 1088 OFFCURVE",
"1048 1008 OFFCURVE",
"977 947 CURVE",
"889 1055 OFFCURVE",
"756 1100 OFFCURVE",
"620 1103 CURVE SMOOTH",
"291 1108 OFFCURVE",
"75 862 OFFCURVE",
"38 549 CURVE SMOOTH",
"36 527 LINE SMOOTH",
"7 232 OFFCURVE",
"155 -13 OFFCURVE",
"471 -20 CURVE SMOOTH"
);
},
{
closed = 1;
nodes = (
"379 629 OFFCURVE",
"405 733 OFFCURVE",
"468 798 CURVE SMOOTH",
"531 862 OFFCURVE",
"661 857 OFFCURVE",
"698 790 CURVE SMOOTH",
"735 723 OFFCURVE",
"730 631 OFFCURVE",
"721 532 CURVE",
"710 447 OFFCURVE",
"684 345 OFFCURVE",
"621 282 CURVE SMOOTH",
"558 219 OFFCURVE",
"429 224 OFFCURVE",
"392 289 CURVE SMOOTH",
"355 353 OFFCURVE",
"359 445 OFFCURVE",
"368 544 CURVE"
);
}
);
width = 1163;
}
);
leftKerningGroup = c;
note = ohorn;
unicode = 01A1;
},
{
glyphname = uni01A2;
lastChange = "2017-05-20 07:34:14 +0000";
layers = (
{
layerId = "F2BBBF4B-19AF-4944-B5B7-53A37E70F101";
paths = (
{
closed = 1;
nodes = (
"795 -23 OFFCURVE",
"1045 25 OFFCURVE",
"1180 181 CURVE",
"1312 985 LINE",
"1469 1052 LINE",
"1214 -417 LINE",
"1543 -417 LINE",
"1868 1456 LINE",
"1604 1456 LINE",
"1300 1326 LINE",
"1236 1383 OFFCURVE",
"1161 1422 OFFCURVE",
"1074 1444 CURVE SMOOTH",
"901 1487 OFFCURVE",
"664 1511 OFFCURVE",
"461 1386 CURVE SMOOTH",
"258 1261 OFFCURVE",
"133 1035 OFFCURVE",
"96 778 CURVE SMOOTH",
"84 686 LINE SMOOTH",
"69 564 OFFCURVE",
"77 450 OFFCURVE",
"108 343 CURVE SMOOTH",
"170 130 OFFCURVE",
"329 -15 OFFCURVE",
"600 -19 CURVE SMOOTH"
);
},
{
closed = 1;
nodes = (
"913 1207 OFFCURVE",
"975 1185 OFFCURVE",
"1014 1144 CURVE",
"861 314 LINE",
"730 226 OFFCURVE",
"535 230 OFFCURVE",
"475 327 CURVE SMOOTH",
"414 423 OFFCURVE",
"419 572 OFFCURVE",
"432 685 CURVE SMOOTH",
"444 771 LINE SMOOTH",
"455 847 OFFCURVE",
"474 919 OFFCURVE",
"501 986 CURVE SMOOTH",
"556 1120 OFFCURVE",
"654 1214 OFFCURVE",
"826 1209 CURVE SMOOTH"
);
}
);
width = 1827;
}
);
leftKerningGroup = C;
note = uni01A2;
rightKerningGroup = H;
unicode = 01A2;
},
{
glyphname = uni01A3;
lastChange = "2017-05-20 07:34:14 +0000";
layers = (
{
layerId = "F2BBBF4B-19AF-4944-B5B7-53A37E70F101";
paths = (
{
closed = 1;
nodes = (
"1225 -417 LINE",
"1485 1082 LINE",
"1253 1082 LINE",
"941 958 LINE",
"858 1054 OFFCURVE",
"733 1100 OFFCURVE",
"608 1103 CURVE SMOOTH",
"280 1110 OFFCURVE",
"78 857 OFFCURVE",
"41 550 CURVE",
"39 526 LINE SMOOTH",
"8 237 OFFCURVE",
"143 -13 OFFCURVE",
"458 -20 CURVE SMOOTH",
"651 -24 OFFCURVE",
"827 46 OFFCURVE",
"928 217 CURVE",
"997 681 LINE",
"1093 716 LINE",
"896 -417 LINE"
);
},
{
closed = 1;
nodes = (
"370 244 OFFCURVE",
"351 324 OFFCURVE",
"358 413 CURVE SMOOTH",
"368 527 LINE",
"381 622 OFFCURVE",
"396 690 OFFCURVE",
"415 731 CURVE SMOOTH",
"433 772 OFFCURVE",
"455 801 OFFCURVE",
"482 819 CURVE SMOOTH",
"534 855 OFFCURVE",
"643 860 OFFCURVE",
"690 785 CURVE",
"597 287 LINE",
"555 254 OFFCURVE",
"511 239 OFFCURVE",
"466 241 CURVE SMOOTH"
);
}
);
width = 1494;
}
);
note = uni01A3;
unicode = 01A3;
},
{
glyphname = uni01A4;
lastChange = "2017-05-20 07:34:14 +0000";
layers = (
{
layerId = "F2BBBF4B-19AF-4944-B5B7-53A37E70F101";
paths = (
{
closed = 1;
nodes = (
"111 1003 OFFCURVE",
"113 952 OFFCURVE",
"120 900 CURVE",
"389 899 LINE",
"388 947 LINE SMOOTH",
"383 1066 OFFCURVE",
"444 1174 OFFCURVE",
"561 1189 CURVE",
"347 0 LINE",
"690 0 LINE",
"776 494 LINE",
"1016 493 LINE SMOOTH",
"1115 493 OFFCURVE",
"1210 510 OFFCURVE",
"1300 545 CURVE SMOOTH",
"1480 613 OFFCURVE",
"1610 754 OFFCURVE",
"1627 970 CURVE SMOOTH",
"1651 1269 OFFCURVE",
"1428 1451 OFFCURVE",
"1145 1455 CURVE SMOOTH",
"587 1457 LINE",
"587 1456 LINE",
"330 1459 OFFCURVE",
"140 1316 OFFCURVE",
"116 1052 CURVE SMOOTH"
);
},
{
closed = 1;
nodes = (
"1256 1177 OFFCURVE",
"1297 1079 OFFCURVE",
"1281 967 CURVE SMOOTH",
"1261 834 OFFCURVE",
"1158 764 OFFCURVE",
"1029 763 CURVE SMOOTH",
"822 765 LINE",
"895 1185 LINE",
"1135 1184 LINE"
);
}
);
width = 1639;
}
);
note = uni01A4;
rightKerningGroup = P;
unicode = 01A4;
},
{
glyphname = uni01A5;
lastChange = "2017-05-20 07:34:14 +0000";
layers = (
{
layerId = "F2BBBF4B-19AF-4944-B5B7-53A37E70F101";
paths = (
{
closed = 1;
nodes = (
"669 -24 OFFCURVE",
"748 -1 OFFCURVE",
"813 48 CURVE SMOOTH",
"944 146 OFFCURVE",
"1026 316 OFFCURVE",
"1059 557 CURVE",
"1075 718 OFFCURVE",
"1050 901 OFFCURVE",
"948 1015 CURVE SMOOTH",
"846 1129 OFFCURVE",
"619 1140 OFFCURVE",
"479 995 CURVE",
"497 1065 LINE SMOOTH",
"511 1113 OFFCURVE",
"537 1148 OFFCURVE",
"576 1169 CURVE SMOOTH",
"653 1212 OFFCURVE",
"707 1202 OFFCURVE",
"783 1190 CURVE",
"804 1407 LINE",
"744 1417 OFFCURVE",
"683 1422 OFFCURVE",
"620 1423 CURVE SMOOTH",
"379 1427 OFFCURVE",
"214 1330 OFFCURVE",
"169 1082 CURVE",
"169 1083 LINE",
"-82 -416 LINE",
"247 -416 LINE",
"345 91 LINE",
"403 19 OFFCURVE",
"479 -18 OFFCURVE",
"574 -21 CURVE SMOOTH"
);
},
{
closed = 1;
nodes = (
"715 837 OFFCURVE",
"737 757 OFFCURVE",
"736 669 CURVE SMOOTH",
"731 518 OFFCURVE",
"710 408 OFFCURVE",
"672 339 CURVE SMOOTH",
"596 201 OFFCURVE",
"419 211 OFFCURVE",
"375 327 CURVE",
"452 757 LINE",
"498 816 OFFCURVE",
"555 845 OFFCURVE",
"624 842 CURVE SMOOTH"
);
}
);
width = 1118;
}
);
note = uni01A5;
unicode = 01A5;
},
{
glyphname = uni01A6;
lastChange = "2017-05-20 07:34:14 +0000";
layers = (
{
layerId = "F2BBBF4B-19AF-4944-B5B7-53A37E70F101";
paths = (
{
closed = 1;
nodes = (
"1148 680 OFFCURVE",
"1253 821 OFFCURVE",
"1268 1024 CURVE SMOOTH",
"1289 1319 OFFCURVE",
"1060 1450 OFFCURVE",
"793 1455 CURVE SMOOTH",
"596 1456 LINE",
"615 1560 LINE",
"273 1561 LINE",
"252 1455 LINE",
"250 1455 LINE",
"2 0 LINE",
"344 0 LINE",
"434 514 LINE",
"623 514 LINE",
"891 -349 LINE",
"1256 -352 LINE",
"1256 -332 LINE",
"952 599 LINE"
);
},
{
closed = 1;
nodes = (
"895 1179 OFFCURVE",
"938 1100 OFFCURVE",
"923 992 CURVE SMOOTH",
"904 861 OFFCURVE",
"811 784 OFFCURVE",
"680 783 CURVE SMOOTH",
"480 785 LINE",
"550 1185 LINE",
"782 1184 LINE"
);
}
);
width = 1375;
}
);
note = uni01A6;
unicode = 01A6;
},
{
glyphname = uni01A7;
lastChange = "2017-05-20 07:34:14 +0000";
layers = (
{
layerId = "F2BBBF4B-19AF-4944-B5B7-53A37E70F101";
paths = (
{
closed = 1;
nodes = (
"396 520 OFFCURVE",
"564 565 OFFCURVE",
"679 601 CURVE SMOOTH",
"755 625 OFFCURVE",
"834 656 OFFCURVE",
"916 693 CURVE SMOOTH",
"1079 768 OFFCURVE",
"1208 883 OFFCURVE",
"1220 1075 CURVE SMOOTH",
"1231 1260 OFFCURVE",
"1118 1376 OFFCURVE",
"963 1433 CURVE SMOOTH",
"807 1489 OFFCURVE",
"630 1496 OFFCURVE",
"458 1428 CURVE SMOOTH",
"286 1360 OFFCURVE",
"161 1224 OFFCURVE",
"149 1023 CURVE",
"490 1024 LINE",
"507 1144 OFFCURVE",
"594 1217 OFFCURVE",
"717 1214 CURVE SMOOTH",
"801 1213 OFFCURVE",
"897 1172 OFFCURVE",
"878 1073 CURVE SMOOTH",
"865 1002 OFFCURVE",
"801 947 OFFCURVE",
"687 908 CURVE SMOOTH",
"567 869 LINE SMOOTH",
"487 844 OFFCURVE",
"407 812 OFFCURVE",
"328 774 CURVE SMOOTH",
"168 697 OFFCURVE",
"44 575 OFFCURVE",
"32 382 CURVE SMOOTH",
"19 194 OFFCURVE",
"121 79 OFFCURVE",
"270 24 CURVE SMOOTH",
"418 -32 OFFCURVE",
"610 -41 OFFCURVE",
"803 31 CURVE SMOOTH",
"995 102 OFFCURVE",
"1137 249 OFFCURVE",
"1152 473 CURVE",
"810 472 LINE",
"787 313 OFFCURVE",
"692 236 OFFCURVE",
"523 242 CURVE SMOOTH",
"436 245 OFFCURVE",
"362 282 OFFCURVE",
"375 379 CURVE SMOOTH"
);
}
);
width = 1244;
}
);
note = uni01A7;
unicode = 01A7;
},
{
glyphname = uni01A8;
lastChange = "2017-05-20 07:34:14 +0000";
layers = (
{
layerId = "F2BBBF4B-19AF-4944-B5B7-53A37E70F101";
paths = (
{
closed = 1;
nodes = (
"337 346 OFFCURVE",
"385 382 OFFCURVE",
"471 403 CURVE SMOOTH",
"570 425 LINE SMOOTH",
"631 438 OFFCURVE",
"692 458 OFFCURVE",
"754 484 CURVE SMOOTH",
"878 535 OFFCURVE",
"975 621 OFFCURVE",
"980 768 CURVE SMOOTH",
"987 916 OFFCURVE",
"898 1014 OFFCURVE",
"775 1063 CURVE SMOOTH",
"651 1112 OFFCURVE",
"508 1117 OFFCURVE",
"360 1070 CURVE SMOOTH",
"212 1022 OFFCURVE",
"100 918 OFFCURVE",
"93 749 CURVE",
"422 750 LINE",
"438 841 OFFCURVE",
"489 886 OFFCURVE",
"575 883 CURVE SMOOTH",
"632 882 OFFCURVE",
"680 846 OFFCURVE",
"668 785 CURVE SMOOTH",
"656 718 OFFCURVE",
"606 689 OFFCURVE",
"467 662 CURVE SMOOTH",
"397 648 OFFCURVE",
"328 629 OFFCURVE",
"259 605 CURVE SMOOTH",
"121 557 OFFCURVE",
"19 470 OFFCURVE",
"12 306 CURVE SMOOTH",
"7 153 OFFCURVE",
"106 59 OFFCURVE",
"239 15 CURVE SMOOTH",
"371 -30 OFFCURVE",
"507 -36 OFFCURVE",
"659 18 CURVE SMOOTH",
"810 72 OFFCURVE",
"928 181 OFFCURVE",
"933 348 CURVE",
"626 346 LINE",
"603 245 OFFCURVE",
"540 197 OFFCURVE",
"435 200 CURVE SMOOTH",
"376 201 OFFCURVE",
"316 227 OFFCURVE",
"328 296 CURVE SMOOTH"
);
}
);
width = 1019;
}
);
note = uni01A8;
unicode = 01A8;
},
{
glyphname = uni01AA;
lastChange = "2017-05-20 07:34:14 +0000";
layers = (
{
layerId = "F2BBBF4B-19AF-4944-B5B7-53A37E70F101";
paths = (
{
closed = 1;
nodes = (
"872 -171 LINE",
"781 -167 OFFCURVE",
"769 -95 OFFCURVE",
"778 -16 CURVE",
"976 1157 LINE",
"999 1380 OFFCURVE",
"833 1576 OFFCURVE",
"608 1581 CURVE SMOOTH",
"368 1586 OFFCURVE",
"155 1390 OFFCURVE",
"139 1149 CURVE SMOOTH",
"123 934 OFFCURVE",
"281 737 OFFCURVE",
"502 738 CURVE SMOOTH",
"527 738 OFFCURVE",
"556 741 OFFCURVE",
"588 748 CURVE",
"451 -15 LINE",
"426 -254 OFFCURVE",
"550 -430 OFFCURVE",
"797 -435 CURVE SMOOTH",
"846 -436 OFFCURVE",
"896 -432 OFFCURVE",
"945 -421 CURVE",
"971 -164 LINE"
);
},
{
closed = 1;
nodes = (
"446 1008 OFFCURVE",
"410 1074 OFFCURVE",
"421 1151 CURVE SMOOTH",
"432 1239 OFFCURVE",
"497 1312 OFFCURVE",
"589 1311 CURVE SMOOTH",
"670 1310 OFFCURVE",
"703 1241 OFFCURVE",
"694 1166 CURVE SMOOTH",
"683 1081 OFFCURVE",
"621 1007 OFFCURVE",
"530 1008 CURVE SMOOTH"
);
}
);
width = 1104;
}
);
note = uni01AA;
unicode = 01AA;
},
{
glyphname = uni01AB;
lastChange = "2017-05-20 07:34:14 +0000";
layers = (
{
layerId = "F2BBBF4B-19AF-4944-B5B7-53A37E70F101";
paths = (
{
closed = 1;
nodes = (
"433 250 OFFCURVE",
"422 283 OFFCURVE",
"431 352 CURVE",
"516 848 LINE",
"688 848 LINE",
"729 1082 LINE",
"556 1082 LINE",
"603 1351 LINE",
"274 1351 LINE",
"227 1082 LINE",
"94 1082 LINE",
"54 848 LINE",
"187 848 LINE",
"99 311 LINE",
"83 136 OFFCURVE",
"156 5 OFFCURVE",
"337 -16 CURVE",
"329 -56 LINE",
"316 -105 OFFCURVE",
"290 -141 OFFCURVE",
"251 -163 CURVE SMOOTH",
"172 -207 OFFCURVE",
"117 -197 OFFCURVE",
"41 -185 CURVE",
"20 -402 LINE",
"72 -412 OFFCURVE",
"120 -418 OFFCURVE",
"164 -419 CURVE SMOOTH",
"389 -419 OFFCURVE",
"524 -274 OFFCURVE",
"551 -57 CURVE SMOOTH",
"591 251 LINE",
"554 248 OFFCURVE",
"525 246 OFFCURVE",
"506 247 CURVE SMOOTH"
);
}
);
width = 683;
}
);
note = uni01AB;
unicode = 01AB;
},
{
glyphname = uni01AC;
lastChange = "2017-05-20 07:34:14 +0000";
layers = (
{
layerId = "F2BBBF4B-19AF-4944-B5B7-53A37E70F101";
paths = (
{
closed = 1;
nodes = (
"101 1001 OFFCURVE",
"103 951 OFFCURVE",
"110 900 CURVE",
"379 900 LINE",
"378 946 LINE SMOOTH",
"373 1073 OFFCURVE",
"441 1184 OFFCURVE",
"565 1187 CURVE SMOOTH",
"771 1185 LINE",
"565 0 LINE",
"908 0 LINE",
"1114 1185 LINE",
"1537 1185 LINE",
"1585 1456 LINE",
"577 1457 LINE SMOOTH",
"320 1458 OFFCURVE",
"129 1315 OFFCURVE",
"106 1050 CURVE SMOOTH"
);
}
);
width = 1471;
}
);
note = uni01AC;
unicode = 01AC;
},
{
glyphname = uni01AD;
lastChange = "2017-05-20 07:34:14 +0000";
layers = (
{
layerId = "F2BBBF4B-19AF-4944-B5B7-53A37E70F101";
paths = (
{
closed = 1;
nodes = (
"808 1359 OFFCURVE",
"834 1355 OFFCURVE",
"859 1350 CURVE",
"880 1567 LINE",
"820 1577 OFFCURVE",
"758 1582 OFFCURVE",
"695 1583 CURVE SMOOTH",
"447 1587 OFFCURVE",
"274 1482 OFFCURVE",
"243 1222 CURVE SMOOTH",
"225 1082 LINE",
"92 1082 LINE",
"52 848 LINE",
"185 848 LINE",
"97 311 LINE",
"88 210 OFFCURVE",
"109 130 OFFCURVE",
"160 72 CURVE SMOOTH",
"262 -45 OFFCURVE",
"454 -29 OFFCURVE",
"566 7 CURVE",
"590 251 LINE",
"547 247 OFFCURVE",
"518 245 OFFCURVE",
"504 246 CURVE SMOOTH",
"431 250 OFFCURVE",
"420 283 OFFCURVE",
"429 351 CURVE",
"514 848 LINE",
"686 848 LINE",
"727 1082 LINE",
"554 1082 LINE",
"577 1222 LINE",
"600 1321 OFFCURVE",
"686 1361 OFFCURVE",
"781 1360 CURVE SMOOTH"
);
}
);
width = 757;
}
);
note = uni01AD;
unicode = 01AD;
},
{
glyphname = uni01AE;
lastChange = "2017-05-20 07:34:14 +0000";
layers = (
{
layerId = "F2BBBF4B-19AF-4944-B5B7-53A37E70F101";
paths = (
{
closed = 1;
nodes = (
"348 -15 LINE",
"323 -251 OFFCURVE",
"445 -430 OFFCURVE",
"690 -435 CURVE SMOOTH",
"740 -436 OFFCURVE",
"790 -432 OFFCURVE",
"839 -422 CURVE",
"852 -149 LINE",
"807 -156 OFFCURVE",
"774 -160 OFFCURVE",
"753 -159 CURVE SMOOTH",
"676 -155 OFFCURVE",
"681 -76 OFFCURVE",
"688 -17 CURVE",
"894 1185 LINE",
"1319 1185 LINE",
"1366 1456 LINE",
"184 1456 LINE",
"136 1185 LINE",
"552 1185 LINE"
);
}
);
width = 1253;
}
);
leftKerningGroup = T;
note = uni01AE;
rightKerningGroup = T;
unicode = 01AE;
},
{
glyphname = Uhorn;
lastChange = "2017-05-20 07:34:14 +0000";
layers = (
{
layerId = "F2BBBF4B-19AF-4944-B5B7-53A37E70F101";
paths = (
{
closed = 1;
nodes = (
"1606 1071 OFFCURVE",
"1728 1250 OFFCURVE",
"1751 1538 CURVE",
"1553 1537 LINE",
"1536 1374 OFFCURVE",
"1504 1240 OFFCURVE",
"1319 1220 CURVE",
"1363 1456 LINE",
"1022 1456 LINE",
"859 499 LINE SMOOTH",
"835 354 OFFCURVE",
"757 244 OFFCURVE",
"598 249 CURVE SMOOTH",
"446 254 OFFCURVE",
"417 371 OFFCURVE",
"433 504 CURVE",
"594 1456 LINE",
"251 1456 LINE",
"89 505 LINE",
"50 182 OFFCURVE",
"262 -16 OFFCURVE",
"575 -21 CURVE SMOOTH",
"912 -26 OFFCURVE",
"1154 170 OFFCURVE",
"1202 505 CURVE",
"1303 1060 LINE"
);
}
);
width = 1431;
}
);
note = Uhorn;
unicode = 01AF;
},
{
glyphname = uhorn;
lastChange = "2017-05-20 07:34:14 +0000";
layers = (
{
layerId = "F2BBBF4B-19AF-4944-B5B7-53A37E70F101";
paths = (
{
closed = 1;
nodes = (
"1075 797 LINE",
"1295 833 OFFCURVE",
"1387 966 OFFCURVE",
"1402 1182 CURVE",
"1224 1181 LINE",
"1209 1078 OFFCURVE",
"1185 992 OFFCURVE",
"1085 945 CURVE",
"1117 1082 LINE",
"787 1082 LINE",
"653 324 LINE",
"554 207 OFFCURVE",
"358 198 OFFCURVE",
"377 378 CURVE",
"497 1082 LINE",
"168 1082 LINE",
"52 382 LINE",
"42 275 OFFCURVE",
"60 181 OFFCURVE",
"107 101 CURVE SMOOTH",
"199 -59 OFFCURVE",
"481 -71 OFFCURVE",
"645 118 CURVE",
"623 0 LINE",
"929 0 LINE"
);
}
);
width = 1194;
}
);
leftKerningGroup = u;
note = uhorn;
unicode = 01B0;
},
{
glyphname = uni01B1;
lastChange = "2017-05-20 07:34:14 +0000";
layers = (
{
layerId = "F2BBBF4B-19AF-4944-B5B7-53A37E70F101";
paths = (
{
closed = 1;
nodes = (
"884 981 OFFCURVE",
"884 930 OFFCURVE",
"879 879 CURVE SMOOTH",
"841 584 LINE SMOOTH",
"835 541 OFFCURVE",
"824 494 OFFCURVE",
"809 441 CURVE SMOOTH",
"777 336 OFFCURVE",
"715 246 OFFCURVE",
"603 253 CURVE SMOOTH",
"502 258 OFFCURVE",
"475 353 OFFCURVE",
"478 456 CURVE SMOOTH",
"485 583 LINE",
"495 662 LINE SMOOTH",
"520 849 OFFCURVE",
"559 1070 OFFCURVE",
"719 1178 CURVE",
"764 1456 LINE",
"264 1456 LINE",
"216 1185 LINE",
"439 1190 LINE",
"254 1063 OFFCURVE",
"129 876 OFFCURVE",
"102 653 CURVE SMOOTH",
"94 586 LINE SMOOTH",
"82 479 OFFCURVE",
"93 380 OFFCURVE",
"128 289 CURVE SMOOTH",
"197 106 OFFCURVE",
"351 -17 OFFCURVE",
"578 -21 CURVE SMOOTH",
"914 -29 OFFCURVE",
"1183 225 OFFCURVE",
"1232 593 CURVE SMOOTH",
"1241 661 LINE SMOOTH",
"1264 858 OFFCURVE",
"1197 1021 OFFCURVE",
"1092 1184 CURVE",
"1311 1185 LINE",
"1360 1456 LINE",
"854 1456 LINE",
"809 1177 LINE",
"850 1145 OFFCURVE",
"874 1096 OFFCURVE",
"880 1030 CURVE SMOOTH"
);
}
);
width = 1326;
}
);
note = uni01B1;
unicode = 01B1;
},
{
glyphname = uni01B2;
lastChange = "2017-05-20 07:34:14 +0000";
layers = (
{
layerId = "F2BBBF4B-19AF-4944-B5B7-53A37E70F101";
paths = (
{
closed = 1;
nodes = (
"911 -26 OFFCURVE",
"1155 172 OFFCURVE",
"1202 505 CURVE SMOOTH",
"1290 1053 LINE",
"1315 1290 OFFCURVE",
"1196 1468 OFFCURVE",
"949 1473 CURVE SMOOTH",
"900 1474 OFFCURVE",
"850 1470 OFFCURVE",
"801 1459 CURVE",
"773 1188 LINE",
"817 1193 OFFCURVE",
"850 1196 OFFCURVE",
"871 1195 CURVE SMOOTH",
"960 1192 OFFCURVE",
"959 1131 OFFCURVE",
"950 1055 CURVE",
"860 499 LINE SMOOTH",
"836 352 OFFCURVE",
"755 242 OFFCURVE",
"595 249 CURVE SMOOTH",
"444 254 OFFCURVE",
"417 372 OFFCURVE",
"433 504 CURVE",
"594 1456 LINE",
"251 1456 LINE",
"89 505 LINE",
"52 184 OFFCURVE",
"262 -16 OFFCURVE",
"575 -21 CURVE SMOOTH"
);
}
);
width = 1319;
}
);
note = uni01B2;
unicode = 01B2;
},
{
glyphname = uni01B3;
lastChange = "2017-05-20 07:34:14 +0000";
layers = (
{
layerId = "F2BBBF4B-19AF-4944-B5B7-53A37E70F101";
paths = (
{
closed = 1;
nodes = (
"1196 1158 OFFCURVE",
"1254 1202 OFFCURVE",
"1313 1199 CURVE SMOOTH",
"1326 1198 OFFCURVE",
"1348 1190 OFFCURVE",
"1379 1175 CURVE",
"1529 1418 LINE",
"1426 1459 OFFCURVE",
"1335 1480 OFFCURVE",
"1255 1480 CURVE SMOOTH",
"1148 1481 OFFCURVE",
"1069 1447 OFFCURVE",
"983 1357 CURVE SMOOTH",
"940 1312 OFFCURVE",
"883 1227 OFFCURVE",
"813 1104 CURVE SMOOTH",
"659 834 LINE",
"508 1456 LINE",
"148 1455 LINE",
"443 542 LINE",
"348 0 LINE",
"696 0 LINE",
"785 512 LINE",
"1078 960 LINE",
"1141 1067 LINE SMOOTH"
);
}
);
width = 1392;
}
);
note = uni01B3;
unicode = 01B3;
},
{
glyphname = uni01B4;
lastChange = "2017-05-20 07:34:14 +0000";
layers = (
{
layerId = "F2BBBF4B-19AF-4944-B5B7-53A37E70F101";
paths = (
{
closed = 1;
nodes = (
"1007 905 OFFCURVE",
"1025 943 OFFCURVE",
"1049 992 CURVE SMOOTH",
"1097 1090 OFFCURVE",
"1157 1072 OFFCURVE",
"1220 1037 CURVE",
"1313 1234 LINE",
"1225 1299 OFFCURVE",
"1140 1332 OFFCURVE",
"1059 1333 CURVE SMOOTH",
"1055 1333 LINE SMOOTH",
"988 1334 OFFCURVE",
"932 1314 OFFCURVE",
"889 1275 CURVE SMOOTH",
"801 1195 OFFCURVE",
"751 1070 OFFCURVE",
"703 958 CURVE SMOOTH",
"479 461 LINE",
"480 478 LINE",
"424 1082 LINE",
"83 1082 LINE",
"258 7 LINE",
"201 -96 LINE",
"168 -148 OFFCURVE",
"114 -175 OFFCURVE",
"38 -177 CURVE SMOOTH",
"-12 -177 LINE",
"-37 -418 LINE",
"23 -433 OFFCURVE",
"72 -440 OFFCURVE",
"110 -440 CURVE SMOOTH",
"303 -440 OFFCURVE",
"416 -329 OFFCURVE",
"492 -162 CURVE SMOOTH",
"996 880 LINE"
);
}
);
width = 1193;
}
);
note = uni01B4;
unicode = 01B4;
},
{
glyphname = uni01B5;
lastChange = "2017-05-20 07:34:14 +0000";
layers = (
{
layerId = "F2BBBF4B-19AF-4944-B5B7-53A37E70F101";
paths = (
{
closed = 1;
nodes = (
"538 843 LINE",
"191 842 LINE",
"155 651 LINE",
"382 649 LINE",
"-5 200 LINE",
"-40 0 LINE",
"1062 0 LINE",
"1109 270 LINE",
"439 272 LINE",
"764 650 LINE",
"1111 651 LINE",
"1147 842 LINE",
"918 844 LINE",
"1274 1261 LINE",
"1308 1456 LINE",
"208 1456 LINE",
"160 1185 LINE",
"835 1183 LINE"
);
}
);
width = 1213;
}
);
note = uni01B5;
unicode = 01B5;
},
{
glyphname = uni01B6;
lastChange = "2017-05-20 07:34:14 +0000";
layers = (
{
layerId = "F2BBBF4B-19AF-4944-B5B7-53A37E70F101";
paths = (
{
closed = 1;
nodes = (
"399 654 LINE",
"132 652 LINE",
"95 461 LINE",
"230 459 LINE",
"-8 203 LINE",
"-43 0 LINE",
"851 0 LINE",
"896 260 LINE",
"423 262 LINE",
"612 459 LINE",
"871 461 LINE",
"910 652 LINE",
"779 654 LINE",
"994 885 LINE",
"1028 1082 LINE",
"165 1082 LINE",
"120 822 LINE",
"561 820 LINE"
);
}
);
width = 1020;
}
);
leftKerningGroup = z;
note = uni01B6;
rightKerningGroup = z;
unicode = 01B6;
},
{
glyphname = uni01B7;
lastChange = "2017-05-20 07:34:14 +0000";
layers = (
{
layerId = "F2BBBF4B-19AF-4944-B5B7-53A37E70F101";
paths = (
{
closed = 1;
nodes = (
"402 791 LINE",
"368 595 LINE",
"664 594 LINE SMOOTH",
"800 589 OFFCURVE",
"842 496 OFFCURVE",
"845 381 CURVE SMOOTH",
"848 267 OFFCURVE",
"836 169 OFFCURVE",
"811 86 CURVE SMOOTH",
"760 -80 OFFCURVE",
"667 -171 OFFCURVE",
"508 -167 CURVE SMOOTH",
"353 -163 OFFCURVE",
"301 -68 OFFCURVE",
"304 76 CURVE",
"-38 77 LINE",
"-30 -236 OFFCURVE",
"174 -430 OFFCURVE",
"486 -435 CURVE SMOOTH",
"878 -443 OFFCURVE",
"1138 -158 OFFCURVE",
"1177 218 CURVE SMOOTH",
"1186 307 OFFCURVE",
"1181 395 OFFCURVE",
"1162 482 CURVE SMOOTH",
"1123 656 OFFCURVE",
"1016 794 OFFCURVE",
"824 837 CURVE",
"1256 1266 LINE",
"1290 1456 LINE",
"199 1456 LINE",
"152 1185 LINE",
"806 1183 LINE"
);
}
);
width = 1307;
}
);
note = uni01B7;
unicode = 01B7;
},
{
glyphname = uni01B8;
lastChange = "2017-05-20 07:34:14 +0000";
layers = (
{
layerId = "F2BBBF4B-19AF-4944-B5B7-53A37E70F101";
paths = (
{
closed = 1;
nodes = (
"1358 1185 LINE",
"1405 1456 LINE",
"321 1456 LINE",
"292 1295 LINE",
"569 845 LINE",
"401 816 OFFCURVE",
"268 744 OFFCURVE",
"169 629 CURVE SMOOTH",
"-29 399 OFFCURVE",
"-79 1 OFFCURVE",
"93 -246 CURVE SMOOTH",
"264 -493 OFFCURVE",
"613 -458 OFFCURVE",
"801 -378 CURVE SMOOTH",
"989 -298 OFFCURVE",
"1125 -143 OFFCURVE",
"1149 76 CURVE",
"808 74 LINE",
"780 -79 OFFCURVE",
"684 -175 OFFCURVE",
"523 -168 CURVE SMOOTH",
"386 -164 OFFCURVE",
"337 -75 OFFCURVE",
"332 38 CURVE SMOOTH",
"325 151 OFFCURVE",
"338 254 OFFCURVE",
"369 349 CURVE SMOOTH",
"432 538 OFFCURVE",
"520 598 OFFCURVE",
"675 597 CURVE SMOOTH",
"943 595 LINE",
"973 763 LINE",
"694 1185 LINE"
);
}
);
width = 1307;
}
);
note = uni01B8;
unicode = 01B8;
},
{
glyphname = uni01B9;
lastChange = "2017-05-20 07:34:14 +0000";
layers = (
{
layerId = "F2BBBF4B-19AF-4944-B5B7-53A37E70F101";
paths = (
{
closed = 1;
nodes = (
"1107 1082 LINE",
"139 1082 LINE",
"103 880 LINE",
"371 501 LINE",
"122 448 OFFCURVE",
"-41 288 OFFCURVE",
"-60 25 CURVE SMOOTH",
"-73 -164 OFFCURVE",
"28 -287 OFFCURVE",
"180 -347 CURVE SMOOTH",
"331 -408 OFFCURVE",
"512 -413 OFFCURVE",
"677 -352 CURVE SMOOTH",
"842 -291 OFFCURVE",
"962 -165 OFFCURVE",
"974 30 CURVE",
"643 28 LINE",
"624 -75 OFFCURVE",
"543 -139 OFFCURVE",
"438 -138 CURVE SMOOTH",
"337 -137 OFFCURVE",
"261 -73 OFFCURVE",
"273 32 CURVE SMOOTH",
"294 215 OFFCURVE",
"397 307 OFFCURVE",
"582 307 CURVE SMOOTH",
"691 306 LINE",
"723 486 LINE",
"452 822 LINE",
"1061 822 LINE"
);
}
);
width = 1151;
}
);
note = uni01B9;
unicode = 01B9;
},
{
glyphname = uni01BA;
lastChange = "2017-05-20 07:34:14 +0000";
layers = (
{
layerId = "F2BBBF4B-19AF-4944-B5B7-53A37E70F101";
paths = (
{
closed = 1;
nodes = (
"576 273 OFFCURVE",
"488 267 OFFCURVE",
"349 239 CURVE SMOOTH",
"279 224 OFFCURVE",
"213 205 OFFCURVE",
"152 180 CURVE SMOOTH",
"28 131 OFFCURVE",
"-63 43 OFFCURVE",
"-68 -110 CURVE SMOOTH",
"-73 -263 OFFCURVE",
"26 -357 OFFCURVE",
"159 -401 CURVE SMOOTH",
"291 -446 OFFCURVE",
"427 -452 OFFCURVE",
"579 -398 CURVE SMOOTH",
"730 -344 OFFCURVE",
"846 -233 OFFCURVE",
"853 -68 CURVE",
"545 -70 LINE",
"521 -170 OFFCURVE",
"458 -219 OFFCURVE",
"355 -216 CURVE SMOOTH",
"325 -215 OFFCURVE",
"298 -208 OFFCURVE",
"275 -193 CURVE",
"227 -165 OFFCURVE",
"241 -81 OFFCURVE",
"306 -45 CURVE SMOOTH",
"338 -28 OFFCURVE",
"392 -11 OFFCURVE",
"468 5 CURVE SMOOTH",
"543 21 OFFCURVE",
"613 42 OFFCURVE",
"676 69 CURVE SMOOTH",
"802 121 OFFCURVE",
"893 208 OFFCURVE",
"900 353 CURVE SMOOTH",
"905 488 OFFCURVE",
"824 601 OFFCURVE",
"701 653 CURVE",
"1008 888 LINE",
"1042 1082 LINE",
"185 1082 LINE",
"139 822 LINE",
"458 820 LINE",
"271 666 LINE",
"235 465 LINE",
"506 463 LINE",
"561 460 OFFCURVE",
"605 428 OFFCURVE",
"593 369 CURVE SMOOTH"
);
}
);
width = 1021;
}
);
note = uni01BA;
unicode = 01BA;
},
{
glyphname = uni01BB;
lastChange = "2017-05-20 07:34:14 +0000";
layers = (
{
layerId = "F2BBBF4B-19AF-4944-B5B7-53A37E70F101";
paths = (
{
closed = 1;
nodes = (
"722 505 LINE",
"884 651 LINE",
"1155 651 LINE",
"1190 842 LINE",
"1024 838 LINE",
"1077 916 OFFCURVE",
"1106 991 OFFCURVE",
"1113 1062 CURVE SMOOTH",
"1140 1334 OFFCURVE",
"947 1474 OFFCURVE",
"692 1478 CURVE SMOOTH",
"396 1482 OFFCURVE",
"150 1268 OFFCURVE",
"134 987 CURVE",
"462 989 LINE",
"475 1094 OFFCURVE",
"534 1224 OFFCURVE",
"661 1221 CURVE SMOOTH",
"768 1218 OFFCURVE",
"789 1124 OFFCURVE",
"774 1035 CURVE SMOOTH",
"762 962 OFFCURVE",
"713 898 OFFCURVE",
"668 842 CURVE",
"290 842 LINE",
"254 651 LINE",
"487 649 LINE",
"23 233 LINE",
"-18 0 LINE",
"970 0 LINE",
"1016 260 LINE",
"463 262 LINE"
);
}
);
width = 1223;
}
);
note = uni01BB;
unicode = 01BB;
},
{
glyphname = uni01BC;
lastChange = "2017-05-20 07:34:14 +0000";
layers = (
{
layerId = "F2BBBF4B-19AF-4944-B5B7-53A37E70F101";
paths = (
{
closed = 1;
nodes = (
"241 717 LINE",
"508 651 LINE",
"555 701 OFFCURVE",
"614 726 OFFCURVE",
"686 725 CURVE SMOOTH",
"819 724 OFFCURVE",
"848 616 OFFCURVE",
"836 500 CURVE SMOOTH",
"821 380 OFFCURVE",
"770 237 OFFCURVE",
"626 241 CURVE SMOOTH",
"525 245 OFFCURVE",
"489 324 OFFCURVE",
"486 415 CURVE",
"158 415 LINE",
"155 286 OFFCURVE",
"198 181 OFFCURVE",
"287 102 CURVE SMOOTH",
"463 -57 OFFCURVE",
"777 -73 OFFCURVE",
"986 115 CURVE SMOOTH",
"1195 302 OFFCURVE",
"1209 620 OFFCURVE",
"1089 813 CURVE SMOOTH",
"968 1005 OFFCURVE",
"694 974 OFFCURVE",
"587 902 CURVE",
"682 1194 LINE",
"1239 1194 LINE",
"1285 1456 LINE",
"205 1456 LINE",
"159 1194 LINE",
"379 1194 LINE"
);
}
);
width = 1260;
}
);
note = uni01BC;
unicode = 01BC;
},
{
glyphname = uni01BD;
lastChange = "2017-05-20 07:34:14 +0000";
layers = (
{
layerId = "F2BBBF4B-19AF-4944-B5B7-53A37E70F101";
paths = (
{
closed = 1;
nodes = (
"144 472 LINE",
"462 459 LINE",
"499 486 OFFCURVE",
"545 498 OFFCURVE",
"602 497 CURVE SMOOTH",
"675 496 OFFCURVE",
"728 456 OFFCURVE",
"717 379 CURVE SMOOTH",
"704 288 OFFCURVE",
"630 244 OFFCURVE",
"543 244 CURVE SMOOTH",
"468 243 OFFCURVE",
"407 262 OFFCURVE",
"399 342 CURVE",
"71 326 LINE",
"72 158 OFFCURVE",
"173 61 OFFCURVE",
"312 17 CURVE SMOOTH",
"451 -28 OFFCURVE",
"611 -32 OFFCURVE",
"764 16 CURVE SMOOTH",
"917 64 OFFCURVE",
"1031 171 OFFCURVE",
"1040 355 CURVE SMOOTH",
"1052 570 OFFCURVE",
"915 704 OFFCURVE",
"703 704 CURVE SMOOTH",
"622 705 OFFCURVE",
"552 690 OFFCURVE",
"494 658 CURVE",
"560 831 LINE",
"1046 830 LINE",
"1090 1082 LINE",
"140 1082 LINE",
"96 830 LINE",
"255 830 LINE"
);
}
);
width = 1140;
}
);
note = uni01BD;
unicode = 01BD;
},
{
glyphname = uni01BE;
lastChange = "2017-05-20 07:34:14 +0000";
layers = (
{
layerId = "F2BBBF4B-19AF-4944-B5B7-53A37E70F101";
paths = (
{
closed = 1;
nodes = (
"913 442 OFFCURVE",
"844 511 OFFCURVE",
"769 574 CURVE SMOOTH",
"694 637 OFFCURVE",
"634 705 OFFCURVE",
"658 821 CURVE SMOOTH",
"664 849 LINE",
"828 848 LINE",
"870 1082 LINE",
"697 1082 LINE",
"744 1351 LINE",
"415 1351 LINE",
"368 1082 LINE",
"235 1082 LINE",
"194 848 LINE",
"340 851 LINE",
"336 827 LINE SMOOTH",
"317 707 OFFCURVE",
"387 613 OFFCURVE",
"464 534 CURVE SMOOTH",
"540 454 OFFCURVE",
"610 384 OFFCURVE",
"594 311 CURVE SMOOTH",
"577 238 OFFCURVE",
"501 205 OFFCURVE",
"432 205 CURVE SMOOTH",
"338 205 OFFCURVE",
"291 253 OFFCURVE",
"290 348 CURVE",
"-15 349 LINE",
"-13 230 OFFCURVE",
"31 140 OFFCURVE",
"118 77 CURVE SMOOTH",
"291 -48 OFFCURVE",
"482 -33 OFFCURVE",
"633 12 CURVE SMOOTH",
"784 57 OFFCURVE",
"904 157 OFFCURVE",
"909 322 CURVE SMOOTH"
);
}
);
width = 1019;
}
);
note = uni01BE;
unicode = 01BE;
},
{
glyphname = uni01BF;
lastChange = "2017-05-20 07:34:14 +0000";
layers = (
{
layerId = "F2BBBF4B-19AF-4944-B5B7-53A37E70F101";
paths = (
{
closed = 1;
nodes = (
"420 -141 OFFCURVE",
"536 -98 OFFCURVE",
"645 -41 CURVE SMOOTH",
"861 72 OFFCURVE",
"1016 249 OFFCURVE",
"1053 512 CURVE SMOOTH",
"1059 556 LINE",
"1075 719 OFFCURVE",
"1051 901 OFFCURVE",
"948 1015 CURVE SMOOTH",
"845 1129 OFFCURVE",
"611 1145 OFFCURVE",
"466 982 CURVE",
"481 1084 LINE",
"178 1082 LINE",
"-82 -416 LINE",
"247 -416 LINE",
"297 -172 LINE"
);
},
{
closed = 1;
nodes = (
"715 838 OFFCURVE",
"738 757 OFFCURVE",
"735 669 CURVE",
"727 556 LINE",
"725 536 LINE",
"692 307 OFFCURVE",
"536 155 OFFCURVE",
"324 78 CURVE",
"452 757 LINE",
"498 817 OFFCURVE",
"555 845 OFFCURVE",
"624 842 CURVE SMOOTH"
);
}
);
width = 1118;
}
);
note = uni01BF;
unicode = 01BF;
},
{
glyphname = uni01C0;
lastChange = "2017-05-20 07:34:14 +0000";
layers = (
{
layerId = "F2BBBF4B-19AF-4944-B5B7-53A37E70F101";
paths = (
{
closed = 1;
nodes = (
"28 0 LINE",
"208 0 LINE",
"461 1456 LINE",
"281 1456 LINE"
);
}
);
width = 446;
}
);
note = uni01C0;
unicode = 01C0;
},
{
glyphname = uni01C5;
lastChange = "2017-05-20 07:34:14 +0000";
layers = (
{
layerId = "F2BBBF4B-19AF-4944-B5B7-53A37E70F101";
paths = (
{
closed = 1;
nodes = (
"1494 1511 LINE",
"1749 1252 LINE",
"1982 1252 LINE",
"2296 1508 LINE",
"2296 1531 LINE",
"2008 1527 LINE",
"1865 1394 LINE",
"1767 1528 LINE",
"1494 1532 LINE"
);
},
{
closed = 1;
nodes = (
"883 5 OFFCURVE",
"1189 300 OFFCURVE",
"1237 723 CURVE SMOOTH",
"1241 760 LINE SMOOTH",
"1254 883 OFFCURVE",
"1242 996 OFFCURVE",
"1203 1101 CURVE SMOOTH",
"1126 1309 OFFCURVE",
"951 1448 OFFCURVE",
"690 1455 CURVE SMOOTH",
"254 1456 LINE",
"2 0 LINE",
"495 0 LINE SMOOTH"
);
},
{
closed = 1;
nodes = (
"756 1181 OFFCURVE",
"810 1157 OFFCURVE",
"843 1112 CURVE SMOOTH",
"907 1020 OFFCURVE",
"915 877 OFFCURVE",
"884 686 CURVE SMOOTH",
"849 466 OFFCURVE",
"734 268 OFFCURVE",
"491 268 CURVE SMOOTH",
"391 270 LINE",
"550 1185 LINE",
"680 1184 LINE SMOOTH"
);
},
{
closed = 1;
nodes = (
"1214 202 LINE",
"1178 0 LINE",
"2071 0 LINE",
"2117 260 LINE",
"1644 262 LINE",
"2215 885 LINE",
"2249 1082 LINE",
"1386 1082 LINE",
"1340 822 LINE",
"1782 820 LINE"
);
}
);
width = 2243;
}
);
note = uni01C5;
rightKerningGroup = z;
unicode = 01C5;
},
{
glyphname = uni01C6;
lastChange = "2017-05-20 07:34:14 +0000";
layers = (
{
layerId = "F2BBBF4B-19AF-4944-B5B7-53A37E70F101";
paths = (
{
closed = 1;
nodes = (
"1192 1560 LINE",
"861 1560 LINE",
"752 987 LINE",
"635 1135 OFFCURVE",
"401 1134 OFFCURVE",
"268 1023 CURVE SMOOTH",
"146 922 OFFCURVE",
"70 762 OFFCURVE",
"40 541 CURVE SMOOTH",
"38 525 LINE SMOOTH",
"29 445 OFFCURVE",
"33 363 OFFCURVE",
"49 280 CURVE SMOOTH",
"81 113 OFFCURVE",
"178 -17 OFFCURVE",
"373 -21 CURVE SMOOTH",
"489 -24 OFFCURVE",
"576 37 OFFCURVE",
"648 122 CURVE",
"639 0 LINE",
"922 0 LINE"
);
},
{
closed = 1;
nodes = (
"1310 1511 LINE",
"1566 1252 LINE",
"1799 1252 LINE",
"2113 1508 LINE",
"2113 1531 LINE",
"1825 1527 LINE",
"1682 1394 LINE",
"1584 1528 LINE",
"1310 1532 LINE"
);
},
{
closed = 1;
nodes = (
"1030 202 LINE",
"995 0 LINE",
"1888 0 LINE",
"1933 260 LINE",
"1461 262 LINE",
"2032 885 LINE",
"2066 1082 LINE",
"1202 1082 LINE",
"1157 822 LINE",
"1598 820 LINE"
);
},
{
closed = 1;
nodes = (
"371 706 OFFCURVE",
"447 849 OFFCURVE",
"591 844 CURVE SMOOTH",
"656 842 OFFCURVE",
"700 811 OFFCURVE",
"722 750 CURVE",
"647 332 LINE",
"597 268 OFFCURVE",
"540 237 OFFCURVE",
"475 240 CURVE SMOOTH",
"383 244 OFFCURVE",
"359 324 OFFCURVE",
"362 413 CURVE SMOOTH"
);
}
);
width = 2058;
}
);
leftKerningGroup = c;
note = uni01C6;
rightKerningGroup = z;
unicode = 01C6;
},
{
glyphname = uni01E4;
lastChange = "2017-05-20 07:34:14 +0000";
layers = (
{
layerId = "F2BBBF4B-19AF-4944-B5B7-53A37E70F101";
paths = (
{
closed = 1;
nodes = (
"1390 327 LINE",
"1417 482 LINE",
"1244 482 LINE",
"1295 778 LINE",
"716 778 LINE",
"673 537 LINE",
"916 540 LINE",
"897 479 LINE",
"707 482 LINE",
"677 327 LINE",
"880 332 LINE",
"872 306 LINE",
"733 230 OFFCURVE",
"550 230 OFFCURVE",
"487 325 CURVE SMOOTH",
"424 420 OFFCURVE",
"434 534 OFFCURVE",
"437 601 CURVE SMOOTH",
"440 668 OFFCURVE",
"453 819 OFFCURVE",
"505 963 CURVE SMOOTH",
"557 1107 OFFCURVE",
"651 1215 OFFCURVE",
"807 1208 CURVE SMOOTH",
"952 1203 OFFCURVE",
"999 1112 OFFCURVE",
"1008 980 CURVE",
"1335 979 LINE",
"1314 1306 OFFCURVE",
"1141 1472 OFFCURVE",
"815 1477 CURVE SMOOTH",
"678 1480 OFFCURVE",
"559 1448 OFFCURVE",
"460 1382 CURVE SMOOTH",
"261 1249 OFFCURVE",
"142 1019 OFFCURVE",
"107 767 CURVE SMOOTH",
"96 687 LINE SMOOTH",
"81 564 OFFCURVE",
"89 450 OFFCURVE",
"120 343 CURVE SMOOTH",
"183 130 OFFCURVE",
"343 -16 OFFCURVE",
"614 -19 CURVE SMOOTH",
"807 -22 OFFCURVE",
"1065 23 OFFCURVE",
"1200 179 CURVE",
"1217 326 LINE"
);
}
);
width = 1431;
}
);
note = uni01E4;
unicode = 01E4;
},
{
glyphname = uni01E5;
lastChange = "2017-05-20 07:34:14 +0000";
layers = (
{
layerId = "F2BBBF4B-19AF-4944-B5B7-53A37E70F101";
paths = (
{
closed = 1;
nodes = (
"934 -55 LINE",
"1132 1082 LINE",
"830 1083 LINE",
"794 986 LINE",
"686 1137 OFFCURVE",
"427 1134 OFFCURVE",
"283 1022 CURVE SMOOTH",
"151 919 OFFCURVE",
"71 758 OFFCURVE",
"42 541 CURVE SMOOTH",
"40 525 LINE SMOOTH",
"24 362 OFFCURVE",
"59 180 OFFCURVE",
"168 67 CURVE SMOOTH",
"277 -46 OFFCURVE",
"497 -59 OFFCURVE",
"642 89 CURVE",
"605 -56 LINE",
"-64 -55 LINE",
"-90 -196 LINE",
"563 -192 LINE",
"435 -335 OFFCURVE",
"204 -322 OFFCURVE",
"79 -225 CURVE",
"-53 -411 LINE",
"57 -498 OFFCURVE",
"186 -542 OFFCURVE",
"335 -544 CURVE SMOOTH",
"595 -548 OFFCURVE",
"811 -440 OFFCURVE",
"912 -196 CURVE",
"1002 -196 LINE",
"1027 -55 LINE"
);
},
{
closed = 1;
nodes = (
"381 610 OFFCURVE",
"406 685 OFFCURVE",
"444 750 CURVE SMOOTH",
"519 880 OFFCURVE",
"699 865 OFFCURVE",
"750 770 CURVE",
"665 313 LINE",
"564 212 OFFCURVE",
"435 227 OFFCURVE",
"398 294 CURVE SMOOTH",
"361 361 OFFCURVE",
"362 458 OFFCURVE",
"369 526 CURVE"
);
}
);
width = 1144;
}
);
leftKerningGroup = c;
note = uni01E5;
unicode = 01E5;
},
{
glyphname = uni01EF;
lastChange = "2017-05-20 07:34:14 +0000";
layers = (
{
layerId = "F2BBBF4B-19AF-4944-B5B7-53A37E70F101";
paths = (
{
closed = 1;
nodes = (
"345 1511 LINE",
"602 1252 LINE",
"835 1252 LINE",
"1149 1508 LINE",
"1148 1531 LINE",
"860 1527 LINE",
"718 1394 LINE",
"620 1528 LINE",
"345 1532 LINE"
);
},
{
closed = 1;
nodes = (
"578 302 OFFCURVE",
"632 278 OFFCURVE",
"663 232 CURVE SMOOTH",
"723 139 OFFCURVE",
"703 -24 OFFCURVE",
"605 -88 CURVE SMOOTH",
"507 -152 OFFCURVE",
"290 -181 OFFCURVE",
"293 30 CURVE",
"-35 30 LINE",
"-37 -106 OFFCURVE",
"7 -210 OFFCURVE",
"97 -282 CURVE SMOOTH",
"277 -427 OFFCURVE",
"521 -412 OFFCURVE",
"696 -351 CURVE SMOOTH",
"871 -290 OFFCURVE",
"1000 -161 OFFCURVE",
"1016 43 CURVE SMOOTH",
"1031 247 OFFCURVE",
"948 436 OFFCURVE",
"739 493 CURVE",
"1138 853 LINE",
"1177 1082 LINE",
"210 1082 LINE",
"164 822 LINE",
"755 820 LINE",
"391 512 LINE",
"355 306 LINE",
"499 305 LINE SMOOTH"
);
}
);
width = 1147;
}
);
note = uni01EF;
unicode = 01EF;
},
{
glyphname = uni01F6;
lastChange = "2017-05-20 07:34:14 +0000";
layers = (
{
layerId = "F2BBBF4B-19AF-4944-B5B7-53A37E70F101";
paths = (
{
closed = 1;
nodes = (
"496 878 LINE",
"597 1456 LINE",
"254 1456 LINE",
"2 0 LINE",
"344 0 LINE",
"450 608 LINE",
"953 608 LINE",
"935 501 LINE",
"938 501 LINE",
"879 188 OFFCURVE",
"1081 -16 OFFCURVE",
"1389 -21 CURVE SMOOTH",
"1726 -26 OFFCURVE",
"1940 177 OFFCURVE",
"1987 505 CURVE SMOOTH",
"2084 1082 LINE",
"1742 1082 LINE",
"1646 505 LINE SMOOTH",
"1626 365 OFFCURVE",
"1573 244 OFFCURVE",
"1412 249 CURVE SMOOTH",
"1263 256 OFFCURVE",
"1262 382 OFFCURVE",
"1277 503 CURVE",
"1437 1456 LINE",
"1095 1456 LINE",
"995 878 LINE"
);
}
);
width = 2105;
}
);
note = uni01F6;
unicode = 01F6;
},
{
glyphname = uni01F7;
lastChange = "2017-05-20 07:34:14 +0000";
layers = (
{
layerId = "F2BBBF4B-19AF-4944-B5B7-53A37E70F101";
paths = (
{
closed = 1;
nodes = (
"471 -99 OFFCURVE",
"614 -37 OFFCURVE",
"754 44 CURVE SMOOTH",
"1034 204 OFFCURVE",
"1250 442 OFFCURVE",
"1299 763 CURVE SMOOTH",
"1308 830 LINE SMOOTH",
"1335 1062 OFFCURVE",
"1269 1266 OFFCURVE",
"1112 1385 CURVE SMOOTH",
"955 1504 OFFCURVE",
"723 1493 OFFCURVE",
"575 1429 CURVE",
"581 1457 LINE",
"254 1456 LINE",
"-70 -417 LINE",
"270 -417 LINE",
"325 -142 LINE"
);
},
{
closed = 1;
nodes = (
"859 1204 OFFCURVE",
"907 1183 OFFCURVE",
"932 1143 CURVE SMOOTH",
"983 1063 OFFCURVE",
"975 956 OFFCURVE",
"950 776 CURVE SMOOTH",
"933 671 OFFCURVE",
"894 578 OFFCURVE",
"835 499 CURVE SMOOTH",
"715 339 OFFCURVE",
"538 224 OFFCURVE",
"357 139 CURVE",
"538 1106 LINE",
"629 1174 OFFCURVE",
"712 1207 OFFCURVE",
"788 1206 CURVE SMOOTH"
);
}
);
width = 1338;
}
);
note = uni01F7;
unicode = 01F7;
},
{
glyphname = uni021C;
lastChange = "2017-05-20 07:34:14 +0000";
layers = (
{
layerId = "F2BBBF4B-19AF-4944-B5B7-53A37E70F101";
paths = (
{
closed = 1;
nodes = (
"1088 480 OFFCURVE",
"1047 579 OFFCURVE",
"954 653 CURVE",
"1093 769 OFFCURVE",
"1168 907 OFFCURVE",
"1181 1068 CURVE SMOOTH",
"1196 1260 OFFCURVE",
"1094 1376 OFFCURVE",
"943 1432 CURVE SMOOTH",
"791 1487 OFFCURVE",
"617 1492 OFFCURVE",
"446 1433 CURVE SMOOTH",
"275 1373 OFFCURVE",
"147 1250 OFFCURVE",
"136 1057 CURVE",
"477 1059 LINE",
"498 1159 OFFCURVE",
"585 1210 OFFCURVE",
"685 1207 CURVE SMOOTH",
"921 1203 OFFCURVE",
"847 928 OFFCURVE",
"748 826 CURVE SMOOTH",
"648 724 OFFCURVE",
"501 661 OFFCURVE",
"344 614 CURVE SMOOTH",
"142 553 LINE",
"115 298 LINE",
"355 353 OFFCURVE",
"560 420 OFFCURVE",
"729 501 CURVE",
"744 482 OFFCURVE",
"751 459 OFFCURVE",
"750 434 CURVE SMOOTH",
"743 287 OFFCURVE",
"688 169 OFFCURVE",
"587 80 CURVE SMOOTH",
"432 -56 OFFCURVE",
"212 -128 OFFCURVE",
"17 -168 CURVE",
"-13 -437 LINE",
"210 -409 OFFCURVE",
"467 -342 OFFCURVE",
"684 -218 CURVE SMOOTH",
"901 -94 OFFCURVE",
"1059 91 OFFCURVE",
"1079 356 CURVE SMOOTH"
);
}
);
width = 1199;
}
);
note = uni021C;
unicode = 021C;
},
{
glyphname = uni021D;
lastChange = "2017-05-20 07:34:14 +0000";
layers = (
{
layerId = "F2BBBF4B-19AF-4944-B5B7-53A37E70F101";
paths = (
{
closed = 1;
nodes = (
"894 305 OFFCURVE",
"862 391 OFFCURVE",
"790 451 CURVE",
"901 551 OFFCURVE",
"961 665 OFFCURVE",
"968 794 CURVE SMOOTH",
"977 950 OFFCURVE",
"876 1035 OFFCURVE",
"744 1072 CURVE SMOOTH",
"611 1109 OFFCURVE",
"477 1114 OFFCURVE",
"338 1069 CURVE SMOOTH",
"199 1024 OFFCURVE",
"96 926 OFFCURVE",
"88 767 CURVE",
"420 769 LINE",
"437 834 OFFCURVE",
"482 866 OFFCURVE",
"557 863 CURVE SMOOTH",
"633 860 OFFCURVE",
"642 807 OFFCURVE",
"633 742 CURVE SMOOTH",
"610 593 OFFCURVE",
"494 526 OFFCURVE",
"406 482 CURVE SMOOTH",
"361 460 OFFCURVE",
"271 425 OFFCURVE",
"136 378 CURVE",
"112 143 LINE",
"301 190 OFFCURVE",
"455 245 OFFCURVE",
"575 306 CURVE",
"588 206 OFFCURVE",
"545 86 OFFCURVE",
"440 1 CURVE SMOOTH",
"335 -84 OFFCURVE",
"205 -132 OFFCURVE",
"37 -196 CURVE",
"12 -437 LINE",
"177 -404 OFFCURVE",
"384 -348 OFFCURVE",
"563 -251 CURVE SMOOTH",
"742 -155 OFFCURVE",
"874 -13 OFFCURVE",
"887 192 CURVE SMOOTH"
);
}
);
width = 1010;
}
);
note = uni021D;
unicode = 021D;
},
{
glyphname = uni0220;
lastChange = "2017-05-20 07:34:14 +0000";
layers = (
{
layerId = "F2BBBF4B-19AF-4944-B5B7-53A37E70F101";
paths = (
{
closed = 1;
nodes = (
"1235 1163 OFFCURVE",
"1204 1268 OFFCURVE",
"1127 1350 CURVE SMOOTH",
"973 1514 OFFCURVE",
"739 1497 OFFCURVE",
"562 1422 CURVE",
"569 1457 LINE",
"254 1456 LINE",
"2 0 LINE",
"331 0 LINE",
"538 1161 LINE",
"624 1200 OFFCURVE",
"696 1218 OFFCURVE",
"755 1216 CURVE SMOOTH",
"872 1213 OFFCURVE",
"906 1146 OFFCURVE",
"893 1035 CURVE",
"644 -417 LINE",
"974 -417 LINE",
"1222 1034 LINE"
);
}
);
width = 1254;
}
);
note = uni0220;
unicode = 0220;
},
{
glyphname = uni0221;
lastChange = "2017-05-20 07:34:14 +0000";
layers = (
{
layerId = "F2BBBF4B-19AF-4944-B5B7-53A37E70F101";
paths = (
{
closed = 1;
nodes = (
"634 1135 OFFCURVE",
"403 1135 OFFCURVE",
"268 1024 CURVE SMOOTH",
"132 912 OFFCURVE",
"62 725 OFFCURVE",
"41 548 CURVE SMOOTH",
"39 525 LINE SMOOTH",
"23 366 OFFCURVE",
"48 184 OFFCURVE",
"150 69 CURVE SMOOTH",
"252 -47 OFFCURVE",
"471 -61 OFFCURVE",
"620 95 CURVE",
"596 5 LINE",
"288 -204 LINE",
"398 -418 LINE",
"608 -267 LINE",
"661 -400 OFFCURVE",
"815 -435 OFFCURVE",
"944 -436 CURVE SMOOTH",
"1135 -439 OFFCURVE",
"1332 -359 OFFCURVE",
"1339 -143 CURVE SMOOTH",
"1344 44 OFFCURVE",
"1196 123 OFFCURVE",
"1027 124 CURVE SMOOTH",
"996 124 OFFCURVE",
"965 122 OFFCURVE",
"933 118 CURVE",
"1187 1536 LINE",
"856 1536 LINE",
"751 987 LINE"
);
},
{
closed = 1;
nodes = (
"370 705 OFFCURVE",
"446 848 OFFCURVE",
"589 844 CURVE SMOOTH",
"655 842 OFFCURVE",
"699 810 OFFCURVE",
"721 749 CURVE",
"646 332 LINE",
"596 268 OFFCURVE",
"538 237 OFFCURVE",
"473 240 CURVE SMOOTH",
"381 244 OFFCURVE",
"358 325 OFFCURVE",
"361 414 CURVE SMOOTH"
);
},
{
closed = 1;
nodes = (
"983 -87 OFFCURVE",
"1076 -73 OFFCURVE",
"1060 -154 CURVE SMOOTH",
"1052 -203 OFFCURVE",
"1004 -233 OFFCURVE",
"956 -232 CURVE SMOOTH",
"893 -229 OFFCURVE",
"894 -172 OFFCURVE",
"902 -124 CURVE SMOOTH",
"907 -99 LINE"
);
}
);
width = 1500;
}
);
leftKerningGroup = c;
note = uni0221;
unicode = 0221;
},
{
glyphname = uni0222;
lastChange = "2017-05-20 07:34:14 +0000";
layers = (
{
layerId = "F2BBBF4B-19AF-4944-B5B7-53A37E70F101";
paths = (
{
closed = 1;
nodes = (
"1152 610 OFFCURVE",
"1121 722 OFFCURVE",
"1048 815 CURVE",
"1176 886 OFFCURVE",
"1244 987 OFFCURVE",
"1253 1116 CURVE SMOOTH",
"1268 1357 OFFCURVE",
"1096 1466 OFFCURVE",
"876 1477 CURVE",
"847 1215 LINE",
"902 1196 OFFCURVE",
"920 1175 OFFCURVE",
"911 1115 CURVE SMOOTH",
"894 992 OFFCURVE",
"784 968 OFFCURVE",
"676 968 CURVE",
"658 969 LINE SMOOTH",
"611 970 OFFCURVE",
"572 979 OFFCURVE",
"540 995 CURVE SMOOTH",
"476 1026 OFFCURVE",
"491 1176 OFFCURVE",
"612 1216 CURVE",
"642 1478 LINE",
"518 1476 OFFCURVE",
"408 1447 OFFCURVE",
"312 1391 CURVE SMOOTH",
"120 1279 OFFCURVE",
"108 965 OFFCURVE",
"261 825 CURVE",
"130 736 OFFCURVE",
"59 614 OFFCURVE",
"46 460 CURVE SMOOTH",
"21 160 OFFCURVE",
"234 -11 OFFCURVE",
"518 -20 CURVE SMOOTH",
"546 -20 LINE SMOOTH",
"850 -21 OFFCURVE",
"1114 155 OFFCURVE",
"1141 478 CURVE SMOOTH"
);
},
{
closed = 1;
nodes = (
"770 687 OFFCURVE",
"807 590 OFFCURVE",
"792 478 CURVE SMOOTH",
"776 346 OFFCURVE",
"691 247 OFFCURVE",
"552 247 CURVE",
"532 248 LINE SMOOTH",
"416 256 OFFCURVE",
"379 352 OFFCURVE",
"392 460 CURVE SMOOTH",
"408 587 OFFCURVE",
"491 695 OFFCURVE",
"627 695 CURVE",
"647 694 LINE SMOOTH"
);
}
);
width = 1235;
}
);
note = uni0222;
unicode = 0222;
},
{
glyphname = uni0223;
lastChange = "2017-05-20 07:34:14 +0000";
layers = (
{
layerId = "F2BBBF4B-19AF-4944-B5B7-53A37E70F101";
paths = (
{
closed = 1;
nodes = (
"1117 604 OFFCURVE",
"1086 715 OFFCURVE",
"1013 804 CURVE",
"1142 883 OFFCURVE",
"1213 999 OFFCURVE",
"1224 1152 CURVE SMOOTH",
"1241 1392 OFFCURVE",
"1099 1546 OFFCURVE",
"863 1558 CURVE",
"836 1304 LINE",
"900 1272 OFFCURVE",
"908 1213 OFFCURVE",
"899 1145 CURVE SMOOTH",
"880 1010 OFFCURVE",
"796 942 OFFCURVE",
"646 942 CURVE",
"613 944 LINE SMOOTH",
"396 963 OFFCURVE",
"461 1239 OFFCURVE",
"601 1306 CURVE",
"630 1559 LINE",
"497 1556 OFFCURVE",
"385 1520 OFFCURVE",
"296 1450 CURVE SMOOTH",
"116 1310 OFFCURVE",
"93 977 OFFCURVE",
"241 814 CURVE",
"112 729 OFFCURVE",
"41 609 OFFCURVE",
"28 453 CURVE SMOOTH",
"3 156 OFFCURVE",
"209 -12 OFFCURVE",
"492 -20 CURVE SMOOTH",
"520 -20 LINE SMOOTH",
"823 -20 OFFCURVE",
"1078 150 OFFCURVE",
"1105 471 CURVE SMOOTH"
);
},
{
closed = 1;
nodes = (
"745 676 OFFCURVE",
"790 587 OFFCURVE",
"775 471 CURVE SMOOTH",
"758 334 OFFCURVE",
"664 239 OFFCURVE",
"524 239 CURVE",
"504 240 LINE SMOOTH",
"385 248 OFFCURVE",
"341 341 OFFCURVE",
"356 453 CURVE SMOOTH",
"373 584 OFFCURVE",
"463 684 OFFCURVE",
"600 684 CURVE",
"620 683 LINE SMOOTH"
);
}
);
width = 1180;
}
);
note = uni0223;
unicode = 0223;
},
{
glyphname = uni0224;
lastChange = "2017-05-20 07:34:14 +0000";
layers = (
{
layerId = "F2BBBF4B-19AF-4944-B5B7-53A37E70F101";
paths = (
{
closed = 1;
nodes = (
"-5 200 LINE",
"-40 0 LINE",
"774 0 LINE",
"825 -5 OFFCURVE",
"853 -28 OFFCURVE",
"858 -71 CURVE SMOOTH",
"865 -135 OFFCURVE",
"858 -209 OFFCURVE",
"838 -294 CURVE",
"1119 -294 LINE",
"1136 -239 OFFCURVE",
"1147 -186 OFFCURVE",
"1150 -136 CURVE SMOOTH",
"1170 104 OFFCURVE",
"1026 264 OFFCURVE",
"786 269 CURVE SMOOTH",
"439 272 LINE",
"1274 1261 LINE",
"1308 1456 LINE",
"208 1456 LINE",
"160 1185 LINE",
"835 1183 LINE"
);
}
);
width = 1310;
}
);
note = uni0224;
unicode = 0224;
},
{
glyphname = uni0225;
lastChange = "2017-05-20 07:34:14 +0000";
layers = (
{
layerId = "F2BBBF4B-19AF-4944-B5B7-53A37E70F101";
paths = (
{
closed = 1;
nodes = (
"167 1082 LINE",
"122 822 LINE",
"563 820 LINE",
"-5 202 LINE",
"-40 0 LINE",
"626 0 LINE",
"678 -5 OFFCURVE",
"709 -28 OFFCURVE",
"718 -70 CURVE SMOOTH",
"736 -154 OFFCURVE",
"723 -221 OFFCURVE",
"704 -294 CURVE",
"970 -294 LINE",
"987 -237 OFFCURVE",
"997 -184 OFFCURVE",
"1001 -135 CURVE SMOOTH",
"1021 106 OFFCURVE",
"872 254 OFFCURVE",
"635 259 CURVE SMOOTH",
"427 262 LINE",
"997 885 LINE",
"1031 1082 LINE"
);
}
);
width = 1158;
}
);
note = uni0225;
unicode = 0225;
},
{
glyphname = uni0234;
lastChange = "2017-05-20 07:34:14 +0000";
layers = (
{
layerId = "F2BBBF4B-19AF-4944-B5B7-53A37E70F101";
paths = (
{
closed = 1;
nodes = (
"185 0 LINE",
"179 -11 LINE",
"-120 -204 LINE",
"-10 -418 LINE",
"202 -266 LINE",
"251 -401 OFFCURVE",
"407 -436 OFFCURVE",
"535 -437 CURVE SMOOTH",
"727 -440 OFFCURVE",
"926 -360 OFFCURVE",
"931 -143 CURVE SMOOTH",
"936 44 OFFCURVE",
"788 123 OFFCURVE",
"619 124 CURVE SMOOTH",
"588 124 OFFCURVE",
"557 122 OFFCURVE",
"524 118 CURVE",
"779 1536 LINE",
"448 1536 LINE",
"183 0 LINE"
);
},
{
closed = 1;
nodes = (
"578 -87 OFFCURVE",
"666 -73 OFFCURVE",
"653 -154 CURVE SMOOTH",
"644 -202 OFFCURVE",
"595 -232 OFFCURVE",
"548 -231 CURVE SMOOTH",
"485 -228 OFFCURVE",
"486 -172 OFFCURVE",
"493 -124 CURVE",
"498 -99 LINE"
);
}
);
width = 1091;
}
);
note = uni0234;
unicode = 0234;
},
{
glyphname = uni0235;
lastChange = "2017-05-20 07:34:14 +0000";
layers = (
{
layerId = "F2BBBF4B-19AF-4944-B5B7-53A37E70F101";
paths = (
{
closed = 1;
nodes = (
"645 1105 OFFCURVE",
"541 1056 OFFCURVE",
"454 955 CURVE",
"476 1083 LINE",
"169 1082 LINE",
"-19 0 LINE",
"310 0 LINE",
"446 766 LINE",
"492 818 OFFCURVE",
"545 843 OFFCURVE",
"604 842 CURVE SMOOTH",
"707 841 OFFCURVE",
"725 776 OFFCURVE",
"714 683 CURVE",
"600 7 LINE",
"297 -204 LINE",
"406 -419 LINE",
"618 -267 LINE",
"669 -400 OFFCURVE",
"825 -435 OFFCURVE",
"953 -436 CURVE SMOOTH",
"1142 -439 OFFCURVE",
"1343 -360 OFFCURVE",
"1348 -145 CURVE SMOOTH",
"1353 43 OFFCURVE",
"1205 121 OFFCURVE",
"1036 124 CURVE SMOOTH",
"1005 124 OFFCURVE",
"974 122 OFFCURVE",
"941 118 CURVE",
"1043 681 LINE",
"1050 750 OFFCURVE",
"1047 817 OFFCURVE",
"1034 881 CURVE SMOOTH",
"1008 1009 OFFCURVE",
"927 1099 OFFCURVE",
"766 1102 CURVE SMOOTH"
);
},
{
closed = 1;
nodes = (
"1002 -86 OFFCURVE",
"1082 -73 OFFCURVE",
"1069 -154 CURVE SMOOTH",
"1061 -203 OFFCURVE",
"1013 -233 OFFCURVE",
"965 -232 CURVE SMOOTH",
"902 -229 OFFCURVE",
"903 -172 OFFCURVE",
"911 -124 CURVE SMOOTH",
"915 -99 LINE"
);
}
);
width = 1507;
}
);
leftKerningGroup = m;
note = uni0235;
unicode = 0235;
},
{
glyphname = uni0236;
lastChange = "2017-05-20 07:34:14 +0000";
layers = (
{
layerId = "F2BBBF4B-19AF-4944-B5B7-53A37E70F101";
paths = (
{
closed = 1;
nodes = (
"1010 459 OFFCURVE",
"860 537 OFFCURVE",
"691 540 CURVE SMOOTH",
"660 540 OFFCURVE",
"629 538 OFFCURVE",
"596 534 CURVE",
"660 848 LINE",
"832 848 LINE",
"873 1082 LINE",
"700 1082 LINE",
"747 1351 LINE",
"418 1351 LINE",
"371 1082 LINE",
"237 1082 LINE",
"196 848 LINE",
"330 848 LINE",
"257 425 LINE",
"-48 212 LINE",
"62 0 LINE",
"274 150 LINE",
"323 15 OFFCURVE",
"479 -21 OFFCURVE",
"608 -22 CURVE SMOOTH",
"797 -25 OFFCURVE",
"998 55 OFFCURVE",
"1003 271 CURVE SMOOTH"
);
},
{
closed = 1;
nodes = (
"604 323 OFFCURVE",
"630 326 OFFCURVE",
"649 325 CURVE SMOOTH",
"689 324 OFFCURVE",
"734 310 OFFCURVE",
"725 261 CURVE SMOOTH",
"717 212 OFFCURVE",
"668 183 OFFCURVE",
"620 184 CURVE SMOOTH",
"557 185 OFFCURVE",
"558 243 OFFCURVE",
"566 292 CURVE",
"571 316 LINE"
);
}
);
width = 1091;
}
);
note = uni0236;
unicode = 0236;
},
{
glyphname = uni0237;
lastChange = "2017-05-20 07:34:14 +0000";
layers = (
{
layerId = "F2BBBF4B-19AF-4944-B5B7-53A37E70F101";
paths = (
{
closed = 1;
nodes = (
"14 -99 OFFCURVE",
"-29 -180 OFFCURVE",
"-125 -180 CURVE SMOOTH",
"-154 -180 OFFCURVE",
"-186 -175 OFFCURVE",
"-220 -165 CURVE",
"-261 -421 LINE",
"-202 -432 OFFCURVE",
"-147 -439 OFFCURVE",
"-94 -440 CURVE SMOOTH",
"171 -441 OFFCURVE",
"327 -267 OFFCURVE",
"360 -14 CURVE",
"547 1082 LINE",
"218 1082 LINE",
"29 -15 LINE SMOOTH"
);
}
);
width = 587;
}
);
note = uni0237;
unicode = 0237;
},
{
glyphname = uni0238;
lastChange = "2017-05-20 07:34:14 +0000";
layers = (
{
layerId = "F2BBBF4B-19AF-4944-B5B7-53A37E70F101";
paths = (
{
closed = 1;
nodes = (
"1725 719 OFFCURVE",
"1701 901 OFFCURVE",
"1599 1015 CURVE SMOOTH",
"1497 1129 OFFCURVE",
"1272 1141 OFFCURVE",
"1129 993 CURVE",
"1236 1536 LINE",
"906 1536 LINE",
"800 986 LINE",
"683 1135 OFFCURVE",
"450 1135 OFFCURVE",
"315 1024 CURVE SMOOTH",
"180 912 OFFCURVE",
"110 725 OFFCURVE",
"89 548 CURVE SMOOTH",
"87 526 LINE SMOOTH",
"71 366 OFFCURVE",
"97 184 OFFCURVE",
"199 68 CURVE SMOOTH",
"301 -48 OFFCURVE",
"534 -70 OFFCURVE",
"691 118 CURVE",
"677 0 LINE",
"971 0 LINE",
"994 89 LINE",
"1113 -52 OFFCURVE",
"1350 -52 OFFCURVE",
"1483 58 CURVE SMOOTH",
"1616 168 OFFCURVE",
"1683 353 OFFCURVE",
"1706 533 CURVE",
"1708 555 LINE SMOOTH"
);
},
{
closed = 1;
nodes = (
"415 564 OFFCURVE",
"436 674 OFFCURVE",
"475 743 CURVE SMOOTH",
"551 882 OFFCURVE",
"726 872 OFFCURVE",
"770 748 CURVE",
"695 333 LINE",
"646 268 OFFCURVE",
"588 237 OFFCURVE",
"521 240 CURVE SMOOTH",
"430 244 OFFCURVE",
"407 325 OFFCURVE",
"410 414 CURVE SMOOTH"
);
},
{
closed = 1;
nodes = (
"1367 838 OFFCURVE",
"1390 759 OFFCURVE",
"1387 671 CURVE SMOOTH",
"1378 466 OFFCURVE",
"1351 350 OFFCURVE",
"1291 285 CURVE SMOOTH",
"1230 220 OFFCURVE",
"1067 213 OFFCURVE",
"1024 324 CURVE",
"1102 756 LINE",
"1149 816 OFFCURVE",
"1205 845 OFFCURVE",
"1272 842 CURVE SMOOTH"
);
}
);
width = 1818;
}
);
note = uni0238;
rightKerningGroup = b;
unicode = 0238;
},
{
glyphname = uni0239;
lastChange = "2017-05-20 07:34:14 +0000";
layers = (
{
layerId = "F2BBBF4B-19AF-4944-B5B7-53A37E70F101";
paths = (
{
closed = 1;
nodes = (
"1278 -24 OFFCURVE",
"1363 3 OFFCURVE",
"1430 60 CURVE SMOOTH",
"1565 172 OFFCURVE",
"1637 359 OFFCURVE",
"1657 535 CURVE SMOOTH",
"1660 557 LINE",
"1676 718 OFFCURVE",
"1651 901 OFFCURVE",
"1548 1015 CURVE SMOOTH",
"1445 1129 OFFCURVE",
"1211 1145 OFFCURVE",
"1066 982 CURVE",
"1081 1084 LINE",
"818 1082 LINE",
"768 964 LINE",
"657 1143 OFFCURVE",
"401 1135 OFFCURVE",
"267 1024 CURVE SMOOTH",
"133 913 OFFCURVE",
"62 729 OFFCURVE",
"41 550 CURVE SMOOTH",
"39 528 LINE SMOOTH",
"23 371 OFFCURVE",
"48 186 OFFCURVE",
"149 70 CURVE SMOOTH",
"250 -47 OFFCURVE",
"475 -60 OFFCURVE",
"618 92 CURVE",
"517 -416 LINE",
"848 -416 LINE",
"946 91 LINE",
"1005 19 OFFCURVE",
"1081 -18 OFFCURVE",
"1176 -21 CURVE SMOOTH"
);
},
{
closed = 1;
nodes = (
"396 749 OFFCURVE",
"469 847 OFFCURVE",
"589 844 CURVE SMOOTH",
"658 842 OFFCURVE",
"702 813 OFFCURVE",
"723 758 CURVE",
"644 326 LINE",
"597 266 OFFCURVE",
"539 237 OFFCURVE",
"472 240 CURVE SMOOTH",
"380 244 OFFCURVE",
"358 327 OFFCURVE",
"361 416 CURVE SMOOTH",
"370 550 LINE"
);
},
{
closed = 1;
nodes = (
"1316 838 OFFCURVE",
"1338 757 OFFCURVE",
"1337 669 CURVE SMOOTH",
"1329 396 OFFCURVE",
"1263 252 OFFCURVE",
"1140 239 CURVE",
"1113 238 LINE",
"1044 240 OFFCURVE",
"998 269 OFFCURVE",
"975 326 CURVE",
"1054 758 LINE",
"1099 817 OFFCURVE",
"1156 845 OFFCURVE",
"1225 842 CURVE SMOOTH"
);
}
);
width = 1720;
}
);
note = uni0239;
rightKerningGroup = b;
unicode = 0239;
},
{
glyphname = uni023A;
lastChange = "2017-05-20 07:34:14 +0000";
layers = (
{
layerId = "F2BBBF4B-19AF-4944-B5B7-53A37E70F101";
paths = (
{
closed = 1;
nodes = (
"88 0 LINE",
"264 0 LINE",
"393 272 LINE",
"858 272 LINE",
"892 0 LINE",
"1249 0 LINE",
"1068 975 LINE",
"1577 1481 LINE",
"1341 1481 LINE",
"1031 1173 LINE",
"980 1456 LINE",
"656 1456 LINE",
"-78 69 LINE",
"-374 -225 LINE",
"-138 -225 LINE"
);
},
{
closed = 1;
nodes = (
"612 752 LINE",
"760 1046 LINE",
"776 919 LINE"
);
},
{
closed = 1;
nodes = (
"825 543 LINE",
"627 545 LINE",
"802 708 LINE"
);
}
);
width = 1353;
}
);
note = uni023A;
unicode = 023A;
},
{
glyphname = uni023B;
lastChange = "2017-05-20 07:34:14 +0000";
layers = (
{
layerId = "F2BBBF4B-19AF-4944-B5B7-53A37E70F101";
paths = (
{
closed = 1;
nodes = (
"683 -22 OFFCURVE",
"783 -3 OFFCURVE",
"878 37 CURVE SMOOTH",
"1066 117 OFFCURVE",
"1202 273 OFFCURVE",
"1223 494 CURVE",
"883 492 LINE",
"855 328 OFFCURVE",
"759 247 OFFCURVE",
"595 250 CURVE SMOOTH",
"569 251 OFFCURVE",
"544 254 OFFCURVE",
"521 261 CURVE",
"954 1143 LINE",
"971 1114 OFFCURVE",
"981 1084 OFFCURVE",
"982 1051 CURVE",
"980 953 LINE",
"1319 951 LINE",
"1310 1142 OFFCURVE",
"1247 1322 OFFCURVE",
"1074 1421 CURVE",
"1159 1580 LINE",
"965 1581 LINE",
"905 1469 LINE",
"863 1474 OFFCURVE",
"826 1477 OFFCURVE",
"794 1478 CURVE SMOOTH",
"657 1480 OFFCURVE",
"539 1448 OFFCURVE",
"442 1381 CURVE SMOOTH",
"246 1247 OFFCURVE",
"130 1015 OFFCURVE",
"94 767 CURVE SMOOTH",
"83 688 LINE SMOOTH",
"55 467 OFFCURVE",
"81 232 OFFCURVE",
"252 73 CURVE",
"147 -124 LINE",
"342 -125 LINE",
"407 2 LINE",
"466 -13 OFFCURVE",
"523 -20 OFFCURVE",
"578 -21 CURVE SMOOTH"
);
},
{
closed = 1;
nodes = (
"403 453 OFFCURVE",
"405 497 OFFCURVE",
"410 541 CURVE SMOOTH",
"420 628 OFFCURVE",
"449 887 OFFCURVE",
"506 1015 CURVE SMOOTH",
"562 1142 OFFCURVE",
"637 1206 OFFCURVE",
"794 1206 CURVE",
"405 410 LINE"
);
}
);
width = 1304;
}
);
note = uni023B;
unicode = 023B;
},
{
glyphname = uni023C;
lastChange = "2017-05-20 07:34:14 +0000";
layers = (
{
layerId = "F2BBBF4B-19AF-4944-B5B7-53A37E70F101";
paths = (
{
closed = 1;
nodes = (
"703 -26 OFFCURVE",
"928 128 OFFCURVE",
"943 387 CURVE",
"633 386 LINE",
"618 287 OFFCURVE",
"562 237 OFFCURVE",
"465 236 CURVE SMOOTH",
"453 236 LINE",
"706 745 LINE",
"707 720 OFFCURVE",
"705 694 OFFCURVE",
"702 668 CURVE",
"1005 667 LINE",
"1009 819 OFFCURVE",
"970 963 OFFCURVE",
"838 1051 CURVE",
"1040 1456 LINE",
"846 1456 LINE",
"672 1099 LINE",
"610 1103 LINE",
"281 1108 OFFCURVE",
"79 860 OFFCURVE",
"42 551 CURVE SMOOTH",
"39 527 LINE SMOOTH",
"22 354 OFFCURVE",
"51 171 OFFCURVE",
"188 52 CURVE",
"-44 -417 LINE",
"150 -417 LINE",
"350 -11 LINE",
"390 -18 OFFCURVE",
"425 -21 OFFCURVE",
"455 -21 CURVE SMOOTH"
);
},
{
closed = 1;
nodes = (
"389 675 OFFCURVE",
"421 820 OFFCURVE",
"566 847 CURVE",
"344 397 LINE",
"365 528 LINE",
"368 551 LINE"
);
}
);
width = 1033;
}
);
note = uni023C;
unicode = 023C;
},
{
glyphname = uni023E;
lastChange = "2017-05-20 07:34:14 +0000";
layers = (
{
layerId = "F2BBBF4B-19AF-4944-B5B7-53A37E70F101";
paths = (
{
closed = 1;
nodes = (
"408 353 LINE",
"94 -125 LINE",
"293 -125 LINE",
"376 0 LINE",
"689 0 LINE",
"801 651 LINE",
"1151 1185 LINE",
"1319 1185 LINE",
"1361 1454 LINE",
"1319 1452 LINE",
"1410 1582 LINE",
"1212 1581 LINE",
"1129 1456 LINE",
"184 1456 LINE",
"136 1185 LINE",
"552 1185 LINE"
);
},
{
closed = 1;
nodes = (
"874 1064 LINE",
"900 1188 LINE",
"964 1190 LINE"
);
}
);
width = 1253;
}
);
note = uni023E;
unicode = 023E;
},
{
glyphname = uni023F;
lastChange = "2017-05-20 07:34:14 +0000";
layers = (
{
layerId = "F2BBBF4B-19AF-4944-B5B7-53A37E70F101";
paths = (
{
closed = 1;
nodes = (
"565 234 OFFCURVE",
"494 206 OFFCURVE",
"422 206 CURVE SMOOTH",
"325 205 OFFCURVE",
"300 261 OFFCURVE",
"285 349 CURVE",
"-25 236 LINE",
"101 -146 LINE SMOOTH",
"128 -221 OFFCURVE",
"169 -288 OFFCURVE",
"222 -346 CURVE SMOOTH",
"328 -462 OFFCURVE",
"533 -483 OFFCURVE",
"741 -304 CURVE",
"645 -114 LINE",
"570 -169 OFFCURVE",
"507 -194 OFFCURVE",
"454 -191 CURVE SMOOTH",
"373 -187 OFFCURVE",
"357 -78 OFFCURVE",
"348 -15 CURVE",
"397 -21 LINE",
"468 -24 OFFCURVE",
"542 -13 OFFCURVE",
"618 10 CURVE SMOOTH",
"770 56 OFFCURVE",
"890 156 OFFCURVE",
"897 321 CURVE SMOOTH",
"906 530 OFFCURVE",
"740 610 OFFCURVE",
"557 653 CURVE SMOOTH",
"500 666 OFFCURVE",
"378 685 OFFCURVE",
"394 770 CURVE SMOOTH",
"406 837 OFFCURVE",
"476 878 OFFCURVE",
"541 878 CURVE SMOOTH",
"628 878 OFFCURVE",
"656 830 OFFCURVE",
"653 750 CURVE",
"980 748 LINE",
"979 869 OFFCURVE",
"935 958 OFFCURVE",
"848 1015 CURVE SMOOTH",
"675 1129 OFFCURVE",
"481 1117 OFFCURVE",
"340 1067 CURVE SMOOTH",
"199 1017 OFFCURVE",
"90 912 OFFCURVE",
"85 752 CURVE SMOOTH",
"78 561 OFFCURVE",
"253 468 OFFCURVE",
"414 427 CURVE SMOOTH",
"492 407 LINE SMOOTH",
"562 387 OFFCURVE",
"592 355 OFFCURVE",
"582 311 CURVE SMOOTH"
);
}
);
width = 1009;
}
);
leftKerningGroup = s;
note = uni023F;
unicode = 023F;
},
{
glyphname = uni0240;
lastChange = "2017-05-20 07:34:14 +0000";
layers = (
{
layerId = "F2BBBF4B-19AF-4944-B5B7-53A37E70F101";
paths = (
{
closed = 1;
nodes = (
"-5 202 LINE",
"-40 0 LINE",
"353 0 LINE",
"476 -11 OFFCURVE",
"532 -112 OFFCURVE",
"586 -223 CURVE SMOOTH",
"640 -334 OFFCURVE",
"709 -432 OFFCURVE",
"860 -435 CURVE SMOOTH",
"975 -436 OFFCURVE",
"1089 -382 OFFCURVE",
"1172 -303 CURVE",
"1076 -114 LINE",
"1029 -150 OFFCURVE",
"969 -193 OFFCURVE",
"906 -193 CURVE SMOOTH",
"807 -192 OFFCURVE",
"760 -86 OFFCURVE",
"709 31 CURVE SMOOTH",
"658 148 OFFCURVE",
"589 254 OFFCURVE",
"448 255 CURVE SMOOTH",
"416 255 LINE",
"997 885 LINE",
"1031 1082 LINE",
"167 1082 LINE",
"122 822 LINE",
"563 820 LINE"
);
}
);
width = 1295;
}
);
leftKerningGroup = z;
note = uni0240;
unicode = 0240;
},
{
glyphname = uni0241;
lastChange = "2017-05-20 07:34:14 +0000";
layers = (
{
layerId = "F2BBBF4B-19AF-4944-B5B7-53A37E70F101";
paths = (
{
closed = 1;
nodes = (
"643 281 LINE",
"880 358 OFFCURVE",
"1008 554 OFFCURVE",
"1043 791 CURVE SMOOTH",
"1062 926 LINE SMOOTH",
"1097 1219 OFFCURVE",
"939 1469 OFFCURVE",
"627 1476 CURVE SMOOTH",
"359 1483 OFFCURVE",
"132 1300 OFFCURVE",
"116 1027 CURVE",
"442 1028 LINE",
"454 1121 OFFCURVE",
"506 1207 OFFCURVE",
"611 1203 CURVE SMOOTH",
"702 1200 OFFCURVE",
"725 1123 OFFCURVE",
"721 1038 CURVE SMOOTH",
"713 927 LINE",
"697 805 LINE SMOOTH",
"678 668 OFFCURVE",
"636 523 OFFCURVE",
"476 520 CURVE",
"335 523 LINE",
"244 0 LINE",
"587 0 LINE"
);
}
);
width = 1029;
}
);
note = uni0241;
unicode = 0241;
},
{
glyphname = uni0242;
lastChange = "2017-05-20 07:34:14 +0000";
layers = (
{
layerId = "F2BBBF4B-19AF-4944-B5B7-53A37E70F101";
paths = (
{
closed = 1;
nodes = (
"671 332 LINE",
"867 367 OFFCURVE",
"996 491 OFFCURVE",
"1009 694 CURVE SMOOTH",
"1028 951 OFFCURVE",
"851 1099 OFFCURVE",
"603 1103 CURVE SMOOTH",
"351 1107 OFFCURVE",
"135 945 OFFCURVE",
"120 685 CURVE",
"448 687 LINE",
"461 760 OFFCURVE",
"495 846 OFFCURVE",
"583 845 CURVE SMOOTH",
"676 845 OFFCURVE",
"685 763 OFFCURVE",
"676 688 CURVE SMOOTH",
"660 562 OFFCURVE",
"590 498 OFFCURVE",
"467 495 CURVE",
"364 497 LINE",
"277 0 LINE",
"606 0 LINE"
);
}
);
width = 1038;
}
);
note = uni0242;
unicode = 0242;
},
{
glyphname = uni0244;
lastChange = "2017-05-20 07:34:14 +0000";
layers = (
{
layerId = "F2BBBF4B-19AF-4944-B5B7-53A37E70F101";
paths = (
{
closed = 1;
nodes = (
"1033 -26 OFFCURVE",
"1276 172 OFFCURVE",
"1323 505 CURVE SMOOTH",
"1346 651 LINE",
"1532 651 LINE",
"1565 842 LINE",
"1379 842 LINE",
"1485 1456 LINE",
"1143 1456 LINE",
"1036 842 LINE",
"609 842 LINE",
"715 1456 LINE",
"371 1456 LINE",
"264 842 LINE",
"80 842 LINE",
"47 651 LINE",
"231 651 LINE",
"209 505 LINE SMOOTH",
"170 182 OFFCURVE",
"384 -16 OFFCURVE",
"697 -21 CURVE SMOOTH"
);
},
{
closed = 1;
nodes = (
"1004 651 LINE",
"981 504 LINE SMOOTH",
"957 355 OFFCURVE",
"878 243 OFFCURVE",
"718 250 CURVE SMOOTH",
"566 255 OFFCURVE",
"538 371 OFFCURVE",
"554 504 CURVE SMOOTH",
"576 651 LINE"
);
}
);
width = 1563;
}
);
note = uni0244;
unicode = 0244;
},
{
glyphname = uni0245;
lastChange = "2017-05-20 07:34:14 +0000";
layers = (
{
layerId = "F2BBBF4B-19AF-4944-B5B7-53A37E70F101";
paths = (
{
closed = 1;
nodes = (
"740 1058 LINE",
"836 0 LINE",
"1208 0 LINE",
"984 1456 LINE",
"610 1456 LINE",
"-114 0 LINE",
"276 0 LINE"
);
}
);
width = 1314;
}
);
leftKerningGroup = A;
note = uni0245;
rightKerningGroup = A;
unicode = 0245;
},
{
glyphname = uni0246;
lastChange = "2017-05-20 07:34:14 +0000";
layers = (
{
layerId = "F2BBBF4B-19AF-4944-B5B7-53A37E70F101";
paths = (
{
closed = 1;
nodes = (
"226 -125 LINE",
"421 -125 LINE",
"480 0 LINE",
"976 0 LINE",
"1023 270 LINE",
"606 270 LINE",
"768 617 LINE",
"985 617 LINE",
"1033 877 LINE",
"887 880 LINE",
"1035 1184 LINE",
"1184 1185 LINE",
"1231 1456 LINE",
"1160 1456 LINE",
"1219 1581 LINE",
"1025 1581 LINE",
"965 1456 LINE",
"254 1456 LINE",
"2 0 LINE",
"285 0 LINE"
);
},
{
closed = 1;
nodes = (
"839 1185 LINE",
"695 878 LINE",
"496 878 LINE",
"550 1185 LINE"
);
},
{
closed = 1;
nodes = (
"574 617 LINE",
"408 267 LINE",
"385 267 LINE",
"452 617 LINE"
);
}
);
width = 1112;
}
);
note = uni0246;
unicode = 0246;
},
{
glyphname = uni0247;
lastChange = "2017-05-20 07:34:14 +0000";
layers = (
{
layerId = "F2BBBF4B-19AF-4944-B5B7-53A37E70F101";
paths = (
{
closed = 1;
nodes = (
"666 -22 OFFCURVE",
"851 33 OFFCURVE",
"942 168 CURVE",
"806 351 LINE",
"728 276 OFFCURVE",
"638 238 OFFCURVE",
"535 237 CURVE",
"491 239 LINE",
"592 435 LINE",
"1014 435 LINE",
"1034 572 LINE SMOOTH",
"1055 747 OFFCURVE",
"1020 936 OFFCURVE",
"872 1045 CURVE",
"1076 1456 LINE",
"881 1456 LINE",
"704 1097 LINE",
"634 1102 LINE",
"299 1109 OFFCURVE",
"84 860 OFFCURVE",
"49 541 CURVE SMOOTH",
"45 502 LINE SMOOTH",
"29 329 OFFCURVE",
"82 162 OFFCURVE",
"223 54 CURVE",
"-10 -417 LINE",
"187 -417 LINE",
"385 -8 LINE",
"440 -17 OFFCURVE",
"482 -21 OFFCURVE",
"511 -21 CURVE SMOOTH"
);
},
{
closed = 1;
nodes = (
"391 758 OFFCURVE",
"462 845 OFFCURVE",
"603 845 CURVE",
"495 647 LINE",
"355 643 LINE"
);
},
{
closed = 1;
nodes = (
"683 641 LINE",
"752 773 LINE",
"761 742 OFFCURVE",
"762 709 OFFCURVE",
"755 674 CURVE",
"747 644 LINE"
);
},
{
closed = 1;
nodes = (
"340 322 LINE",
"325 361 OFFCURVE",
"325 394 OFFCURVE",
"333 435 CURVE",
"392 437 LINE"
);
}
);
width = 1083;
}
);
note = uni0247;
unicode = 0247;
},
{
glyphname = uni024A;
lastChange = "2017-05-20 07:34:14 +0000";
layers = (
{
layerId = "F2BBBF4B-19AF-4944-B5B7-53A37E70F101";
paths = (
{
closed = 1;
nodes = (
"939 1491 OFFCURVE",
"673 1510 OFFCURVE",
"467 1382 CURVE SMOOTH",
"261 1253 OFFCURVE",
"130 1028 OFFCURVE",
"94 769 CURVE SMOOTH",
"83 686 LINE SMOOTH",
"69 567 OFFCURVE",
"79 454 OFFCURVE",
"113 347 CURVE SMOOTH",
"180 134 OFFCURVE",
"344 -15 OFFCURVE",
"607 -19 CURVE SMOOTH",
"690 -19 OFFCURVE",
"763 -11 OFFCURVE",
"826 6 CURVE",
"821 -18 LINE SMOOTH",
"792 -185 OFFCURVE",
"878 -312 OFFCURVE",
"1014 -381 CURVE SMOOTH",
"1150 -450 OFFCURVE",
"1280 -442 OFFCURVE",
"1379 -422 CURVE",
"1406 -150 LINE",
"1361 -155 OFFCURVE",
"1328 -158 OFFCURVE",
"1305 -158 CURVE SMOOTH",
"1214 -155 OFFCURVE",
"1143 -118 OFFCURVE",
"1154 -17 CURVE",
"1407 1456 LINE",
"1139 1456 LINE",
"1128 1430 LINE"
);
},
{
closed = 1;
nodes = (
"921 1202 OFFCURVE",
"982 1180 OFFCURVE",
"1016 1139 CURVE",
"864 318 LINE",
"801 274 OFFCURVE",
"728 253 OFFCURVE",
"645 255 CURVE SMOOTH",
"489 259 OFFCURVE",
"434 366 OFFCURVE",
"426 498 CURVE SMOOTH",
"424 553 LINE SMOOTH",
"423 656 OFFCURVE",
"443 844 OFFCURVE",
"503 979 CURVE SMOOTH",
"562 1114 OFFCURVE",
"666 1209 OFFCURVE",
"833 1204 CURVE SMOOTH"
);
}
);
width = 1555;
}
);
leftKerningGroup = C;
note = uni024A;
unicode = 024A;
},
{
glyphname = uni024B;
lastChange = "2017-05-20 07:34:14 +0000";
layers = (
{
layerId = "F2BBBF4B-19AF-4944-B5B7-53A37E70F101";
paths = (
{
closed = 1;
nodes = (
"657 1143 OFFCURVE",
"401 1134 OFFCURVE",
"267 1024 CURVE SMOOTH",
"133 914 OFFCURVE",
"62 728 OFFCURVE",
"41 551 CURVE SMOOTH",
"39 529 LINE SMOOTH",
"23 370 OFFCURVE",
"48 186 OFFCURVE",
"149 70 CURVE SMOOTH",
"250 -47 OFFCURVE",
"471 -60 OFFCURVE",
"618 92 CURVE",
"584 -77 LINE",
"571 -198 OFFCURVE",
"599 -288 OFFCURVE",
"668 -346 CURVE SMOOTH",
"805 -462 OFFCURVE",
"1008 -442 OFFCURVE",
"1105 -423 CURVE",
"1124 -204 LINE",
"1080 -208 OFFCURVE",
"1051 -210 OFFCURVE",
"1038 -209 CURVE",
"954 -208 OFFCURVE",
"900 -168 OFFCURVE",
"909 -80 CURVE",
"1108 1082 LINE",
"819 1083 LINE",
"768 964 LINE"
);
},
{
closed = 1;
nodes = (
"366 566 OFFCURVE",
"387 675 OFFCURVE",
"426 744 CURVE SMOOTH",
"503 881 OFFCURVE",
"682 869 OFFCURVE",
"723 758 CURVE",
"644 326 LINE",
"597 266 OFFCURVE",
"539 237 OFFCURVE",
"472 240 CURVE SMOOTH",
"380 244 OFFCURVE",
"358 327 OFFCURVE",
"361 416 CURVE SMOOTH"
);
}
);
width = 1274;
}
);
leftKerningGroup = c;
note = uni024B;
unicode = 024B;
},
{
glyphname = uni024C;
lastChange = "2017-05-20 07:34:14 +0000";
layers = (
{
layerId = "F2BBBF4B-19AF-4944-B5B7-53A37E70F101";
paths = (
{
closed = 1;
nodes = (
"1215 17 LINE",
"1020 599 LINE",
"1215 680 OFFCURVE",
"1320 821 OFFCURVE",
"1335 1024 CURVE SMOOTH",
"1356 1320 OFFCURVE",
"1127 1450 OFFCURVE",
"860 1455 CURVE SMOOTH",
"321 1456 LINE",
"205 785 LINE",
"48 785 LINE",
"1 514 LINE",
"158 514 LINE",
"69 0 LINE",
"411 0 LINE",
"501 514 LINE",
"690 514 LINE",
"850 0 LINE",
"1214 0 LINE"
);
},
{
closed = 1;
nodes = (
"962 1179 OFFCURVE",
"1005 1100 OFFCURVE",
"990 992 CURVE SMOOTH",
"971 861 OFFCURVE",
"878 784 OFFCURVE",
"747 783 CURVE SMOOTH",
"547 785 LINE",
"617 1185 LINE",
"849 1184 LINE"
);
}
);
width = 1363;
}
);
note = uni024C;
unicode = 024C;
},
{
glyphname = uni024E;
lastChange = "2017-05-20 07:34:14 +0000";
layers = (
{
layerId = "F2BBBF4B-19AF-4944-B5B7-53A37E70F101";
paths = (
{
closed = 1;
nodes = (
"1500 1008 LINE",
"1533 1179 LINE",
"1333 1181 LINE",
"1522 1455 LINE",
"1136 1456 LINE",
"974 1179 LINE",
"684 1179 LINE",
"618 1456 LINE",
"260 1455 LINE",
"352 1180 LINE",
"140 1179 LINE",
"109 1008 LINE",
"404 1008 LINE",
"552 540 LINE",
"458 0 LINE",
"805 0 LINE",
"893 506 LINE",
"1225 1008 LINE"
);
},
{
closed = 1;
nodes = (
"878 1006 LINE",
"767 829 LINE",
"722 1007 LINE"
);
}
);
width = 1470;
}
);
leftKerningGroup = Y;
note = uni024E;
rightKerningGroup = Y;
unicode = 024E;
},
{
glyphname = uni024F;
lastChange = "2017-05-20 07:34:14 +0000";
layers = (
{
layerId = "F2BBBF4B-19AF-4944-B5B7-53A37E70F101";
paths = (
{
closed = 1;
nodes = (
"1152 584 LINE",
"1180 745 LINE",
"1040 745 LINE",
"1213 1082 LINE",
"850 1082 LINE",
"695 745 LINE",
"545 745 LINE",
"511 1082 LINE",
"170 1082 LINE",
"225 745 LINE",
"63 745 LINE",
"35 584 LINE",
"251 584 LINE",
"345 8 LINE",
"285 -101 LINE",
"253 -150 OFFCURVE",
"199 -175 OFFCURVE",
"124 -177 CURVE SMOOTH",
"75 -177 LINE",
"49 -418 LINE",
"109 -433 OFFCURVE",
"158 -440 OFFCURVE",
"195 -440 CURVE SMOOTH",
"391 -440 OFFCURVE",
"500 -327 OFFCURVE",
"579 -162 CURVE SMOOTH",
"958 584 LINE"
);
},
{
closed = 1;
nodes = (
"574 475 LINE",
"568 586 LINE",
"630 588 LINE"
);
}
);
width = 1194;
}
);
note = uni024F;
unicode = 024F;
},
{
glyphname = uni0250;
lastChange = "2017-05-20 07:34:14 +0000";
layers = (
{
layerId = "F2BBBF4B-19AF-4944-B5B7-53A37E70F101";
paths = (
{
closed = 1;
nodes = (
"586 252 OFFCURVE",
"543 213 OFFCURVE",
"472 214 CURVE SMOOTH",
"385 217 OFFCURVE",
"372 288 OFFCURVE",
"384 361 CURVE",
"397 422 LINE",
"505 420 LINE SMOOTH",
"668 420 OFFCURVE",
"843 456 OFFCURVE",
"953 562 CURVE SMOOTH",
"1063 668 OFFCURVE",
"1078 895 OFFCURVE",
"950 1012 CURVE SMOOTH",
"821 1129 OFFCURVE",
"603 1144 OFFCURVE",
"454 983 CURVE",
"455 1020 OFFCURVE",
"451 1054 OFFCURVE",
"442 1085 CURVE",
"121 1085 LINE",
"120 1063 LINE",
"137 1024 OFFCURVE",
"144 983 OFFCURVE",
"140 938 CURVE SMOOTH",
"131 861 LINE",
"53 366 LINE",
"41 243 OFFCURVE",
"74 149 OFFCURVE",
"152 83 CURVE SMOOTH",
"308 -50 OFFCURVE",
"515 -35 OFFCURVE",
"664 14 CURVE SMOOTH",
"813 62 OFFCURVE",
"927 166 OFFCURVE",
"934 334 CURVE",
"603 333 LINE"
);
},
{
closed = 1;
nodes = (
"690 862 OFFCURVE",
"716 830 OFFCURVE",
"707 767 CURVE SMOOTH",
"694 660 OFFCURVE",
"606 603 OFFCURVE",
"503 600 CURVE",
"418 601 LINE",
"451 775 LINE",
"502 837 OFFCURVE",
"562 867 OFFCURVE",
"629 864 CURVE SMOOTH"
);
}
);
width = 1055;
}
);
note = uni0250;
unicode = 0250;
},
